<svg width="1.5em" viewBox="0 0 1024 1024" version="1.1" xmlns="http://www.w3.org/2000/svg" xmlns:xlink="http://www.w3.org/1999/xlink" xml:space="preserve" xmlns:serif="http://www.serif.com/" style="fill-rule:evenodd;clip-rule:evenodd;stroke-linejoin:round;stroke-miterlimit:2;" role="img">
    <g id="Various--Formats--Illustration" serif:id="Various 
Formats
 Illustration">
        <g transform="matrix(-0.692042,-0.721857,-0.721857,0.692042,729.494,344.524)">
            <path d="M10.273,117.017L47.637,117.017C47.637,117.017 60.806,77.935 66.148,62.263C78.651,25.584 1.927,5.809 3.565,43.971C3.495,43.898 3.509,43.356 10.273,117.017" style="fill:white;fill-rule:nonzero;stroke:black;stroke-width:1px;"/>
        </g>
        <g transform="matrix(1,0,0,1,743.781,867.5)">
            <path d="M0,-296.103L20.425,-296.103L14.815,5.991L4.517,5.991C-0.09,-302.094 -0.101,-296.103 0,-296.103" style="fill-rule:nonzero;"/>
        </g>
        <g transform="matrix(-1,0,0,1,698.69,746.842)">
            <path d="M-111.372,30.265L0.768,30.265C6.489,30.265 11.096,27.754 11.096,21.228C11.096,0 -121.707,1.714 -121.707,21.228C-121.809,21.228 -122.468,30.265 -111.372,30.265" style="fill-rule:nonzero;"/>
        </g>
        <g transform="matrix(1,0,0,1,732.299,862.777)">
            <path d="M0,-244.579C-0.652,-244.579 -1.181,-244.079 -1.182,-243.461L-1.182,-1.118C-1.183,-0.496 -0.653,0 -0.001,0C0.466,0 1.182,-0.333 1.183,-1.11L1.183,-243.459C1.183,-243.93 0.796,-244.579 0,-244.579" style="fill-rule:nonzero;"/>
        </g>
        <g transform="matrix(1,0,0,1,746.144,567.421)">
            <path d="M0,72.336L15.7,72.336L-47.225,-2.393L-57.522,-2.393C1.843,74.729 -0.101,72.336 0,72.336" style="fill-rule:nonzero;"/>
        </g>
        <g transform="matrix(-1,0,0,1,803.666,565.945)">
            <path d="M41.822,73.812L57.521,73.812L-5.405,-0.917L-15.699,-0.917C42.528,74.729 41.923,73.812 41.822,73.812" style="fill-rule:nonzero;"/>
        </g>
        <g transform="matrix(1,0,0,1,720.305,577.811)">
            <path d="M0,-46.896C-40.017,-45.861 -53.746,-25 -53.746,-12.692C-53.746,-4.79 -51.691,0 -45.108,0L119.053,0C125.638,0 127.686,-4.79 127.686,-12.692C127.686,-24.74 115.523,-45.567 76.485,-46.822C76.174,-46.833 49.241,-46.896 0,-46.896" style="fill:rgb(245,147,61);fill-rule:nonzero;"/>
        </g>
        <g transform="matrix(1,0,0,1,751.366,873.49)">
            <path d="M0,-16.715C-48.156,-16.715 -77.597,-7.278 -77.597,0L81.76,0C81.76,-7.278 52.316,-16.715 4.162,-16.715L2.081,-13.305L0,-16.715Z" style="fill-rule:nonzero;"/>
        </g>
        <g transform="matrix(1,0,0,1,774.669,862.785)">
            <path d="M0,-249.068C-0.652,-249.068 -1.182,-248.567 -1.181,-247.949L-1.181,-1.126C-1.182,-0.504 -0.652,0 0,-0.007C0.653,0 1.183,-0.504 1.182,-1.126L1.182,-247.949C1.183,-248.438 0.783,-249.068 0,-249.068" style="fill-rule:nonzero;"/>
        </g>
        <g transform="matrix(1,0,0,1,694.456,803.257)">
            <path d="M0,-39.62C-0.482,-39.203 -0.797,-38.785 -0.702,-38.686L36.899,0.44C37.123,0.676 38.873,-0.837 38.646,-1.069L1.045,-40.197C0.951,-40.296 0.483,-40.037 0,-39.62" style="fill-rule:nonzero;"/>
        </g>
        <g transform="matrix(1,0,0,1,812.662,803.257)">
            <path d="M0,-39.62C0.488,-39.203 0.796,-38.785 0.701,-38.686L-36.897,0.44C-37.122,0.676 -38.87,-0.837 -38.644,-1.069L-1.04,-40.197C-0.945,-40.296 -0.48,-40.037 0,-39.62" style="fill-rule:nonzero;"/>
        </g>
        <g transform="matrix(1,0,0,1,224.845,308.974)">
            <path d="M0,-124.25C-5.934,-124.25 -10.711,-119.474 -10.711,-113.539L-10.711,-10.71C-10.711,-4.777 -5.934,0 0,0L73.449,0C79.384,0 84.161,-4.777 84.161,-10.71L84.161,-88.749L48.661,-124.25L0,-124.25Z" style="fill:rgb(239,157,52);fill-rule:nonzero;"/>
        </g>
        <g transform="matrix(1,0,0,1,214.135,293.805)">
            <path d="M0,-12.22L0,0L61.972,-12.22L0,-12.22Z" style="fill-rule:nonzero;"/>
        </g>
        <g transform="matrix(1,0,0,1,209.543,284.186)">
            <path d="M0,-45.6L71.919,-45.6C75.48,-45.6 78.345,-42.734 78.345,-39.172L78.345,-6.426C78.345,-2.866 75.48,0 71.919,0L0,0C-3.56,0 -6.427,-2.866 -6.427,-6.426L-6.427,-39.172C-6.427,-42.714 -3.578,-45.6 0,-45.6" style="fill:white;fill-rule:nonzero;stroke:black;stroke-width:1px;"/>
        </g>
        <g transform="matrix(1,0,0,1,281.462,226.076)">
            <path d="M0,-7.382L27.544,0L27.544,-5.851C12.494,-6.687 -0.135,-7.382 0,-7.382" style="fill-rule:nonzero;"/>
        </g>
        <g transform="matrix(-0.707097,-0.707117,-0.707117,0.707097,291.257,177.371)">
            <path d="M-42.853,17.751L7.353,17.751L-10.177,35.279C-14.373,39.475 -21.129,39.475 -25.324,35.28L-42.853,17.751Z" style="fill:rgb(234,197,61);fill-rule:nonzero;"/>
        </g>
        <g transform="matrix(1,0,0,1,388.693,308.974)">
            <path d="M0,-124.25C-5.934,-124.25 -10.711,-119.474 -10.711,-113.539L-10.711,-10.71C-10.711,-4.777 -5.934,0 0,0L73.449,0C79.384,0 84.161,-4.777 84.161,-10.71L84.161,-88.749L48.661,-124.25L0,-124.25Z" style="fill:rgb(95,149,207);fill-rule:nonzero;"/>
        </g>
        <g transform="matrix(1,0,0,1,377.982,293.804)">
            <path d="M0,-12.22L0,0L61.973,-12.22L0,-12.22Z" style="fill-rule:nonzero;"/>
        </g>
        <g transform="matrix(1,0,0,1,373.392,284.186)">
            <path d="M0,-45.6L71.919,-45.6C75.479,-45.6 78.346,-42.734 78.346,-39.172L78.346,-6.426C78.346,-2.866 75.479,0 71.919,0L0,0C-3.56,0 -6.427,-2.866 -6.427,-6.426L-6.427,-39.172C-6.427,-42.729 -3.563,-45.6 0,-45.6" style="fill:white;fill-rule:nonzero;stroke:black;stroke-width:1px;"/>
        </g>
        <g transform="matrix(1,0,0,1,445.31,226.076)">
            <path d="M0,-7.382L27.545,0L27.545,-5.851C12.495,-6.687 -0.135,-7.382 0,-7.382" style="fill-rule:nonzero;"/>
        </g>
        <g transform="matrix(-0.707097,-0.707117,-0.707117,0.707097,455.105,177.371)">
            <path d="M-42.853,17.751L7.353,17.751L-10.177,35.279C-14.373,39.475 -21.129,39.475 -25.324,35.279L-42.853,17.751Z" style="fill:rgb(125,198,238);fill-rule:nonzero;"/>
        </g>
        <g transform="matrix(1,0,0,1,219.613,480.297)">
            <path d="M0,-124.249C-5.935,-124.249 -10.712,-119.473 -10.712,-113.539L-10.712,-10.711C-10.712,-4.777 -5.935,0 0,0L73.449,0C79.383,0 84.16,-4.777 84.16,-10.711L84.16,-88.749L48.66,-124.249L0,-124.249Z" style="fill:rgb(86,187,106);fill-rule:nonzero;"/>
        </g>
        <g transform="matrix(1,0,0,1,208.901,465.127)">
            <path d="M0,-12.22L0,0L61.973,-12.22L0,-12.22Z" style="fill-rule:nonzero;"/>
        </g>
        <g transform="matrix(1,0,0,1,204.311,455.511)">
            <path d="M0,-45.602L71.919,-45.602C75.479,-45.602 78.346,-42.735 78.346,-39.173L78.346,-6.428C78.346,-2.868 75.479,0 71.919,0L0,0C-3.561,0 -6.427,-2.867 -6.427,-6.428L-6.427,-39.173C-6.427,-42.731 -3.563,-45.602 0,-45.602" style="fill:white;fill-rule:nonzero;stroke:black;stroke-width:1px;"/>
        </g>
        <g transform="matrix(1,0,0,1,276.229,397.398)">
            <path d="M0,-7.381L27.543,0L27.543,-5.85C12.493,-6.687 -0.135,-7.381 0,-7.381" style="fill-rule:nonzero;"/>
        </g>
        <g transform="matrix(-0.707087,-0.707127,-0.707127,0.707087,286.024,348.694)">
            <path d="M-42.853,17.751L7.353,17.751L-10.177,35.28C-14.373,39.476 -21.129,39.476 -25.326,35.279L-42.853,17.751Z" style="fill:rgb(131,200,135);fill-rule:nonzero;"/>
        </g>
        <g transform="matrix(1,0,0,1,392.069,655.746)">
            <path d="M0,-124.249C-5.934,-124.249 -10.711,-119.475 -10.711,-113.539L-10.711,-10.711C-10.711,-4.776 -5.934,0 0,0L73.449,0C79.383,0 84.161,-4.776 84.161,-10.711L84.161,-88.75L48.661,-124.249L0,-124.249Z" style="fill:rgb(79,70,156);fill-rule:nonzero;"/>
        </g>
        <g transform="matrix(1,0,0,1,381.358,640.576)">
            <path d="M0,-12.219L0,0L61.972,-12.219L0,-12.219Z" style="fill-rule:nonzero;"/>
        </g>
        <g transform="matrix(1,0,0,1,376.768,630.96)">
            <path d="M0,-45.6L71.919,-45.6C75.479,-45.6 78.345,-42.735 78.345,-39.174L78.345,-6.428C78.345,-2.867 75.479,0 71.919,0L0,0C-3.56,0 -6.427,-2.867 -6.427,-6.428L-6.427,-39.174C-6.427,-42.731 -3.563,-45.6 0,-45.6" style="fill:white;fill-rule:nonzero;stroke:black;stroke-width:1px;"/>
        </g>
        <g transform="matrix(1,0,0,1,448.686,572.848)">
            <path d="M0,-7.382L27.544,0L27.544,-5.852C12.494,-6.688 -0.135,-7.382 0,-7.382" style="fill-rule:nonzero;"/>
        </g>
        <g transform="matrix(-0.707097,-0.707117,-0.707117,0.707097,458.481,524.143)">
            <path d="M-42.853,17.751L7.353,17.751L-10.177,35.279C-14.374,39.476 -21.129,39.475 -25.324,35.28L-42.853,17.751Z" style="fill:rgb(133,123,186);fill-rule:nonzero;"/>
        </g>
        <g transform="matrix(1,0,0,1,677.71,736.232)">
            <path d="M0,-37.71L11.098,-21.168C7.298,-11.105 -2.666,-1.969 -10.942,0.871L-24.479,-13.231L-14.795,-27.347C1.243,-38.581 -0.101,-37.71 0,-37.71" style="fill:white;fill-rule:nonzero;stroke:black;stroke-width:1px;"/>
        </g>
        <g transform="matrix(-0.5658,0.824543,0.824543,0.5658,672.119,707.789)">
            <path d="M6.112,-6.969L23.23,-6.969C23.23,-6.969 5.075,5.496 -7.706,7.158L-10.804,-0.634C3.34,-5.93 6.189,-7.08 6.112,-6.969" style="fill-rule:nonzero;"/>
        </g>
        <g transform="matrix(1,0,0,1,690.61,716.065)">
            <path d="M0,19.765C-6.498,21.906 -10.49,12.29 -10.49,12.29C6.809,-2.141 7.562,4.364 13.809,13.9C13.943,13.9 6.229,17.713 0,19.765" style="fill:white;fill-rule:nonzero;"/>
        </g>
        <g transform="matrix(1,0,0,1,721.817,786.569)">
            <path d="M0,-37.376C-0.559,-47.28 -6.484,-52.264 -17.398,-56.605C-28.61,-50.634 -33.859,-49.925 -41.697,-58.214L-55.05,-49.467C-55.05,-49.467 -67.86,-55.341 -64.591,-43.214C-61.321,-31.09 -80.977,-9.642 -86.724,1.552C-93.221,14.206 -88.855,20.838 -81.082,15.745C0.763,-37.875 0.101,-37.376 0,-37.376" style="fill:white;fill-rule:nonzero;stroke:black;stroke-width:1px;"/>
        </g>
        <g transform="matrix(1,0,0,1,644.31,757.567)">
            <path d="M0,-5.09C-2.931,-3.169 -4.046,0.026 -3.224,2.93C-2.598,5.139 0.918,8.839 3.888,10.637C4.367,10.056 5.155,8.802 5.082,8.757C2.342,7.087 -0.634,3.872 -1.072,2.324C-1.532,0.699 -1.018,-0.715 -0.133,-2.015C3.215,-6.938 10.46,-2.365 10.516,-2.326C15.891,1.388 26.95,7.331 31.23,2.282C33.365,-0.242 33.687,-5.951 30.233,-9.713C24.712,-15.727 13.508,-14.478 10.472,-5.028C6.83,-7.145 2.861,-6.946 0,-5.09M16.382,-9.664C20.205,-12.17 25.694,-11.359 28.589,-8.203C31.279,-5.274 30.926,-0.816 29.527,0.836C26.455,4.459 16.525,-1.057 12.541,-3.766C13.291,-6.515 14.632,-8.51 16.381,-9.665L16.382,-9.664Z" style="fill-rule:nonzero;"/>
        </g>
        <g transform="matrix(1,0,0,1,708.395,795.141)">
            <path d="M0,-50.985C-1.385,-44.339 -9.362,-40.059 -9.362,-40.059L-76.443,3.889C-76.28,8.854 -72.684,10.464 -67.66,7.173L13.422,-45.948C13.014,-53.191 9.723,-57.797 3.723,-61.449C3.843,-61.449 1.277,-57.108 0,-50.985" style="fill-rule:nonzero;"/>
        </g>
        <g transform="matrix(1,0,0,1,647.596,762.63)">
            <path d="M0,-1.491C-0.481,-1.105 -0.557,-0.402 -0.171,0.079L-0.17,0.079C0.216,0.559 0.917,0.636 1.397,0.252C2.697,-0.795 4.497,-0.679 5.756,1.239C6.094,1.755 6.786,1.898 7.301,1.561C7.817,1.222 7.961,0.531 7.623,0.015C5.672,-2.962 2.362,-3.389 0,-1.491" style="fill-rule:nonzero;"/>
        </g>
        <g transform="matrix(1,0,0,1,643.755,770.431)">
            <path d="M0,-1.73C-0.48,-1.343 -0.557,-0.641 -0.171,-0.161C-0.17,-0.161 -0.17,-0.159 -0.169,-0.159C0.216,0.321 0.918,0.398 1.397,0.013C2.715,-1.046 4.512,-0.896 5.753,1.002C6.336,1.892 7.398,1.324 7.299,1.324C7.814,0.986 7.958,0.293 7.62,-0.222C5.669,-3.202 2.357,-3.622 0.001,-1.73L0,-1.73Z" style="fill-rule:nonzero;"/>
        </g>
        <g transform="matrix(1,0,0,1,685.193,810.097)">
            <path d="M0,23.079L32.522,23.079L34.418,3.567C22.626,0.067 13.65,0 -0.193,3.533L-0.199,3.533C-0.1,3.533 -0.209,2.568 0,23.079" style="fill:white;fill-rule:nonzero;stroke:black;stroke-width:1px;"/>
        </g>
        <g transform="matrix(1,0,0,1,718.962,809.26)">
            <path d="M0,11.929L0.64,4.406C-11.034,0.92 -19.729,0 -33.975,4.37C-33.793,4.351 -11.284,11.283 0,11.929" style="fill-rule:nonzero;"/>
        </g>
        <g transform="matrix(1,0,0,1,678.969,805.362)">
            <path d="M0,-333.538C0,-333.538 -67.217,-284.584 -119.072,-225.09C-127.53,-215.387 -135.678,-195.724 -118.534,-176.431C-84.42,-138.038 -54.472,-104.645 -44.308,-94.364C-42.337,-76.087 -25.925,-81.316 -25.348,-81.986L-1.259,-106.841C-1.377,-114.446 6.286,-122.271 -13.779,-133.439C-21.078,-147.632 -27.682,-171.613 -48.31,-199.677L18.583,-246.517C11.648,-158.995 2.275,-40.137 1.713,-13.929C-10.04,0.208 5.138,8.355 6.018,8.303L40.632,8.303C46.106,6.508 56.963,2.984 51.02,-19.198C58.744,-42.043 74.084,-71.538 73.785,-157.334C82.127,-224.225 115.049,-244.84 117.31,-341.893C16.16,-334.689 -0.109,-333.538 0,-333.538" style="fill:white;fill-rule:nonzero;stroke:black;stroke-width:1px;"/>
        </g>
        <g transform="matrix(-0.756134,0.654417,0.654417,0.756134,645.679,666.106)">
            <path d="M-10.946,17.167L8.392,17.167C8.392,17.167 10.945,14.958 5.207,11.551C-0.531,8.147 -19.267,-9.677 -19.267,-9.677C-10.463,18.725 -10.87,17.101 -10.946,17.167" style="fill-rule:nonzero;"/>
        </g>
        <g transform="matrix(-1,0,0,1,722.08,768.53)">
            <path d="M-7.908,17.634L6.55,17.634C6.55,17.634 6.55,14.459 2.373,10.58C-1.804,6.7 -14.458,-0.606 -14.458,-0.606C-7.69,18.24 -7.808,17.634 -7.908,17.634" style="fill-rule:nonzero;"/>
        </g>
        <g transform="matrix(1,0,0,1,663.963,714.827)">
            <path d="M0,-231.532C-0.827,-230.882 -1.583,-230.292 -2.467,-229.594C18.006,-225.552 50.359,-220.09 75.736,-220.09C83.088,-220.09 90.372,-220.435 97.376,-220.992C98.276,-218.792 103.2,-207.78 114.346,-200.978C113.535,-198.646 91.144,-134.28 86.747,-119.627C83.002,-107.136 85.966,-78.312 87.785,-65.463L88.789,-65.604L88.789,-66.797C89.9,-75.696 89.355,-65.861 87.848,-87.585C87.069,-98.813 86.909,-111.95 89.008,-118.944C93.272,-133.161 115.213,-196.275 116.435,-199.789C119.473,-198.203 122.919,-196.965 126.802,-196.295C126.951,-197.066 127.093,-197.843 127.234,-198.626C114.551,-200.791 104.804,-210.052 99.845,-221.199C111.399,-222.211 122.069,-223.778 130.858,-225.331C130.929,-226.136 131,-226.953 131.062,-227.772C113.085,-224.564 93.849,-222.449 75.733,-222.449C44.95,-222.449 0.108,-231.532 0,-231.532M28.358,-169.415C27.44,-169.415 -49.521,-121.926 -58.604,-111.187C-62.08,-107.082 -58.414,-96.416 -56.563,-91.345C-47.219,-65.75 -19.634,-19.998 -18.862,-19.538L-2.086,0L-0.4,-1.738L-17.388,-21.404C-28.479,-39.307 -47.077,-72.248 -54.344,-92.156C-55.721,-95.928 -59.406,-106.588 -56.804,-109.661C-47.072,-121.158 38.416,-172.959 28.994,-167.227C30.013,-167.846 29.576,-169.415 28.358,-169.415" style="fill-rule:nonzero;stroke:white;stroke-width:1px;"/>
        </g>
        <g transform="matrix(-0.160986,0.986957,0.986957,0.160986,760.483,412.612)">
            <path d="M55.169,-73.684C55.241,-74.125 73.404,-79.649 73.227,-72.285C72.246,-31.13 68.76,9.372 55.169,47.694C52.848,54.242 37.252,36.16 37.325,35.717L55.169,-73.684Z" style="fill:white;fill-rule:nonzero;stroke:black;stroke-width:1px;"/>
        </g>
        <g transform="matrix(1,0,0,1,724.57,470.935)">
            <path d="M0,-164.651L65.792,-140.388C65.792,-140.388 57.751,-61.184 63.295,-35.963C74.457,-27.926 78.396,-11.799 71.708,-7.465C33.706,-2.747 -4.799,0.378 -46.757,-7.465C-57.008,-8.36 -61.28,-22.505 -56.846,-36.777C-56.846,-36.777 -75.633,-133.784 -76.887,-140.388C-69.889,-144.925 -37.873,-163.477 -37.873,-163.477C12.203,-165.029 -2.954,-164.651 0,-164.651" style="fill:white;fill-rule:nonzero;stroke:black;stroke-width:1px;"/>
        </g>
        <g transform="matrix(0.027852,0.999612,0.999612,-0.027852,739.368,310.681)">
            <path d="M-52.14,-20.045L-9.306,-20.045C22.708,-20.937 21.612,-55.384 -4.748,-54.65L-34.549,-47.55C-53.276,-18.27 -52.142,-20.146 -52.14,-20.045" style="fill:white;fill-rule:nonzero;stroke:black;stroke-width:1px;"/>
        </g>
        <g transform="matrix(1,0,0,1,678.193,218.992)">
            <path d="M0,46.095C0,46.095 -0.746,61.312 16.783,62.879C34.313,64.446 39.685,46.244 39.834,37.591C39.982,28.938 39.834,15.025 39.834,1.491C39.834,-12.044 0,-18.351 0,3.28C0.1,3.28 0,2.211 0,46.095" style="fill:white;fill-rule:nonzero;stroke:black;stroke-width:1px;"/>
        </g>
        <g transform="matrix(1,0,0,1,719.552,325.245)">
            <path d="M0,0.311C0,0.311 -3.229,-6.523 -6.593,-5.626C-9.956,-4.73 -11.951,2.542 -9.125,6.228C-9.024,6.228 -10.061,6.834 0,0.311" style="fill-rule:nonzero;"/>
        </g>
        <g transform="matrix(1,0,0,1,687.754,324.849)">
            <path d="M0,0.919C0,0.919 0.634,-5.916 4.338,-5.019C8.042,-4.122 12.798,3.15 11.37,6.835C11.472,6.835 10.519,6.392 0,0.919" style="fill-rule:nonzero;"/>
        </g>
        <g transform="matrix(1,0,0,1,729.875,333.263)">
            <path d="M0,-25.024C-0.271,-18.86 -1.639,-10.245 -5.843,0.602C-5.843,0.602 15.403,-9.577 21.129,-17.231C-1.631,-25.626 0.1,-25.024 0,-25.024" style="fill-rule:nonzero;"/>
        </g>
        <g transform="matrix(1,0,0,1,705.828,467.558)">
            <path d="M0,-128.097C-0.441,-128.097 -0.784,-127.823 -0.879,-127.416C-8.563,-94.589 5.533,-38.851 5.533,-33.616C-1.505,-27.623 -3.249,-17.358 -0.823,-8.981C-0.363,-7.399 1.83,-2.149 2.852,-0.118C3.682,-0.056 4.508,-0.002 5.336,0.048C4.26,-1.839 1.869,-7.43 1.355,-9.203C-0.86,-16.852 0.789,-26.663 7.412,-32.077C7.896,-32.473 7.787,-32.746 7.803,-32.979C8.21,-37.288 -6.333,-93.714 1.351,-126.545C1.533,-127.32 0.748,-128.145 0.007,-128.096C-0.001,-128.097 0,-128.097 0,-128.097" style="fill-rule:nonzero;"/>
        </g>
        <g transform="matrix(1,0,0,1,686.67,347.262)">
            <path d="M0,-50.077C-16.544,-45.407 -4.311,-11.925 1.381,-12.875C5.45,-13.554 0.543,-26.639 5.517,-26.005C9.765,-25.465 11.803,-18.282 12.312,-16.186C13.301,-11.14 13.354,-0.608 18.371,-0.269C22.354,0 22.005,-25.583 26.737,-26.217C31.47,-26.849 31.635,-14.774 35.858,-13.085C40.083,-11.398 48.814,-27.643 46.399,-37.033C43.984,-46.421 32.235,-50.04 32.235,-50.04C32.312,-49.641 33.114,-38.727 23.991,-32.812C20.637,-30.638 19.31,-26.086 19.407,-22.211C18.221,-21.869 16.132,-21.706 14.294,-22.211C12.886,-26.04 9.798,-30.307 5.762,-32.606C-0.099,-35.942 -0.1,-50.077 0,-50.077" style="fill:white;fill-rule:nonzero;stroke:black;stroke-width:1px;"/>
        </g>
        <g transform="matrix(0,-1,-1,0,711.412,359.199)">
            <path d="M-1.624,-1.624C-2.521,-1.794 -3.248,-1.204 -3.248,-0.308C-3.248,0.589 -2.521,1.455 -1.624,1.624C-0.728,1.794 0,1.205 0,0.308C0,-0.588 -0.728,-1.453 -1.624,-1.624" style="fill-rule:nonzero;"/>
        </g>
        <g transform="matrix(0,-1,-1,0,712.455,381.116)">
            <path d="M-1.623,-1.624C-2.52,-1.795 -3.248,-1.204 -3.248,-0.309C-3.248,0.59 -2.52,1.454 -1.623,1.624C-0.727,1.793 0.002,1.205 0.002,0.309C0.002,-0.587 -0.727,-1.454 -1.623,-1.624" style="fill-rule:nonzero;"/>
        </g>
        <g transform="matrix(0,-1,-1,0,714.66,404.793)">
            <path d="M-1.624,-1.624C-2.52,-1.793 -3.249,-1.204 -3.249,-0.309C-3.249,0.59 -2.52,1.454 -1.624,1.625C-0.727,1.794 0.001,1.204 0.001,0.309C0.001,-0.587 -0.727,-1.454 -1.624,-1.624" style="fill-rule:nonzero;"/>
        </g>
        <g transform="matrix(0,-1,-1,0,719.781,426.279)">
            <path d="M-1.622,-1.624C-2.519,-1.796 -3.247,-1.205 -3.247,-0.309C-3.247,0.588 -2.519,1.455 -1.622,1.623C-0.726,1.794 0.001,1.205 0.001,0.308C0.001,-0.589 -0.726,-1.453 -1.622,-1.624" style="fill-rule:nonzero;"/>
        </g>
        <g transform="matrix(1,0,0,1,714.371,279.733)">
            <path d="M0,-20.573C0,-20.573 0.21,-9.812 -2.849,-4.431C-5.907,0.949 -13.714,5.59 -27.429,4.324C-41.143,3.058 -43.147,-3.588 -42.619,-9.389C-42.093,-15.192 -36.396,-15.615 -36.501,-18.357C-36.607,-21.099 -35.024,-23.737 -32.177,-23.843C-29.327,-23.948 -27.851,-21.733 -29.327,-21.417C-30.804,-21.099 -32.387,-23.209 -32.387,-19.728C-32.387,-16.247 -29.539,-11.816 -24.369,-12.765C-19.199,-13.715 -16.667,-22.366 -19.306,-21.839C-21.942,-21.311 -24.896,-20.045 -24.896,-21.417C-24.896,-22.788 -20.783,-25.109 -12.132,-25.636C-3.482,-26.163 -3.588,-16.459 -2.954,-18.464C-2.35,-20.377 -0.178,-20.573 0,-20.573" style="fill-rule:nonzero;stroke:black;stroke-width:1px;"/>
        </g>
        <g transform="matrix(1,0,0,1,683.567,216.604)">
            <path d="M0,2.574C0.526,-2.173 5.907,-9.558 9.178,-2.701C12.447,4.156 9.6,15.34 16.668,18.821C23.735,22.302 27.851,21.458 27.851,21.458C27.851,21.458 29.116,31.268 31.332,32.535C33.547,33.801 43.674,27.049 43.674,27.049C43.674,27.049 50.224,20.198 51.384,11.758C52.545,3.319 46.715,-5.686 38.905,-13.495C21.172,-31.227 0.632,-14.304 0.632,-14.304C0.632,-14.304 -5.486,-18.524 -9.495,-12.091C-13.504,-5.655 -11.289,7.637 -9.39,12.807C-7.491,17.976 -5.17,21.353 -5.17,21.353L-5.376,5.668C-5.376,2.526 -2.8,2.574 0,2.574" style="fill-rule:nonzero;stroke:black;stroke-width:1px;"/>
        </g>
        <g transform="matrix(0.748352,-0.663302,-0.663302,-0.748352,726.993,255.603)">
            <path d="M0.448,-5.693C1.541,-8.058 -13.517,-11.27 -13.895,-4.012C-14.272,3.245 -5.441,6.105 0.448,3.079L0.447,3.078C0.663,2.887 -1.14,-2.262 0.448,-5.693" style="fill-rule:nonzero;"/>
        </g>
        <g transform="matrix(0.408247,-0.912872,-0.912872,-0.408247,727.73,245.108)">
            <path d="M-6.887,-4.464C-12.329,-4.461 -16.74,-1.086 -16.74,3.08C-16.74,7.246 -12.329,10.623 -6.887,10.623C-1.446,10.623 2.967,7.247 2.967,3.08C2.966,-1.086 -1.445,-4.463 -6.887,-4.464" style="fill:white;fill-rule:nonzero;stroke:black;stroke-width:1px;"/>
        </g>
        <g transform="matrix(-0.70724,0.706973,0.706973,0.70724,725.835,252.382)">
            <path d="M-0.342,-7.482C-3.375,-7.509 -4.167,-4.186 -3.297,-3.843C-2.426,-3.5 -0.923,-5.056 -0.342,-3.738C0.237,-2.419 4.137,1.879 5.671,-3.842C5.599,-3.769 2.909,-7.453 -0.342,-7.482" style="fill-rule:nonzero;"/>
        </g>
        <g transform="matrix(1,0,0,1,691.079,242.979)">
            <path d="M0,-31.759C0,-31.759 5.501,-28.948 4.54,-19.007C3.58,-9.064 8.31,1.855 20.035,-2.478C31.762,-6.812 29.725,-12.208 29.725,-12.208C29.725,-12.208 23.103,-2.864 14.47,-3.568C5.837,-4.272 5.754,-18.259 7.494,-23.155C9.233,-28.049 3.898,-33.614 0,-31.76L0,-31.759Z" style="fill-rule:nonzero;stroke:black;stroke-width:1px;"/>
        </g>
        <g transform="matrix(1,0,0,1,718.689,831.375)">
            <path d="M0,16.098C6.772,-2.87 -3.871,-0.018 -13.714,1.832C-13.714,1.832 -11.813,15.412 -7.039,17.201C-2.319,18.968 0.1,16.098 0,16.098" style="fill:white;fill-rule:nonzero;stroke:black;stroke-width:1px;"/>
        </g>
        <g transform="matrix(1,0,0,1,690.297,873.435)">
            <path d="M0,-45.395C-5.457,-45.45 -6.845,-40.228 -6.845,-40.228C-5.801,-30.176 -23.594,-13.005 -25.387,-10.689C-30.46,-4.12 -26.58,0.055 -26.58,0.055L38.308,0.055C40.479,-10.319 33.348,-23.103 28.392,-25.962C19.437,-23.568 14.677,-40.228 14.677,-40.228L8.138,-40.228C7.187,-42.886 3.927,-45.403 0,-45.403L0,-45.395Z" style="fill:white;fill-rule:nonzero;stroke:black;stroke-width:1px;"/>
        </g>
        <g transform="matrix(1,0,0,1,725.453,873.49)">
            <path d="M0,-17.652L-7.538,-7.562L-53.617,-7.562C-54.98,-5.104 -56.283,-2.591 -57.402,0L3.151,0C4.377,-5.852 2.639,-12.477 0,-17.652" style="fill-rule:nonzero;"/>
        </g>
        <g transform="matrix(1,0,0,1,663.019,873.49)">
            <path d="M0,-7.562C-1.951,-2.859 0.698,0 0.698,0L33.67,0C33.67,0 38.145,0 33.819,-5.671C33.336,-6.301 32.616,-6.939 31.729,-7.562L0,-7.562Z" style="fill-rule:nonzero;"/>
        </g>
        <g transform="matrix(1,0,0,1,692.406,853.193)">
            <path d="M0,-16.197C-2.833,-15.062 -4.971,-13.266 -4.971,-13.266C-5.422,-12.888 -5.504,-12.227 -5.159,-11.755C-5.159,-11.755 0.982,-3.136 5.26,0.526C6.64,1.71 8.231,1.673 9.503,0.565C12.425,-2.002 13.511,-10.345 9.486,-14.756C7.445,-16.978 4.274,-17.907 0,-16.197M4.554,-14.834C9.128,-14.533 10.586,-8.594 9.53,-4.176C9.278,-3.119 8.432,-0.872 7.434,-0.821C5.892,-0.821 -1.699,-10.86 -2.61,-12.093C-2.015,-12.55 -1.084,-13.353 0.83,-14.117C3.128,-15.041 4.655,-14.828 4.554,-14.834" style="fill-rule:nonzero;"/>
        </g>
        <g transform="matrix(1,0,0,1,679.193,854.341)">
            <path d="M0,-18.211C-10.104,-17.545 -8.632,0.202 -2.761,0.261C-1.979,0.261 -1.21,-0.063 -0.559,-0.622C3.72,-4.284 9.864,-12.902 9.864,-12.902C10.208,-13.375 10.124,-14.036 9.672,-14.414C9.672,-14.414 7.539,-16.21 4.705,-17.345C1.889,-18.472 -0.101,-18.211 0,-18.211M3.876,-15.265C5.791,-14.501 6.722,-13.697 7.316,-13.24C6.386,-11.981 -1.187,-1.969 -2.731,-1.969C-3.705,-1.969 -4.578,-4.27 -4.829,-5.324C-5.889,-9.757 -4.41,-15.682 0.147,-15.982C1.385,-16.064 2.716,-15.732 3.876,-15.265" style="fill-rule:nonzero;"/>
        </g>
        <g transform="matrix(1,0,0,1,684.021,849.487)">
            <path d="M0,-0.108C-0.422,0.341 -0.399,1.041 0.051,1.467L0.052,1.467C0.502,1.885 1.208,1.861 1.628,1.413C2.762,0.202 4.567,0.049 6.083,1.767C6.491,2.231 7.196,2.271 7.658,1.869C8.121,1.459 8.165,0.75 7.757,0.293C5.397,-2.379 2.063,-2.336 -0.005,-0.108L0,-0.108Z" style="fill-rule:nonzero;"/>
        </g>
        <g transform="matrix(1,0,0,1,680.328,856.865)">
            <path d="M0,-0.421C-0.421,0.028 -0.398,0.737 0.052,1.154L0.054,1.154C0.504,1.58 1.208,1.557 1.63,1.107C2.744,-0.102 4.544,-0.276 6.085,1.454C6.781,2.247 7.763,1.557 7.662,1.557C8.124,1.146 8.168,0.445 7.76,-0.02C5.421,-2.668 2.086,-2.652 -0.001,-0.421L0,-0.421Z" style="fill-rule:nonzero;"/>
        </g>
        <g transform="matrix(1,0,0,1,788.599,403.626)">
            <path d="M0,57.62C0,57.62 -18.439,47.668 -24.193,46.315C-29.948,44.961 -49.3,71.566 -50.98,75.062C-52.662,78.557 -46.084,78.462 -40.248,75.487C-34.411,72.512 -33.079,72.733 -33.079,72.733C-30.68,76.241 -28.174,79.01 -25.635,81.17C-13.676,91.337 -1.984,87.414 15.344,72.485C15.344,72.485 54.894,38.971 73.46,19.679C77.957,15.006 88.221,3.984 76.193,-9.399C72.838,-13.135 64.692,-20.138 57.989,-25.961C49.049,-33.717 36.706,4.75 36.706,4.75C36.806,4.75 37.1,4.183 0,57.62" style="fill:white;fill-rule:nonzero;stroke:black;stroke-width:1px;"/>
        </g>
        <g transform="matrix(-0.5696,0.821922,0.821922,0.5696,740.812,393.566)">
            <path d="M-73.319,77.882L-35.954,77.882C-35.954,77.882 -22.783,38.798 -17.44,23.128C-4.936,-13.551 -81.659,-33.328 -80.021,4.83C-80.078,4.913 -80.279,2.016 -73.319,77.882" style="fill:white;fill-rule:nonzero;stroke:black;stroke-width:1px;"/>
        </g>
        <g transform="matrix(1,0,0,1,763.91,480.843)">
            <path d="M0,-10.042L-5.02,0C-6.619,-1.116 -8.094,-2.33 -8.39,-4.485C-8.289,-4.485 -9.332,-3.86 0,-10.042" style="fill-rule:nonzero;"/>
        </g>
        <g transform="matrix(-0.570194,0.82151,0.82151,0.570194,801.438,464.618)">
            <path d="M-2.688,-12.471L4.55,-12.471L4.186,-0.27C4.186,-0.27 4.171,1.984 2.392,0.452C0.935,-0.8 -2.445,-8.169 -2.688,-12.471" style="fill-rule:nonzero;"/>
        </g>
        <g transform="matrix(-0.61338,0.789788,0.789788,0.61338,848.461,405.437)">
            <path d="M-20.265,-20.833C-15.731,-28.252 16.525,-16.486 16.525,-16.486C7.732,-12.124 -12.889,-9.997 -20.265,-9.354C-20.449,-12.438 -20.62,-15.563 -20.784,-18.513C-20.839,-19.558 -20.549,-20.468 -20.265,-20.833" style="fill-rule:nonzero;"/>
        </g>
        <g transform="matrix(-0.526659,-0.850077,-0.850077,0.526659,821.715,380.489)">
            <path d="M-10.698,-22.631C-10.698,-22.631 0.235,-34.604 3.666,-28.631C7.098,-22.658 -2.681,-2.756 -10.698,6.093C-18.715,14.943 -25.596,11.635 -25.596,11.635C-25.649,11.55 -26.354,13.38 -10.698,-22.631" style="fill:white;fill-rule:nonzero;stroke:black;stroke-width:1px;"/>
        </g>
        <g transform="matrix(1,0,0,1,219.613,655.84)">
            <path d="M0,-124.251C-5.935,-124.251 -10.712,-119.475 -10.712,-113.54L-10.712,-10.711C-10.712,-4.776 -5.935,0 0,0L73.449,0C79.383,0 84.16,-4.776 84.16,-10.711L84.16,-88.75L48.66,-124.251L0,-124.251Z" style="fill:rgb(244,117,50);fill-rule:nonzero;"/>
        </g>
        <g transform="matrix(1,0,0,1,208.901,640.67)">
            <path d="M0,-12.219L0,0L61.973,-12.219L0,-12.219Z" style="fill-rule:nonzero;"/>
        </g>
        <g transform="matrix(1,0,0,1,204.311,631.052)">
            <path d="M0,-45.6L71.919,-45.6C75.479,-45.6 78.346,-42.733 78.346,-39.172L78.346,-6.426C78.346,-2.866 75.479,0 71.919,0L0,0C-3.561,0 -6.427,-2.866 -6.427,-6.426L-6.427,-39.172C-6.427,-42.73 -3.563,-45.6 0,-45.6" style="fill:white;fill-rule:nonzero;stroke:black;stroke-width:1px;"/>
        </g>
        <g transform="matrix(1,0,0,1,276.229,572.94)">
            <path d="M0,-7.38L27.543,0L27.543,-5.85C12.493,-6.686 -0.135,-7.38 0,-7.38" style="fill-rule:nonzero;"/>
        </g>
        <g transform="matrix(-0.707097,-0.707117,-0.707117,0.707097,286.024,524.237)">
            <path d="M-42.853,17.751L7.353,17.751L-10.177,35.28C-14.374,39.476 -21.129,39.475 -25.325,35.279L-42.853,17.751Z" style="fill:rgb(237,163,52);fill-rule:nonzero;"/>
        </g>
        <g transform="matrix(1,0,0,1,534.387,441.613)">
            <path d="M0,-123.77C-1.642,-123.29 -2.339,-118.945 -0.356,-115.574C1.8,-111.905 4.661,-110.448 4.661,-110.448C4.661,-110.448 -21.648,-114.976 -39.938,-104.225C-42.833,-102.522 -41.939,-98.487 -37.057,-98.526C-33.445,-98.555 -27.868,-98.629 -23.336,-98.245C-26.512,-97.999 -29.955,-97.274 -33.346,-95.71C-40.431,-92.439 -41.45,-90.188 -40.887,-88.155C-40.326,-86.121 -29.53,-89.432 -24.008,-89.644C-20.514,-89.779 -14.715,-88.499 -10.915,-87.538C-8.191,-82.741 -4.958,-77.498 -1.974,-75.585C1.175,-73.568 12.477,-73.626 21.633,-74.047C28.958,-60.959 44.385,-33.873 55.721,-17.45C59.404,-12.114 68.162,0.136 83.671,-8.979C88.002,-11.525 96.486,-18.113 103.527,-23.525C112.909,-30.737 77.671,-50.496 77.671,-50.496C44.053,-85.622 26.257,-104.761 18.706,-110.474C14.588,-113.589 4.169,-120.521 1.563,-123.16C0.993,-123.737 0.46,-123.906 -0.001,-123.771L0,-123.77Z" style="fill:white;fill-rule:nonzero;stroke:black;stroke-width:1px;"/>
        </g>
        <g transform="matrix(1,0,0,1,639.334,398.601)">
            <path d="M0,17.584C2.672,9.31 -27.276,-7.483 -27.276,-7.483C-24.853,2.025 -13.024,19.051 -8.705,25.067C-0.74,19.003 -0.44,18.952 0,17.584" style="fill-rule:nonzero;"/>
        </g>
        <g transform="matrix(0.937912,-0.346873,-0.346873,-0.937912,641.971,415.724)">
            <path d="M-4.624,-0.811C-4.624,-0.811 6.308,-12.786 9.74,-6.813C13.171,-0.84 3.391,19.058 -4.624,27.911C-12.64,36.764 -19.52,33.454 -19.52,33.454C-19.555,33.36 -4.681,-0.682 -4.624,-0.811" style="fill:white;fill-rule:nonzero;stroke:black;stroke-width:1px;"/>
        </g>
        <g transform="matrix(1,0,0,1,539.047,362.002)">
            <path d="M0,-30.836C0,-30.836 0.267,-21.424 4.38,-16.06C8.493,-10.696 10.676,0 10.676,0C10.676,0 3.306,-12.667 0.553,-14.229C-2.201,-15.789 -13.187,-18.017 -13.187,-18.017C-14.492,-18.405 -20.296,-25.551 0.001,-30.836L0,-30.836Z" style="fill-rule:nonzero;"/>
        </g>
        <g transform="matrix(-0.972852,-0.231429,-0.231429,0.972852,557.516,373.46)">
            <path d="M-5.097,-12.385C-3.445,-8.58 2.819,-5.386 2.819,-5.386C0.655,-3.033 -2.092,-0.072 -5.097,3.145C-5.945,0.22 -6.501,-1.692 -7.283,-4.391C-8.691,-9.253 -6.749,-16.192 -5.097,-12.385" style="fill-rule:nonzero;"/>
        </g>
        <g transform="matrix(1,0,0,1,389.538,480.297)">
            <path d="M0,-124.249C-5.935,-124.249 -10.711,-119.473 -10.711,-113.539L-10.711,-10.711C-10.711,-4.777 -5.935,0 0,0L73.449,0C79.383,0 84.161,-4.777 84.161,-10.711L84.161,-88.749L48.661,-124.249L0,-124.249Z" style="fill:rgb(200,79,73);fill-rule:nonzero;"/>
        </g>
        <g transform="matrix(1,0,0,1,378.826,465.127)">
            <path d="M0,-12.22L0,0L61.972,-12.22L0,-12.22Z" style="fill-rule:nonzero;"/>
        </g>
        <g transform="matrix(1,0,0,1,374.236,455.511)">
            <path d="M0,-45.602L71.918,-45.602C75.48,-45.602 78.346,-42.735 78.346,-39.173L78.346,-6.428C78.346,-2.868 75.48,0 71.918,0L0,0C-3.56,0 -6.427,-2.867 -6.427,-6.428L-6.427,-39.173C-6.427,-42.715 -3.578,-45.602 0,-45.602" style="fill:white;fill-rule:nonzero;stroke:black;stroke-width:1px;"/>
        </g>
        <g transform="matrix(1,0,0,1,446.154,397.398)">
            <path d="M0,-7.381L27.544,0L27.544,-5.85C12.494,-6.687 -0.135,-7.381 0,-7.381" style="fill-rule:nonzero;"/>
        </g>
        <g transform="matrix(0.13691,-0.990583,-0.990583,-0.13691,685.646,536.234)">
            <path d="M-20.768,-14.89L16.826,-14.89C16.826,-14.89 18.067,-10.804 12.38,-8.878C6.692,-6.952 -56.455,23.591 -56.455,23.591C-19.031,-16.763 -20.782,-14.791 -20.768,-14.89" style="fill-rule:nonzero;"/>
        </g>
    </g>
</svg>
