<svg width="1.5em" viewBox="0 0 1024 1024" version="1.1" xmlns="http://www.w3.org/2000/svg" xmlns:xlink="http://www.w3.org/1999/xlink" xml:space="preserve" xmlns:serif="http://www.serif.com/" style="fill-rule:evenodd;clip-rule:evenodd;stroke-linejoin:round;stroke-miterlimit:2;">
    <g id="License--Options--Illustration" serif:id="License  Options  Illustration">
        <g transform="matrix(1,0,0,1,831.818,816.052)">
            <path d="M0,25.495L32.524,25.495L32.548,5.954C10.751,0 -4.809,5.954 -5.899,5.954C-5.799,5.954 -6.271,4.723 0,25.495" style="fill:white;fill-rule:nonzero;stroke:black;stroke-width:1px;"/>
        </g>
        <g transform="matrix(1,0,0,1,867.06,839.725)">
            <path d="M0,16.087C6.766,-2.88 -3.876,-0.029 -13.714,1.822C-13.714,1.822 -11.815,15.402 -7.042,17.191C-2.32,18.967 0.1,16.087 0,16.087" style="fill:white;fill-rule:nonzero;stroke:black;stroke-width:1px;"/>
        </g>
        <g transform="matrix(1,0,0,1,838.664,881.773)">
            <path d="M0,-45.393C-5.459,-45.449 -6.846,-40.226 -6.846,-40.226C-5.798,-30.175 -23.592,-13.003 -25.388,-10.68C-30.46,-4.119 -26.577,0.056 -26.577,0.056L38.313,0.056C40.479,-10.318 33.351,-23.102 28.396,-25.961C19.44,-23.567 14.683,-40.226 14.683,-40.226L8.137,-40.226C7.18,-42.91 3.945,-45.393 0,-45.393" style="fill:white;fill-rule:nonzero;stroke:black;stroke-width:1px;"/>
        </g>
        <g transform="matrix(1,0,0,1,873.826,881.829)">
            <path d="M0,-17.652L-7.546,-7.553L-53.618,-7.553C-54.988,-5.095 -56.288,-2.59 -57.406,0L3.151,0C4.372,-5.852 2.631,-12.476 0,-17.652" style="fill-rule:nonzero;"/>
        </g>
        <g transform="matrix(1,0,0,1,811.386,881.829)">
            <path d="M0,-7.554C-1.945,-2.86 0.701,0 0.701,0L33.674,0C33.674,0 38.148,0 33.824,-5.663C33.336,-6.302 32.619,-6.94 31.729,-7.554L0,-7.554Z" style="fill-rule:nonzero;"/>
        </g>
        <g transform="matrix(1,0,0,1,845.477,866.338)">
            <path d="M0,-21.869C-5.253,-22.216 -10.67,-17.242 -9.673,-18.064C-10.122,-17.694 -10.201,-17.032 -9.862,-16.559C-9.862,-16.559 -3.718,-7.942 0.56,-4.271C5.957,0.347 10.481,-13.333 4.781,-19.553C3.377,-21.094 1.389,-21.869 0,-21.869M-0.149,-19.64C4.423,-19.339 5.884,-13.397 4.828,-8.974C4.575,-7.916 3.694,-5.627 2.733,-5.627C1.179,-5.627 -6.381,-15.63 -7.317,-16.898C-6.719,-17.355 -5.79,-18.167 -3.876,-18.923C-1.572,-19.849 -0.049,-19.633 -0.149,-19.64" style="fill-rule:nonzero;"/>
        </g>
        <g transform="matrix(1,0,0,1,827.565,862.677)">
            <path d="M0,-18.208C-10.073,-17.495 -8.648,0.203 -2.765,0.264C-1.985,0.264 -1.213,-0.052 -0.56,-0.61C3.718,-4.281 9.861,-12.898 9.861,-12.898C10.2,-13.371 10.122,-14.033 9.673,-14.403C9.673,-14.403 7.538,-16.207 4.702,-17.341C1.836,-18.472 -0.101,-18.208 0,-18.208M3.867,-15.262C5.789,-14.506 6.719,-13.694 7.31,-13.237C6.394,-11.991 -1.18,-1.966 -2.733,-1.966C-3.707,-1.966 -4.575,-4.255 -4.829,-5.313C-5.886,-9.747 -4.422,-15.678 0.149,-15.979C1.403,-16.061 2.692,-15.734 3.867,-15.262" style="fill-rule:nonzero;"/>
        </g>
        <g transform="matrix(1,0,0,1,832.386,858.432)">
            <path d="M0,-0.714C-0.417,-0.265 -0.394,0.444 0.056,0.862L0.063,0.862C0.512,1.279 1.213,1.264 1.639,0.807C2.764,-0.397 4.562,-0.565 6.089,1.161C6.499,1.626 7.199,1.665 7.664,1.264C7.83,1.264 8.359,0.361 7.767,-0.312C7.867,-0.312 6.102,-2.325 3.694,-2.352C1.272,-2.379 0.101,-0.714 0,-0.714" style="fill-rule:nonzero;"/>
        </g>
        <g transform="matrix(1,0,0,1,828.699,865.179)">
            <path d="M0,-0.395C-0.425,0.053 -0.401,0.762 0.056,1.18C0.505,1.605 1.206,1.582 1.631,1.132C2.752,-0.082 4.558,-0.246 6.081,1.479C6.779,2.271 7.757,1.582 7.656,1.582C8.121,1.172 8.169,0.471 7.759,0.006C5.401,-2.666 2.054,-2.603 0,-0.395" style="fill-rule:nonzero;"/>
        </g>
        <g transform="matrix(1,0,0,1,864.358,817.637)">
            <path d="M0,11.669L0,4.37C-12.689,0.886 -25.474,0 -38.447,4.37C-38.345,4.36 -11.111,11.046 0,11.669" style="fill-rule:nonzero;"/>
        </g>
        <g transform="matrix(1,0,0,1,734.455,842.849)">
            <path d="M0,-20.843L-3.85,-1.302C-13.652,3.133 -27.158,2.542 -35.019,-1.302L-34.619,-20.843L-17.79,-23.976C1.572,-20.566 -0.101,-20.843 0,-20.843" style="fill:white;fill-rule:nonzero;stroke:black;stroke-width:1px;"/>
        </g>
        <g transform="matrix(-0.983109,0.183022,0.183022,0.983109,718.722,830.746)">
            <path d="M-0.151,-12.049L16.967,-12.049C16.967,-12.049 -1.187,0.414 -13.968,2.08L-17.067,-5.713C-3.543,-10.779 -0.012,-12.075 -0.151,-12.049" style="fill-rule:nonzero;"/>
        </g>
        <g transform="matrix(1,0,0,1,703.119,822.055)">
            <path d="M0,-350.245C0,-350.245 -9.793,-182.213 -10.987,-165.504C-11.89,-152.862 -6.684,-64.154 -7.583,-22.281C-19.336,-8.145 -4.158,0 -3.277,-0.05L31.336,-0.05C36.714,-5.429 47.667,-5.37 41.724,-27.551C49.449,-50.396 57.628,-87.648 50.167,-162.105L60.184,-233.378C60.184,-233.378 73.229,-188.111 82.801,-152.375C85.691,-115.365 103.21,-60.752 116.986,-22.37C111.426,-13.928 113.063,-6.354 122.8,-0.05L161.239,-0.05C168.856,-8.024 162.177,-21.693 161.105,-22.996C160.16,-60.308 157.309,-97.518 137.104,-157.746C137.104,-157.746 127.999,-297.943 124.423,-314.653C120.839,-331.362 116.002,-350.245 116.002,-350.245L0,-350.245Z" style="fill:white;fill-rule:nonzero;stroke:black;stroke-width:1px;"/>
        </g>
        <g transform="matrix(1,0,0,1,722.238,841.618)">
            <path d="M0,11.933C-6.608,10.162 -4.679,-0.071 -4.679,-0.071C17.7,-2.663 14.766,3.19 14.766,14.596C15.139,14.596 7.174,13.857 0,11.933" style="fill:white;fill-rule:nonzero;stroke:black;stroke-width:1px;"/>
        </g>
        <g transform="matrix(1,0,0,1,741.019,829.613)">
            <path d="M0,52.216C4.96,43.622 2.733,36.21 -4.016,26.601C-16.666,25.45 -21.446,23.166 -23.46,11.934L-39.422,11.934C-39.422,11.934 -46.919,0 -50.829,11.934C-54.738,23.875 -82.934,31.043 -93.874,37.25C-106.243,44.277 -106.228,52.216 -96.936,52.216L0,52.216Z" style="fill:white;fill-rule:nonzero;stroke:black;stroke-width:1px;"/>
        </g>
        <g transform="matrix(1,0,0,1,701.668,666.771)">
            <path d="M0,-170.181C-0.032,-169.637 -0.099,-168.52 -0.132,-167.934C18.485,-164.412 51.238,-159.76 89.435,-161.206C94.774,-150.241 104.861,-139.24 117.178,-136.363C117.543,-133.963 137.854,-0.57 137.768,-1.131C137.876,-0.435 138.598,0.002 139.28,-0.264C139.036,-1 138.808,-1.722 138.556,-2.463C138.556,-2.463 138.004,-10.685 137.563,-17.308L119.501,-135.917C122.353,-135.489 125.394,-135.459 128.623,-135.947C128.552,-136.656 128.48,-137.465 128.418,-138.151C117.201,-136.352 108.592,-141.296 102.361,-147.243C96.808,-152.546 93.295,-158.618 91.885,-161.306C102.519,-161.78 113.546,-162.737 124.787,-164.322C124.621,-165.058 124.464,-165.78 124.298,-166.514C71.811,-159.141 23.899,-165.649 -0.001,-170.183L0,-170.181Z" style="fill-rule:nonzero;"/>
        </g>
        <g transform="matrix(1,0,0,1,674.387,865.99)">
            <path d="M0,-23.884C-3.495,-23.884 -6.184,-21.842 -7.092,-18.946C-7.778,-16.756 -6.865,-11.738 -5.365,-8.604C-4.648,-8.823 -3.301,-9.446 -3.337,-9.525C-4.714,-12.423 -5.44,-16.739 -4.959,-18.276C-4.453,-19.883 -3.248,-20.788 -1.798,-21.387C3.702,-23.672 7.257,-15.873 7.282,-15.819C7.282,-15.819 9.479,-10.328 12.733,-5.902C15.027,-2.78 18.364,0.493 22.084,-0.608C25.246,-1.545 28.652,-6.149 27.823,-11.187C26.517,-19.148 16.506,-24.377 8.726,-18.103C7.043,-21.46 3.956,-23.782 0,-23.892L0,-23.884ZM16.21,-18.74C20.753,-18.74 24.926,-15.074 25.62,-10.824C26.263,-6.915 23.541,-3.376 21.451,-2.75C18.879,-1.98 16.115,-5.077 14.53,-7.233C11.756,-11.005 10.072,-15.172 9.764,-15.905C13.298,-19.034 16.31,-18.74 16.21,-18.74" style="fill-rule:nonzero;"/>
        </g>
        <g transform="matrix(1,0,0,1,749.076,821.074)">
            <path d="M0,-208.14C-13.169,-148.237 -11.517,-155.64 -12.324,-148.155C-14.659,-126.406 -25.134,-25.359 -25.123,-25.184L-25.123,0.933L-22.891,0.933L-22.891,-25.113C-22.891,-25.267 -9.623,-153.36 -9.4,-154.123C-9.019,-156.473 2.221,-207.779 2.195,-207.661C2.349,-208.363 1.808,-209.03 1.078,-209.016L1.069,-209.018C1.199,-209.018 0.205,-209.073 0,-208.14" style="fill-rule:nonzero;"/>
        </g>
        <g transform="matrix(1,0,0,1,748.708,638.551)">
            <path d="M0,-104.34C0,-104.34 -6.104,-101.65 -6.104,-91.505C-6.104,-81.361 -5.208,-24.667 1.952,-9.45C4.079,-4.931 5.908,-1.538 7.44,1.028L14.595,-49.872C-0.275,-105.368 -0.101,-104.34 0,-104.34" style="fill-rule:nonzero;"/>
        </g>
        <g transform="matrix(1,0,0,1,732.553,875.11)">
            <path d="M0,-4.844C-4.801,-0.046 -13.819,-0.834 -13.819,-0.834L-94.015,-0.834C-96.598,3.404 -94.474,6.719 -88.469,6.719L8.467,6.719C12.094,0.442 11.865,-5.222 8.849,-11.563C9.082,-11.563 4.502,-9.345 0,-4.844" style="fill-rule:nonzero;"/>
        </g>
        <g transform="matrix(1,0,0,1,672.39,857.353)">
            <path d="M0,-6.205C-0.615,-6.149 -1.063,-5.599 -1.004,-4.983C-0.944,-4.369 -0.399,-3.921 0.213,-3.983C1.896,-4.143 3.318,-3.046 3.318,-0.769C3.318,-0.147 3.817,0.349 4.435,0.349C5.051,0.349 5.551,-0.147 5.551,-0.769C5.551,-2.55 4.903,-4.031 3.85,-4.983C2.114,-6.554 -0.101,-6.205 0,-6.205" style="fill-rule:nonzero;"/>
        </g>
        <g transform="matrix(1,0,0,1,665.032,861.576)">
            <path d="M0,-6.205C-0.613,-6.15 -1.063,-5.599 -1.004,-4.984C-0.943,-4.37 -0.399,-3.921 0.213,-3.984C1.905,-4.144 3.313,-3.032 3.313,-0.77C3.313,-0.156 3.813,0.349 4.431,0.349C5.047,0.349 5.547,-0.156 5.547,-0.77C5.547,-2.551 4.9,-4.039 3.846,-4.984C2.11,-6.554 -0.101,-6.205 0,-6.205" style="fill-rule:nonzero;"/>
        </g>
        <g transform="matrix(1,0,0,1,754.065,795.79)">
            <path d="M0,-42.883C-8.399,-23.976 -28.018,0 -22.674,-0.533C-16.345,-1.166 -9.223,-1.285 -9.223,-1.285C-5.752,-11.548 -2.194,-24.737 0,-42.883" style="fill-rule:nonzero;"/>
        </g>
        <g transform="matrix(1,0,0,1,820.106,766.421)">
            <path d="M0,33.265L19.102,33.265C19.102,33.265 24.797,30.947 17.621,27.15C13.218,24.814 -0.433,12.597 -11.382,0C-11.281,0 -8.079,10.766 0,33.265" style="fill-rule:nonzero;"/>
        </g>
        <g transform="matrix(1,0,0,1,474.095,408.262)">
            <path d="M0,33.52C-0.173,35.635 2.111,38.046 9.208,37.408C11.751,37.179 15.155,36.717 18.515,36.276C12.478,40.132 5.972,44.314 4.398,45.362C1.451,47.329 2.366,53.338 12.734,50.383C15.476,49.603 20.705,47.491 25.901,45.405C22.794,49.359 19.945,52.996 19.127,54.073C17.007,56.871 19.786,62.299 28.651,56.081C30.744,54.611 34.379,51.468 38.154,48.184C35.678,52.301 33.432,56.051 32.779,57.18C32.18,58.215 32.19,59.496 32.784,60.435L32.785,60.436C33.923,62.227 37.199,62.776 42.478,57.989C45.34,55.394 51.2,48.595 55.966,43.373C61.772,41.709 75.22,30.398 81.284,25.118C90.694,23.644 151.762,8.633 174.624,2.694C180.9,1.065 151.111,-29.256 151.111,-29.256L70.228,5.365C70.228,5.365 55.729,3.274 50.567,3.249C45.403,3.225 32.155,-0.68 28.487,-1.23C24.819,-1.78 27.23,5.207 31.62,7.615C36.008,10.024 39.342,11.691 39.342,11.691C39.342,11.691 23.781,21.817 21.537,22.605C19.293,23.393 5.158,29.565 1.955,30.919C0.854,31.385 0.089,32.412 -0.001,33.52L0,33.52Z" style="fill:white;fill-rule:nonzero;stroke:black;stroke-width:1px;"/>
        </g>
        <g transform="matrix(0.428763,0.903417,0.903417,-0.428763,551.204,412.921)">
            <path d="M-2.313,-6.52L9.89,-6.52C9.89,-6.52 12.148,-6.569 10.668,-4.744C9.458,-3.253 -2.37,-3.582 -2.098,0.715C-2.055,0.806 -2.126,-0.228 -2.313,-6.52" style="fill-rule:nonzero;"/>
        </g>
        <g transform="matrix(1,0,0,1,541.236,432.403)">
            <path d="M0,3.137C3.511,0.151 -6.344,-1.715 -12.542,-2.814C-18.739,-3.91 -27.799,-12.449 -27.799,-12.449C-34.923,2.252 -14.63,15.586 0,3.137" style="fill-rule:nonzero;"/>
        </g>
        <g transform="matrix(1,0,0,1,511.319,454.54)">
            <path d="M0,-7.522C0,-7.522 -3.322,0 -11.324,-0.872C-11.219,-0.872 -12.115,-0.408 0,-7.522" style="fill-rule:nonzero;"/>
        </g>
        <g transform="matrix(1,0,0,1,512.25,449.449)">
            <path d="M0,6.997L4.828,0C4.828,0 6.672,4.614 0,6.997" style="fill-rule:nonzero;"/>
        </g>
        <g transform="matrix(1,0,0,1,503.216,445.947)">
            <path d="M0,-6.377C0,-6.377 1.617,0 -10.607,-1.409C-10.506,-1.409 -11.724,-0.886 0,-6.377" style="fill-rule:nonzero;"/>
        </g>
        <g transform="matrix(-0.237923,-0.971284,-0.971284,0.237923,760.011,415.843)">
            <path d="M30.49,122.171L67.855,122.171C67.855,122.171 84.808,56.176 90.149,40.505C102.653,3.826 25.928,-15.946 27.566,22.215C27.542,22.116 27.591,23.052 30.49,122.171" style="fill:white;fill-rule:nonzero;stroke:black;stroke-width:1px;"/>
        </g>
        <g transform="matrix(-0.229547,-0.973298,-0.973298,0.229547,647.669,390.773)">
            <path d="M-20.341,16.502C-16.15,8.884 16.609,19.161 16.609,19.161C8.027,23.919 -13,27.497 -20.341,28.478C-20.666,25.406 -20.455,21.786 -20.752,18.842C-20.846,17.922 -20.695,17.148 -20.341,16.502" style="fill-rule:nonzero;"/>
        </g>
        <g transform="matrix(0.985606,0.16906,0.16906,-0.985606,632.063,414.419)">
            <path d="M2.151,-0.521C2.151,-0.521 13.083,-12.495 16.514,-6.522C19.946,-0.549 10.166,19.349 2.151,28.202C-5.864,37.056 -12.746,33.745 -12.746,33.745C-12.647,33.761 -13.369,35.178 2.151,-0.521" style="fill:white;fill-rule:nonzero;stroke:black;stroke-width:1px;"/>
        </g>
        <g transform="matrix(-0.165998,0.986126,0.986126,0.165998,783.562,424.52)">
            <path d="M51.396,-70.251C51.47,-70.692 71.714,-79.345 71.535,-72.17C70.52,-32.079 65.408,7.857 51.396,47.467C49.002,54.228 32.921,39.501 32.996,39.058L51.396,-70.251Z" style="fill:white;fill-rule:nonzero;stroke:black;stroke-width:1px;"/>
        </g>
        <g transform="matrix(1,0,0,1,779.708,479.277)">
            <path d="M0,-164.653L61.185,-140.39C61.185,-140.39 38.113,-61.186 38.878,-35.965C48.511,-27.928 49.386,-11.8 41.879,-7.466C2.979,-2.749 -36.119,0.378 -76.59,-7.466C-86.67,-8.362 -88.258,-22.507 -81.114,-36.78C-81.114,-36.78 -81.491,-133.784 -81.491,-140.39C-73.633,-144.927 -38.098,-163.479 -38.098,-163.479C12.275,-165.031 -2.972,-164.653 0,-164.653" style="fill:white;fill-rule:nonzero;stroke:black;stroke-width:1px;"/>
        </g>
        <g transform="matrix(0.0278513,0.999612,0.999612,-0.0278513,796.371,319.022)">
            <path d="M-52.14,-20.046L-9.306,-20.046C22.708,-20.938 21.611,-55.385 -4.748,-54.65L-34.549,-47.55C-53.276,-18.271 -52.143,-20.147 -52.14,-20.046" style="fill:white;fill-rule:nonzero;stroke:black;stroke-width:1px;"/>
        </g>
        <g transform="matrix(-0.204461,0.978875,0.978875,0.204461,763.32,275.398)">
            <path d="M13.349,-12.987L26.819,-12.987C26.144,-7.618 24.127,-0.213 18.339,4.67C8.251,13.181 -1.24,1.186 -1.347,1.206C-1.368,1.305 13.383,-13.148 13.349,-12.987" style="fill:white;fill-rule:nonzero;"/>
        </g>
        <g transform="matrix(1,0,0,1,735.195,227.331)">
            <path d="M0,46.097C0,46.097 -0.745,61.315 16.784,62.881C34.314,64.447 39.686,46.247 39.834,37.594C39.984,28.94 39.834,15.026 39.834,1.493C39.834,-12.04 0,-18.35 0,3.283C0.101,3.283 0,2.213 0,46.097" style="fill:white;fill-rule:nonzero;stroke:black;stroke-width:1px;"/>
        </g>
        <g transform="matrix(1,0,0,1,771.03,333.602)">
            <path d="M0,0.295C0,0.295 -1.931,-6.539 -5.464,-5.642C-8.999,-4.745 -12.374,2.527 -10.246,6.212C-10.146,6.212 -11.323,6.834 0,0.295" style="fill-rule:nonzero;"/>
        </g>
        <g transform="matrix(1,0,0,1,739.193,333.189)">
            <path d="M0,0.919C0,0.919 1.931,-5.916 5.465,-5.018C8.999,-4.123 12.374,3.15 10.246,6.835C10.347,6.835 9.603,6.463 0,0.919" style="fill-rule:nonzero;"/>
        </g>
        <g transform="matrix(1,0,0,1,784.641,341.6)">
            <path d="M0,-25.02C-1.441,-18.855 -4.443,-10.242 -10.705,0.606C-10.705,0.606 12.473,-9.573 19.648,-17.228C-1.528,-25.626 0.102,-25.02 0,-25.02" style="fill-rule:nonzero;"/>
        </g>
        <g transform="matrix(1,0,0,1,753.66,475.192)">
            <path d="M0,-126.709C-13.979,-93.73 -10.344,-38.288 -11.4,-32.908C-19.574,-26.916 -23.268,-16.651 -22.431,-8.274C-22.271,-6.691 -21.075,-1.441 -20.439,0.59C-19.621,0.65 -18.804,0.704 -17.986,0.755C-18.704,-1.133 -20.032,-6.723 -20.21,-8.496C-20.974,-16.145 -17.463,-25.956 -9.813,-31.37C-9.254,-31.766 -9.311,-32.04 -9.252,-32.272C-8.021,-36.964 -11.845,-93.037 2.058,-125.838C2.359,-126.547 1.867,-127.391 1.008,-127.391L1.009,-127.39C1.128,-127.39 0.32,-127.464 0,-126.709" style="fill-rule:nonzero;"/>
        </g>
        <g transform="matrix(1,0,0,1,743.75,355.6)">
            <path d="M0,-50.037C-17.43,-45.366 -11.768,-11.921 -5.896,-12.87C-1.698,-13.55 -4.121,-26.636 0.731,-26.001C4.878,-25.461 5.553,-18.277 5.664,-16.183C5.664,-11.136 3.767,-0.603 8.7,-0.265C12.633,0.004 17.139,-25.58 21.992,-26.213C26.845,-26.846 24.717,-14.77 28.62,-13.082C32.523,-11.394 44.336,-27.64 43.706,-37.029C43.072,-46.418 32.16,-50.037 32.16,-50.037C32.16,-49.64 32.247,-39.592 20.497,-32.809C16.731,-30.636 14.538,-26.082 13.901,-22.208C12.649,-21.866 10.53,-21.703 8.787,-22.208C8.106,-26.037 5.828,-30.305 2.228,-32.603C-3.078,-35.99 -0.032,-49.212 0,-50.041L0,-50.037Z" style="fill:white;fill-rule:nonzero;stroke:black;stroke-width:1px;"/>
        </g>
        <g transform="matrix(1,0,0,1,756.197,367.539)">
            <path d="M0,3.249C-0.896,3.249 -1.623,2.522 -1.623,1.625C-1.623,0.728 -0.896,0 0,0C0.897,0 1.625,0.728 1.625,1.625C1.752,1.625 1.435,3.249 0,3.249" style="fill-rule:nonzero;"/>
        </g>
        <g transform="matrix(1,0,0,1,753.082,389.455)">
            <path d="M0,3.249C-0.898,3.249 -1.624,2.521 -1.624,1.624C-1.624,0.728 -0.898,0 0,0C0.897,0 1.624,0.728 1.624,1.624C1.729,1.624 1.457,3.249 0,3.249" style="fill-rule:nonzero;"/>
        </g>
        <g transform="matrix(1,0,0,1,750.793,413.134)">
            <path d="M0,3.248C-0.897,3.248 -1.624,2.521 -1.624,1.624C-1.624,0.727 -0.897,0 0,0C0.897,0 1.623,0.727 1.623,1.624C1.737,1.624 1.451,3.248 0,3.248" style="fill-rule:nonzero;"/>
        </g>
        <g transform="matrix(1,0,0,1,751.837,434.617)">
            <path d="M0,3.249C-0.896,3.249 -1.624,2.521 -1.624,1.624C-1.624,0.728 -0.896,0 0,0C0.897,0 1.625,0.728 1.625,1.624C1.739,1.624 1.451,3.249 0,3.249" style="fill-rule:nonzero;"/>
        </g>
        <g transform="matrix(1,0,0,1,771.374,288.073)">
            <path d="M0,-20.572C0,-20.572 0.209,-9.811 -2.848,-4.43C-5.907,0.949 -13.714,5.591 -27.429,4.324C-41.143,3.059 -43.147,-3.587 -42.62,-9.389C-42.093,-15.191 -36.396,-15.614 -36.501,-18.356C-36.606,-21.099 -35.024,-23.737 -32.176,-23.842C-29.328,-23.947 -27.851,-21.732 -29.328,-21.415C-30.805,-21.099 -32.387,-23.209 -32.387,-19.727C-32.387,-16.247 -29.539,-11.815 -24.37,-12.765C-19.2,-13.714 -16.668,-22.364 -19.305,-21.838C-21.943,-21.31 -24.896,-20.044 -24.896,-21.415C-24.896,-22.787 -20.783,-25.108 -12.132,-25.635C-3.481,-26.163 -3.587,-16.457 -2.953,-18.462C-2.35,-20.376 -0.191,-20.572 0,-20.572" style="fill-rule:nonzero;stroke:black;stroke-width:1px;"/>
        </g>
        <g transform="matrix(1,0,0,1,740.569,224.945)">
            <path d="M0,2.575C0.527,-2.173 5.908,-9.557 9.179,-2.7C12.449,4.157 9.601,15.339 16.668,18.82C23.736,22.302 27.851,21.458 27.851,21.458C27.851,21.458 29.116,31.269 31.332,32.534C33.547,33.802 43.675,27.049 43.675,27.049C43.675,27.049 50.227,20.198 51.385,11.758C52.542,3.319 46.716,-5.685 38.906,-13.494C21.173,-31.227 0.634,-14.304 0.634,-14.304C0.634,-14.304 -5.486,-18.524 -9.494,-12.09C-13.503,-5.654 -11.288,7.638 -9.39,12.807C-7.49,17.977 -5.17,21.353 -5.17,21.353L-5.375,5.669C-5.375,2.527 -2.8,2.575 0,2.575" style="fill-rule:nonzero;stroke:black;stroke-width:1px;"/>
        </g>
        <g transform="matrix(1,0,0,1,788.11,274.78)">
            <path d="M0,-6.872C2.386,-5.828 -6.753,6.564 -11.851,1.383C-16.947,-3.797 -12.236,-11.796 -5.821,-13.436C-5.533,-13.436 -3.466,-8.387 0,-6.872" style="fill-rule:nonzero;stroke:white;stroke-width:1px;"/>
        </g>
        <g transform="matrix(0.408216,-0.912885,-0.912885,-0.408216,784.733,253.452)">
            <path d="M-6.885,-4.461C-12.327,-4.461 -16.737,-1.085 -16.738,3.081C-16.738,7.248 -12.326,10.624 -6.885,10.624C-1.443,10.624 2.968,7.248 2.969,3.08C2.969,-1.084 -1.443,-4.465 -6.885,-4.461" style="fill:white;fill-rule:nonzero;stroke:black;stroke-width:1px;"/>
        </g>
        <g transform="matrix(-0.707107,0.707107,0.707107,0.707107,782.839,260.722)">
            <path d="M-0.342,-7.483C-3.375,-7.509 -4.166,-4.185 -3.296,-3.843C-2.426,-3.5 -0.922,-5.056 -0.342,-3.737C0.238,-2.418 4.14,1.877 5.672,-3.844C5.601,-3.773 2.91,-7.454 -0.342,-7.483" style="fill-rule:nonzero;"/>
        </g>
        <g transform="matrix(1,0,0,1,748.082,251.32)">
            <path d="M0,-31.759C0,-31.759 5.501,-28.949 4.54,-19.007C3.58,-9.065 8.309,1.855 20.035,-2.478C31.762,-6.812 29.724,-12.208 29.724,-12.208C29.724,-12.208 23.103,-2.865 14.471,-3.568C5.838,-4.273 5.754,-18.26 7.494,-23.154C9.233,-28.048 3.897,-33.614 0,-31.759" style="fill-rule:nonzero;stroke:black;stroke-width:1px;"/>
        </g>
        <g transform="matrix(1,0,0,1,656.891,460.238)">
            <path d="M0,-105.14C-1.708,-103.88 -2.029,-100.576 3.11,-95.64C4.951,-93.871 8.638,-92.579 11.775,-90.912C4.904,-92.937 -2.522,-95.099 -4.345,-95.599C-7.763,-96.533 -11.701,-91.902 -2.663,-86.014C-0.275,-84.457 4.75,-81.899 9.735,-79.348C4.74,-80.598 0.979,-81.347 -0.373,-81.256C-1.564,-81.176 -3.163,-81.113 -3.611,-80.097C-4.464,-78.152 -2.732,-74.688 3.338,-72.321C5.722,-71.392 10.725,-68.973 15.682,-68.28C10.25,-68.917 6.506,-69.329 5.206,-69.429C1.954,-69.677 1.386,-66.046 7.702,-62.748C11.044,-61.003 23.934,-58.168 31.001,-58C36.067,-54.71 53.427,-51.989 61.391,-50.878C68.68,-44.748 99.069,-19.329 118.556,-5.977C123.904,-2.313 136.465,5.994 147.689,-8.069C150.816,-11.995 156.386,-21.183 161.025,-28.757C167.201,-38.848 127.228,-44.689 127.228,-44.689L69.036,-72.186C69.036,-72.186 61.1,-84.495 57.729,-88.408C54.359,-92.319 48.609,-104.877 46.617,-108.006C44.624,-111.134 40.937,-104.729 42,-99.837C43.063,-94.945 43.993,-91.336 43.993,-91.336C43.993,-91.336 26.141,-96.429 24.072,-97.604C22.005,-98.78 6.369,-103.843 3.245,-105.372C2.172,-105.899 0.895,-105.8 -0.001,-105.142L0,-105.14Z" style="fill:white;fill-rule:nonzero;stroke:rgb(18,0,0);stroke-width:1px;"/>
        </g>
        <g transform="matrix(-0.904514,-0.426444,-0.426444,0.904514,861.932,329.477)">
            <path d="M-3.686,111.037L33.678,111.037C33.678,111.037 46.848,71.954 52.19,56.282C64.692,19.603 -12.033,-0.17 -10.396,37.991C-10.488,37.948 -10.477,37.118 -3.686,111.037" style="fill:white;fill-rule:nonzero;stroke:rgb(3,3,3);stroke-width:1px;"/>
        </g>
        <g transform="matrix(-0.400062,0.916488,0.916488,0.400062,732.561,396.944)">
            <path d="M-5.495,-9.636L6.708,-9.636C6.708,-9.636 8.966,-9.687 7.486,-7.862C6.278,-6.37 -0.988,-2.771 -5.279,-2.4C-5.319,-2.309 -5.305,-3.286 -5.495,-9.636" style="fill-rule:nonzero;"/>
        </g>
        <g transform="matrix(1,0,0,1,818.561,425.653)">
            <path d="M0,3.543C-0.464,-5.138 -34.442,-10.104 -34.442,-10.104C-28.774,-2.091 -11.642,9.575 -5.45,13.647C-0.272,5.268 0.08,5.022 0,3.543" style="fill-rule:nonzero;"/>
        </g>
        <g transform="matrix(0.751681,-0.659527,-0.659527,-0.751681,822.447,422.35)">
            <path d="M-9.429,-3.876C-9.429,-3.876 1.503,-15.852 4.933,-9.877C8.368,-3.907 -1.415,15.995 -9.429,24.847C-17.444,33.7 -24.325,30.391 -24.325,30.391C-24.249,30.324 -25.226,32.463 -9.429,-3.876" style="fill:white;fill-rule:nonzero;stroke:black;stroke-width:1px;"/>
        </g>
        <g transform="matrix(0.743225,-0.669041,-0.669041,-0.743225,711.525,368.462)">
            <path d="M-5.007,-1.785C-5.007,-1.785 -3.567,7.729 -3.851,10.156C-4.138,12.583 -5.007,12.652 -5.007,12.652L-8.203,6.792C-8.129,6.725 -8.577,7.798 -5.007,-1.785" style="fill-rule:nonzero;"/>
        </g>
        <g transform="matrix(0.976022,0.21767,0.21767,-0.976022,668.151,369.588)">
            <path d="M0.446,0.368L6.455,0.368C6.455,0.368 -1.718,3.973 -4.709,4.194C-7.7,4.417 -9.135,3.103 -9.135,3.103C-5.899,1.508 0.067,0.283 0.446,0.368" style="fill-rule:nonzero;"/>
        </g>
        <g transform="matrix(1,0,0,1,444.171,352.895)">
            <path d="M0,-199.877C-9.546,-199.877 -17.23,-192.193 -17.23,-182.648L-17.23,-17.23C-17.23,-7.685 -9.546,0 0,0L118.155,0C127.701,0 135.387,-7.685 135.387,-17.23L135.387,-142.768L78.277,-199.877L0,-199.877Z" style="fill:white;fill-rule:nonzero;stroke:black;stroke-width:1px;"/>
        </g>
        <g transform="matrix(1,0,0,1,535.249,219.538)">
            <path d="M0,-11.874L44.309,0L44.309,-9.411C23.297,-10.579 -0.117,-11.874 0,-11.874" style="fill-rule:nonzero;"/>
        </g>
        <g transform="matrix(-0.707107,-0.707107,-0.707107,0.707107,551.003,141.191)">
            <path d="M-68.937,28.555L11.828,28.555L-16.371,56.753C-23.12,63.503 -33.989,63.503 -40.739,56.752L-68.937,28.555Z" style="fill:rgb(131,200,135);fill-rule:nonzero;"/>
        </g>
        <g transform="matrix(1,0,0,1,462.142,237.941)">
            <path d="M0,-2.363C-0.652,-2.364 -1.181,-1.835 -1.181,-1.182C-1.182,-0.669 -0.783,0.001 0,0.001L101.699,0.001C102.351,0.001 102.88,-0.529 102.88,-1.181C102.88,-1.688 102.484,-2.363 101.699,-2.363L0,-2.363Z" style="fill-rule:nonzero;"/>
        </g>
        <g transform="matrix(1,0,0,1,446.529,199.543)">
            <path d="M0,-2.365C-0.652,-2.365 -1.182,-1.836 -1.182,-1.183C-1.182,-0.677 -0.786,-0.001 0,-0.001L48.107,-0.001C48.76,0 49.289,-0.53 49.289,-1.182C49.289,-1.689 48.893,-2.365 48.107,-2.365L0,-2.365Z" style="fill-rule:nonzero;"/>
        </g>
        <g transform="matrix(1,0,0,1,462.142,261.151)">
            <path d="M0,-2.365C-0.652,-2.365 -1.181,-1.837 -1.181,-1.183C-1.181,-0.67 -0.783,0 0,0L101.699,0C102.351,0 102.88,-0.53 102.88,-1.182C102.88,-1.689 102.486,-2.365 101.699,-2.365L0,-2.365Z" style="fill-rule:nonzero;"/>
        </g>
        <g transform="matrix(1,0,0,1,462.142,284.36)">
            <path d="M0,-2.365C-0.652,-2.365 -1.181,-1.836 -1.181,-1.183C-1.182,-0.669 -0.783,0 0,0L101.699,0C102.351,0 102.88,-0.529 102.88,-1.182C102.88,-1.689 102.486,-2.365 101.699,-2.365L0,-2.365Z" style="fill-rule:nonzero;"/>
        </g>
        <g transform="matrix(1,0,0,1,462.142,307.568)">
            <path d="M0,-2.364C-0.652,-2.364 -1.181,-1.835 -1.181,-1.182C-1.181,-0.669 -0.783,0 0,0L101.699,0C102.351,0 102.88,-0.529 102.88,-1.181C102.88,-1.688 102.484,-2.364 101.699,-2.364L0,-2.364Z" style="fill-rule:nonzero;"/>
        </g>
        <g transform="matrix(1,0,0,1,371.183,304.428)">
            <path d="M0,34.998C-1.963,38.397 -0.382,41.984 3.545,43.036L18.397,44.694L27.259,56.727C30.134,59.602 34.029,59.178 35.992,55.777L68.44,-0.422C70.403,-3.824 34.411,-24.604 32.447,-21.203C32.618,-21.203 -0.064,35.11 0,34.998" style="fill:rgb(200,79,73);fill-rule:nonzero;"/>
        </g>
        <g transform="matrix(1,0,0,1,495.824,304.428)">
            <path d="M0,34.998C1.963,38.397 0.383,41.984 -3.545,43.036L-18.397,44.694L-27.258,56.727C-30.133,59.602 -34.029,59.178 -35.992,55.777L-68.439,-0.422C-70.403,-3.824 -34.411,-24.604 -32.448,-21.203C-32.347,-21.203 0.062,35.106 0,34.998" style="fill:rgb(200,79,73);fill-rule:nonzero;"/>
        </g>
        <g transform="matrix(1,0,0,1,463.376,328.488)">
            <path d="M0,-45.262L10.169,-27.648C8.591,-21.942 8.966,-13.813 5.083,-9.931C0.762,-5.609 -8.828,-6.571 -14.475,-4.232C-16.796,-3.271 -19.198,-1.445 -21.643,0.374L-35.991,-24.481C-37.801,-27.616 -7.355,-45.522 -1.048,-45.635L-1.048,-45.636C-0.414,-45.636 -0.126,-45.481 0,-45.262" style="fill-rule:nonzero;"/>
        </g>
        <g transform="matrix(1,0,0,1,403.629,325.465)">
            <path d="M0,-42.24L-10.168,-24.626C-8.59,-18.92 -8.965,-10.791 -5.083,-6.909C-0.76,-2.587 8.829,-3.549 14.475,-1.209C16.797,-0.248 19.198,1.577 21.643,3.396L35.993,-21.458C37.955,-24.857 1.975,-45.636 0,-42.24" style="fill-rule:nonzero;"/>
        </g>
        <g transform="matrix(1,0,0,1,471.166,235.674)">
            <path d="M0,74.834C-4.322,79.155 -13.912,78.194 -19.558,80.533C-25.204,82.873 -31.305,90.333 -37.417,90.333C-43.529,90.333 -49.63,82.873 -55.276,80.533C-60.922,78.194 -70.513,79.155 -74.834,74.834C-79.156,70.512 -78.195,60.922 -80.534,55.276C-82.873,49.63 -90.333,43.529 -90.333,37.417C-90.333,31.305 -82.873,25.204 -80.534,19.558C-78.195,13.912 -79.156,4.321 -74.834,-0C-70.513,-4.322 -60.923,-3.361 -55.277,-5.701C-49.631,-8.038 -43.529,-15.499 -37.417,-15.499C-31.306,-15.499 -25.204,-8.038 -19.558,-5.7C-13.912,-3.361 -4.322,-4.321 0,-0C4.321,4.321 3.36,13.912 5.699,19.558C8.038,25.204 15.499,31.305 15.499,37.417C15.499,43.529 8.038,49.63 5.699,55.276C3.36,60.922 4.321,70.512 0,74.834" style="fill:rgb(235,191,56);fill-rule:nonzero;"/>
        </g>
        <g transform="matrix(1,0,0,1,445.493,289.707)">
            <path d="M0,-31.201L-19.397,-11.803L-30,-18.972C-32.379,-20.362 -33.979,-20.466 -34.985,-19.459C-35.992,-18.451 -36.215,-16.77 -34.58,-14.391L-23.189,-0.425C-21.095,1.67 -17.7,1.67 -15.605,-0.425L7.585,-23.616C10.974,-27.004 8.529,-32.768 3.796,-32.771C3.796,-32.871 1.562,-32.763 0,-31.201" style="fill:white;fill-rule:nonzero;"/>
        </g>
        <g transform="matrix(1,0,0,1,437.582,279.129)">
            <path d="M0,-12.711L-11.487,-1.223L-7.749,0.934C0.53,-13.645 -0.101,-12.711 0,-12.711" style="fill-rule:nonzero;"/>
        </g>
        <g transform="matrix(1,0,0,1,433.749,310.216)">
            <path d="M0,-74.252C-20.491,-74.252 -37.127,-57.617 -37.126,-37.126C-37.126,-16.637 -20.491,0 0,0C20.49,0 37.127,-16.636 37.127,-37.126C37.127,-57.523 20.583,-74.252 0,-74.252M34.764,-37.126C34.764,-17.913 19.213,-2.362 0,-2.362C-19.213,-2.362 -34.763,-17.913 -34.763,-37.126C-34.763,-56.34 -19.214,-71.889 0,-71.889C19.153,-71.889 34.764,-56.399 34.764,-37.126" style="fill-rule:nonzero;"/>
        </g>
        <g transform="matrix(1,0,0,1,446.529,177.597)">
            <path d="M0,-2.364C-0.652,-2.364 -1.182,-1.835 -1.182,-1.183C-1.182,-0.683 -0.795,0 0,0L21.522,0C22.175,0 22.705,-0.529 22.705,-1.181C22.705,-1.688 22.31,-2.364 21.523,-2.364L0,-2.364Z" style="fill-rule:nonzero;"/>
        </g>
        <g transform="matrix(1,0,0,1,541.896,331.623)">
            <path d="M0,-2.364C-0.652,-2.364 -1.182,-1.835 -1.182,-1.182C-1.182,-0.669 -0.782,0 0,0L21.944,0C22.597,0 23.126,-0.529 23.126,-1.182C23.234,-1.182 22.984,-2.364 21.944,-2.364L0,-2.364Z" style="fill-rule:nonzero;"/>
        </g>
        <g transform="matrix(1,0,0,1,246.459,554.185)">
            <path d="M0,-199.879C-9.546,-199.879 -17.23,-192.194 -17.23,-182.649L-17.23,-17.233C-17.23,-7.687 -9.546,0 0,0L118.155,0C127.702,0 135.386,-7.687 135.386,-17.233L135.386,-142.771L78.278,-199.879L0,-199.879Z" style="fill:white;fill-rule:nonzero;stroke:black;stroke-width:1px;"/>
        </g>
        <g transform="matrix(1,0,0,1,337.536,420.825)">
            <path d="M0,-11.873L44.309,0L44.309,-9.411C23.298,-10.578 -0.117,-11.873 0,-11.873" style="fill-rule:nonzero;"/>
        </g>
        <g transform="matrix(-0.707107,-0.707107,-0.707107,0.707107,353.291,342.479)">
            <path d="M-68.935,28.554L11.827,28.554L-16.371,56.752C-23.121,63.502 -33.988,63.501 -40.738,56.751L-68.935,28.554Z" style="fill:rgb(125,198,238);fill-rule:nonzero;"/>
        </g>
        <g transform="matrix(1,0,0,1,264.433,439.231)">
            <path d="M0,-2.363C-0.653,-2.363 -1.183,-1.835 -1.183,-1.182C-1.183,-0.686 -0.796,0 0,0L101.693,0C102.346,0 102.875,-0.529 102.875,-1.181C102.983,-1.181 102.733,-2.363 101.694,-2.363L0,-2.363Z" style="fill-rule:nonzero;"/>
        </g>
        <g transform="matrix(1,0,0,1,248.82,400.829)">
            <path d="M0,-2.365C-0.653,-2.365 -1.183,-1.836 -1.183,-1.183C-1.183,-0.676 -0.787,0 0,0L48.102,0C48.754,0 49.284,-0.53 49.284,-1.182C49.284,-1.689 48.887,-2.365 48.102,-2.365L0,-2.365Z" style="fill-rule:nonzero;"/>
        </g>
        <g transform="matrix(1,0,0,1,264.433,462.441)">
            <path d="M0,-2.364C-0.653,-2.364 -1.183,-1.835 -1.183,-1.182C-1.183,-0.669 -0.783,0 0,0L101.693,0C102.346,0 102.875,-0.529 102.875,-1.181C102.875,-1.689 102.48,-2.364 101.693,-2.364L0,-2.364Z" style="fill-rule:nonzero;"/>
        </g>
        <g transform="matrix(1,0,0,1,264.433,485.649)">
            <path d="M0,-2.363C-0.653,-2.363 -1.183,-1.835 -1.183,-1.182C-1.183,-0.686 -0.796,0 0,0L101.693,0C102.346,0 102.875,-0.529 102.875,-1.181C102.875,-1.687 102.48,-2.363 101.694,-2.363L0,-2.363Z" style="fill-rule:nonzero;"/>
        </g>
        <g transform="matrix(1,0,0,1,264.433,508.859)">
            <path d="M0,-2.364C-0.653,-2.364 -1.183,-1.835 -1.183,-1.182C-1.183,-0.669 -0.783,0 0,0L101.693,0C102.346,0 102.875,-0.529 102.875,-1.181C102.875,-1.688 102.48,-2.364 101.693,-2.364L0,-2.364Z" style="fill-rule:nonzero;"/>
        </g>
        <g transform="matrix(1,0,0,1,173.47,505.717)">
            <path d="M0,34.997C-1.963,38.398 -0.382,41.984 3.545,43.037L18.397,44.695L27.259,56.727C30.134,59.601 34.029,59.179 35.992,55.778L68.44,-0.422C70.403,-3.824 34.411,-24.604 32.448,-21.203C32.618,-21.203 -0.064,35.109 0,34.997" style="fill:rgb(200,79,73);fill-rule:nonzero;"/>
        </g>
        <g transform="matrix(1,0,0,1,298.112,505.717)">
            <path d="M0,34.997C1.963,38.398 0.383,41.984 -3.545,43.037L-18.396,44.695L-27.258,56.727C-30.133,59.601 -34.029,59.179 -35.992,55.778L-68.439,-0.422C-70.402,-3.824 -34.411,-24.604 -32.448,-21.203C-32.347,-21.203 0.062,35.105 0,34.997" style="fill:rgb(200,79,73);fill-rule:nonzero;"/>
        </g>
        <g transform="matrix(1,0,0,1,265.664,529.777)">
            <path d="M0,-45.263L10.169,-27.65C8.591,-21.942 8.966,-13.814 5.083,-9.931C0.762,-5.61 -8.828,-6.571 -14.475,-4.233C-16.796,-3.271 -19.197,-1.447 -21.642,0.374L-35.991,-24.482C-37.801,-27.617 -7.355,-45.522 -1.048,-45.636L-1.048,-45.637C-0.414,-45.637 -0.126,-45.483 0,-45.263" style="fill-rule:nonzero;"/>
        </g>
        <g transform="matrix(1,0,0,1,205.918,529.703)">
            <path d="M0,-45.189L-10.169,-27.576C-8.591,-21.868 -8.966,-13.74 -5.083,-9.857C-0.761,-5.536 8.829,-6.497 14.475,-4.159C16.796,-3.197 19.197,-1.373 21.643,0.448L35.992,-24.408C37.802,-27.543 7.355,-45.449 1.049,-45.562L1.049,-45.563C1.152,-45.563 0.259,-45.637 0,-45.189" style="fill-rule:nonzero;"/>
        </g>
        <g transform="matrix(1,0,0,1,273.454,436.964)">
            <path d="M0,74.833C-4.322,79.155 -13.911,78.195 -19.558,80.533C-25.204,82.871 -31.305,90.333 -37.417,90.333C-43.529,90.333 -49.63,82.871 -55.276,80.533C-60.922,78.195 -70.513,79.155 -74.834,74.833C-79.155,70.511 -78.195,60.922 -80.533,55.276C-82.872,49.63 -90.333,43.528 -90.333,37.416C-90.333,31.305 -82.872,25.204 -80.534,19.558C-78.195,13.911 -79.155,4.32 -74.834,-0.001C-70.513,-4.323 -60.923,-3.361 -55.277,-5.702C-49.631,-8.04 -43.529,-15.5 -37.417,-15.5C-31.306,-15.5 -25.204,-8.04 -19.558,-5.7C-13.911,-3.361 -4.322,-4.322 0,-0.001C4.321,4.32 3.36,13.911 5.699,19.558C8.038,25.204 15.499,31.305 15.499,37.416C15.499,43.528 8.038,49.63 5.699,55.276C3.36,60.922 4.321,70.511 0,74.833" style="fill:rgb(235,191,56);fill-rule:nonzero;"/>
        </g>
        <g transform="matrix(1,0,0,1,251.576,492.664)">
            <path d="M0,-34.44C-1.423,-34.44 -2.789,-33.875 -3.796,-32.869L-23.193,-13.471L-33.796,-20.64C-36.175,-22.03 -37.774,-22.134 -38.781,-21.127C-39.788,-20.12 -40.011,-18.439 -38.376,-16.06L-26.985,-2.094C-24.891,0 -21.496,0 -19.401,-2.094L3.79,-25.284C7.182,-28.677 4.726,-34.44 0,-34.44" style="fill:white;fill-rule:nonzero;"/>
        </g>
        <g transform="matrix(1,0,0,1,239.87,480.416)">
            <path d="M0,-12.709L-11.487,-1.222L-7.749,0.935C0.531,-13.644 -0.101,-12.709 0,-12.709" style="fill-rule:nonzero;"/>
        </g>
        <g transform="matrix(1,0,0,1,236.036,511.504)">
            <path d="M0,-74.251C-20.491,-74.251 -37.126,-57.616 -37.126,-37.126C-37.126,-16.635 -20.491,0 0,0C20.623,0 37.107,-16.847 37.107,-36.912C37.107,-57.996 20.177,-74.246 -0.005,-74.246L0,-74.251ZM34.766,-37.126C34.766,-17.913 19.212,-2.364 0,-2.364C-19.214,-2.364 -34.762,-17.913 -34.762,-37.126C-34.762,-56.339 -19.214,-71.887 0,-71.887C19.152,-71.887 34.766,-56.398 34.766,-37.126" style="fill-rule:nonzero;"/>
        </g>
        <g transform="matrix(1,0,0,1,248.82,378.888)">
            <path d="M0,-2.364C-0.653,-2.364 -1.183,-1.835 -1.183,-1.182C-1.183,-0.675 -0.785,-0.001 0,-0.001L21.517,-0.001C22.169,0 22.699,-0.529 22.699,-1.181C22.699,-1.688 22.305,-2.364 21.518,-2.364L0,-2.364Z" style="fill-rule:nonzero;stroke:white;stroke-width:1px;"/>
        </g>
        <g transform="matrix(1,0,0,1,344.186,532.91)">
            <path d="M0,-2.364C-0.652,-2.364 -1.182,-1.835 -1.182,-1.182C-1.182,-0.684 -0.791,0 0,0L21.94,0C22.593,0 23.122,-0.528 23.122,-1.18C23.122,-1.688 22.726,-2.364 21.94,-2.364L0,-2.364Z" style="fill-rule:nonzero;"/>
        </g>
        <g transform="matrix(1,0,0,1,471.933,727.133)">
            <path d="M0,-199.877C-9.546,-199.877 -17.23,-192.192 -17.23,-182.647L-17.23,-17.231C-17.23,-7.685 -9.546,0 0,0L118.156,0C127.702,0 135.386,-7.685 135.386,-17.231L135.386,-142.769L78.279,-199.877L0,-199.877Z" style="fill:white;fill-rule:nonzero;stroke:black;stroke-width:1px;"/>
        </g>
        <g transform="matrix(1,0,0,1,563.01,593.775)">
            <path d="M0,-11.873L44.31,0L44.31,-9.411C23.299,-10.578 -0.117,-11.873 0,-11.873" style="fill-rule:nonzero;"/>
        </g>
        <g transform="matrix(-0.707101,-0.707113,-0.707113,0.707101,578.767,515.429)">
            <path d="M-68.935,28.554L11.828,28.554L-16.371,56.752C-23.121,63.502 -33.988,63.502 -40.738,56.752L-68.935,28.554Z" style="fill:rgb(186,209,237);fill-rule:nonzero;"/>
        </g>
        <g transform="matrix(1,0,0,1,489.904,612.177)">
            <path d="M0,-2.362C-0.65,-2.359 -1.178,-1.832 -1.177,-1.179C-1.177,-0.529 -0.65,-0.001 0,0.002L101.698,0.002C102.351,0.002 102.88,-0.527 102.88,-1.179C102.988,-1.179 102.738,-2.361 101.699,-2.362C99.91,-2.364 115.548,-2.362 0,-2.362" style="fill-rule:nonzero;"/>
        </g>
        <g transform="matrix(1,0,0,1,474.291,573.781)">
            <path d="M0,-2.364C-0.652,-2.364 -1.182,-1.835 -1.182,-1.182C-1.182,-0.688 -0.795,0.001 0,0.001L48.107,0.001C48.759,0.001 49.289,-0.528 49.29,-1.18C49.397,-1.18 49.148,-2.362 48.108,-2.364C47.117,-2.365 0.763,-2.364 0,-2.364" style="fill-rule:nonzero;"/>
        </g>
        <g transform="matrix(1,0,0,1,489.904,635.388)">
            <path d="M0,-2.363C-0.65,-2.362 -1.177,-1.834 -1.177,-1.181C-1.178,-0.531 -0.65,-0.003 0,0L101.698,0C102.351,0 102.88,-0.529 102.88,-1.181C102.979,-1.181 102.742,-2.363 101.698,-2.363L0,-2.363Z" style="fill-rule:nonzero;"/>
        </g>
        <g transform="matrix(1,0,0,1,489.904,658.594)">
            <path d="M0,-2.362C-0.65,-2.358 -1.178,-1.831 -1.177,-1.178C-1.177,-0.527 -0.65,0 0,0.003L101.698,0.003C102.351,0.003 102.88,-0.526 102.88,-1.178C102.98,-1.178 102.738,-2.359 101.699,-2.362C100.483,-2.365 106.86,-2.362 0,-2.362" style="fill-rule:nonzero;"/>
        </g>
        <g transform="matrix(1,0,0,1,489.904,681.806)">
            <path d="M0,-2.363C-0.65,-2.361 -1.177,-1.834 -1.177,-1.181C-1.178,-0.531 -0.65,-0.001 0,0L101.698,0C102.351,0 102.88,-0.529 102.88,-1.181C102.98,-1.181 102.737,-2.363 101.698,-2.363L0,-2.363Z" style="fill-rule:nonzero;"/>
        </g>
        <g transform="matrix(1,0,0,1,398.946,678.666)">
            <path d="M0,34.998C-1.964,38.397 -0.383,41.984 3.543,43.036L18.397,44.694L27.258,56.727C30.132,59.602 34.028,59.178 35.993,55.777L68.438,-0.422C70.403,-3.824 34.411,-24.604 32.446,-21.202C32.617,-21.202 -0.065,35.11 0,34.998" style="fill:rgb(200,79,73);fill-rule:nonzero;"/>
        </g>
        <g transform="matrix(1,0,0,1,523.586,678.666)">
            <path d="M0,34.998C1.964,38.397 0.383,41.984 -3.544,43.036L-18.397,44.694L-27.258,56.727C-30.132,59.602 -34.029,59.178 -35.993,55.777L-68.438,-0.422C-70.403,-3.824 -34.411,-24.604 -32.446,-21.202C-32.346,-21.202 0.063,35.106 0,34.998" style="fill:rgb(200,79,73);fill-rule:nonzero;"/>
        </g>
        <g transform="matrix(1,0,0,1,491.14,699.698)">
            <path d="M0,-42.234L10.168,-24.621C8.59,-18.915 8.965,-10.786 5.082,-6.904C0.761,-2.582 -8.83,-3.544 -14.476,-1.205C-16.797,-0.244 -19.199,1.583 -21.643,3.401L-35.992,-21.454C-37.956,-24.854 -1.962,-45.635 0,-42.234" style="fill-rule:nonzero;"/>
        </g>
        <g transform="matrix(1,0,0,1,431.392,699.704)">
            <path d="M0,-42.242L-10.169,-24.627C-8.59,-18.921 -8.964,-10.792 -5.083,-6.91C-0.762,-2.588 8.83,-3.55 14.476,-1.211C16.797,-0.25 19.199,1.577 21.643,3.395L35.992,-21.46C37.956,-24.86 1.97,-45.637 0,-42.242" style="fill-rule:nonzero;"/>
        </g>
        <g transform="matrix(1,0,0,1,498.928,609.912)">
            <path d="M0,74.835C-4.321,79.156 -13.912,78.194 -19.558,80.533C-25.204,82.873 -31.305,90.333 -37.417,90.333C-43.529,90.333 -49.63,82.873 -55.276,80.533C-60.922,78.194 -70.513,79.156 -74.834,74.835C-79.155,70.513 -78.195,60.923 -80.533,55.276C-82.873,49.631 -90.333,43.528 -90.333,37.418C-90.333,31.306 -82.873,25.204 -80.534,19.558C-78.195,13.912 -79.155,4.321 -74.834,0.001C-70.513,-4.321 -60.923,-3.36 -55.277,-5.699C-49.631,-8.038 -43.529,-15.498 -37.417,-15.498C-31.306,-15.498 -25.204,-8.037 -19.558,-5.698C-13.912,-3.36 -4.321,-4.32 0,0.001C4.321,4.321 3.36,13.912 5.699,19.558C8.038,25.204 15.499,31.306 15.499,37.418C15.499,43.528 8.038,49.631 5.699,55.276C3.36,60.923 4.321,70.513 0,74.835" style="fill:rgb(235,191,56);fill-rule:nonzero;"/>
        </g>
        <g transform="matrix(1,0,0,1,473.255,663.945)">
            <path d="M0,-31.201L-19.397,-11.803L-30,-18.972C-32.379,-20.363 -33.979,-20.466 -34.985,-19.459C-35.992,-18.45 -36.215,-16.771 -34.581,-14.39L-23.189,-0.425C-21.095,1.67 -17.7,1.67 -15.605,-0.425L7.585,-23.615C10.978,-27.007 8.521,-32.77 3.797,-32.77C3.747,-32.871 1.533,-32.733 0,-31.201" style="fill:white;fill-rule:nonzero;"/>
        </g>
        <g transform="matrix(1,0,0,1,465.344,653.366)">
            <path d="M0,-12.71L-11.486,-1.223L-7.75,0.935C0.531,-13.645 -0.101,-12.71 0,-12.71" style="fill-rule:nonzero;"/>
        </g>
        <g transform="matrix(1,0,0,1,461.511,684.455)">
            <path d="M0,-74.253C-20.491,-74.253 -37.127,-57.617 -37.128,-37.126C-37.127,-16.638 -20.491,0 0,-0.002C20.49,-0.002 37.126,-16.638 37.126,-37.126C37.126,-57.552 20.555,-74.253 0,-74.253M34.763,-37.126C34.763,-17.915 19.213,-2.365 0,-2.365C-19.214,-2.365 -34.764,-17.915 -34.765,-37.126C-34.764,-56.341 -19.214,-71.89 0,-71.89C19.152,-71.89 34.763,-56.401 34.763,-37.126" style="fill-rule:nonzero;"/>
        </g>
        <g transform="matrix(1,0,0,1,474.291,551.837)">
            <path d="M0,-2.365C-0.652,-2.365 -1.182,-1.836 -1.182,-1.183C-1.182,-0.68 -0.795,-0.001 0,-0.001L21.522,-0.001C22.174,0 22.704,-0.529 22.704,-1.181C22.812,-1.181 22.563,-2.363 21.524,-2.365L0,-2.365Z" style="fill-rule:nonzero;"/>
        </g>
        <g transform="matrix(1,0,0,1,569.658,705.856)">
            <path d="M0,-2.362C-0.652,-2.363 -1.182,-1.834 -1.182,-1.182C-1.182,-0.683 -0.795,0.001 0,0.001L21.944,0.001C22.597,0.001 23.126,-0.527 23.126,-1.18C23.234,-1.18 22.984,-2.362 21.945,-2.362L0,-2.362Z" style="fill-rule:nonzero;"/>
        </g>
        
    </g>
</svg>
