<svg width="1.5em" viewBox="0 0 1024 1024" version="1.1" xmlns="http://www.w3.org/2000/svg" xmlns:xlink="http://www.w3.org/1999/xlink" xml:space="preserve" xmlns:serif="http://www.serif.com/" style="fill-rule:evenodd;clip-rule:evenodd;stroke-linejoin:round;stroke-miterlimit:2;" role="img">
    <g id="Join-to--Our-Team--Illustration" serif:id="Join to
 Our Team
 Illustration">
        <g transform="matrix(1,0,0,1,625.882,502.981)">
            <path d="M0,-48.305C2.346,-43.802 19.654,-35.117 27.373,-31.411C32.451,-23.353 53.668,10.107 68.168,28.753C72.148,33.871 81.588,45.605 96.554,35.622C100.732,32.834 108.829,25.777 115.553,19.973C124.51,12.239 88.207,-5.487 88.207,-5.487L41.138,-49.383C41.138,-49.383 37.322,-63.522 35.301,-68.274C33.28,-73.025 31.624,-86.737 30.677,-90.324C29.731,-93.91 24.269,-88.931 23.793,-83.947C23.317,-78.963 23.106,-75.242 23.106,-75.242C23.106,-75.242 8.17,-86.221 6.037,-87.275C0.047,-90.235 -3.079,-77.501 -2.238,-74.314C-1.267,-74.314 -3.205,-54.459 0,-48.305" style="fill:white;fill-rule:nonzero;stroke:black;stroke-width:1px;"/>
        </g>
        <g transform="matrix(-0.731908,-0.681403,-0.681403,0.731908,827.337,443.239)">
            <path d="M8.554,116.879L45.917,116.879C45.917,116.879 59.087,77.794 64.428,62.124C76.931,25.446 0.209,5.671 1.844,43.829C1.771,43.761 1.783,43.163 8.554,116.879" style="fill:white;fill-rule:nonzero;stroke:black;stroke-width:1px;"/>
        </g>
        <g transform="matrix(-0.731271,-0.682087,-0.682087,0.731271,659.052,454.437)">
            <path d="M-12.492,-6.048L-5.254,-6.048L-5.619,6.15C-5.619,6.15 -5.636,8.409 -7.417,6.874C-8.872,5.62 -12.251,-1.747 -12.492,-6.048" style="fill-rule:nonzero;"/>
        </g>
        <g transform="matrix(-0.693832,-0.720136,-0.720136,0.693832,725.922,498.308)">
            <path d="M-27.994,3.609C-23.46,-3.809 8.796,7.957 8.796,7.957C0.006,12.317 -20.616,14.446 -27.994,15.091C-28.178,12.005 -28.351,8.883 -28.511,5.929C-28.563,5.006 -28.379,4.239 -27.994,3.609" style="fill-rule:nonzero;"/>
        </g>
        <g transform="matrix(0.731908,0.681403,0.681403,-0.731908,728.906,486.189)">
            <path d="M-3.141,-18.371L34.222,-18.371C34.222,-18.371 49.563,-13.119 45.452,-7.59C41.342,-2.062 19.196,-3.097 7.881,-6.919C-3.273,-10.685 -3.228,-18.452 -3.141,-18.371" style="fill:white;fill-rule:nonzero;stroke:black;stroke-width:1px;"/>
        </g>
        <g transform="matrix(1,0,0,1,638.229,461.17)">
            <path d="M0,-30.478C4.519,-23.343 4.762,-11.062 4.502,-6.249C4.321,-2.914 2.732,1.308 1.765,3.617C2.331,3.929 2.9,4.234 3.468,4.54C4.559,3.634 5.932,1.831 7.446,-1.733C9.247,-5.975 9.393,-9.479 7.948,-15.606C6.503,-21.733 10.76,-33.432 10.76,-33.432C10.76,-33.432 -2.877,-35.018 -0.002,-30.478L0,-30.478Z" style="fill-rule:nonzero;"/>
        </g>
        <g transform="matrix(1,0,0,1,314.747,878.61)">
            <path d="M0,-11.841L7.682,0.25C2.063,-2.609 -1.425,-6.335 -3.958,-10.454C0.714,-12.091 -0.104,-11.841 0,-11.841" style="fill-rule:nonzero;"/>
        </g>
        <g transform="matrix(1,0,0,1,736.343,874.078)">
            <path d="M0,-221.413L20.424,-221.413L-18.945,4.781L-29.241,4.781C0.618,-226.194 -0.101,-221.413 0,-221.413" style="fill-rule:nonzero;"/>
        </g>
        <g transform="matrix(-1,0,0,1,891.856,873.983)">
            <path d="M8.822,-221.318L29.247,-221.318L-10.122,4.876L-20.425,4.876C9.452,-226.194 8.922,-221.318 8.822,-221.318" style="fill-rule:nonzero;"/>
        </g>
        <g transform="matrix(1,0,0,1,719.012,657.736)">
            <path d="M0,-19.487L175.964,-19.487C181.69,-19.487 186.307,-15.141 186.307,-9.744C186.307,-4.345 181.69,0 175.964,0L0,0C-5.727,0 -10.338,-4.346 -10.338,-9.744C-10.338,-15.157 -5.711,-19.487 0,-19.487" style="fill:rgb(245,147,61);fill-rule:nonzero;"/>
        </g>
        <g transform="matrix(1,0,0,1,739.19,851.981)">
            <path d="M0,-151.843L-0.473,-151.383L-1.156,-151.383L-1.156,-150.72L-1.644,-150.244L-1.156,-149.797L-1.156,-149.155L-0.457,-149.155L66.485,-88.064L-25.572,-4.054C172.702,-4.054 158.289,-4.283 159.055,-3.589L159.535,-4.054L160.212,-4.054L160.212,-4.715L160.701,-5.188L160.212,-5.637L160.212,-6.275C159.11,-6.275 166.378,0 69.888,-88.064L139.268,-151.383C-10.188,-151.383 0.75,-151.156 0,-151.843M2.939,-149.155L133.431,-149.155L68.187,-89.613C2.168,-149.86 2.839,-149.155 2.939,-149.155M68.187,-86.514L156.108,-6.275L-19.737,-6.275C70.963,-89.048 68.086,-86.514 68.187,-86.514" style="fill-rule:nonzero;"/>
        </g>
        <g transform="matrix(1,0,0,1,509.37,481.267)">
            <path d="M0,4.949C-0.078,4.663 -0.29,4.371 -0.692,4.101C-3.146,2.454 -10.114,-4.681 -13.165,-7.445C-15.915,-9.938 -25.762,-16.775 -25.862,-16.775L-53.797,-37.715L-70.551,-16.466C-57.113,-10.717 -46.871,-7.064 -42.331,-5.258C-41.274,1.932 -39.388,11.832 -37.423,13.913C-35.483,15.967 -30.898,17.723 -26.738,19.145C-25.423,21.979 -23.563,26.332 -23.15,29.088C-22.5,33.443 -23.494,42.387 -21.818,42.526C-20.143,42.664 -18.531,41.532 -17.024,35.496C-16.301,32.609 -16.243,29.807 -16.521,27.284C-15.548,30.776 -14.783,35.154 -14.271,37.985C-13.579,41.815 -10.285,41.917 -9.38,39.397C-3.669,23.484 -11.109,3.554 -11.109,3.554C-11.109,3.554 -9.546,5.576 -6.354,6.724C-3.085,7.897 0.339,6.336 -0.008,4.945L0,4.949Z" style="fill:white;fill-rule:nonzero;stroke:black;stroke-width:1px;"/>
        </g>
        <g transform="matrix(1,0,0,1,486.047,498.948)">
            <path d="M0,-15.365C-4.81,-17.792 -13.509,-17.917 -13.509,-17.917C-13.509,-17.917 -2.498,-14.021 -0.868,-12.096C0.762,-10.171 4.132,-1.898 4.132,-1.898C4.631,-0.935 11.084,2.552 12.22,-14.122L12.218,-14.124C12.318,-14.124 4.814,-12.936 0,-15.365" style="fill-rule:nonzero;"/>
        </g>
        <g transform="matrix(1,0,0,1,455.573,466.511)">
            <path d="M0,-22.959L-9.614,1.382L-16.753,-1.709C1.09,-24.341 -0.1,-22.959 0,-22.959" style="fill-rule:nonzero;"/>
        </g>
        <g transform="matrix(0.857288,-0.514836,-0.514836,-0.857288,469.038,474.267)">
            <path d="M-2.611,-0.464C-2.611,-0.464 0.024,2.392 2.203,4.295C4.381,6.195 -1.004,5.603 -2.611,5.581C-4.219,5.558 -7.147,5.288 -7.147,5.288C-1.992,-1.248 -2.696,-0.412 -2.611,-0.464" style="fill-rule:nonzero;"/>
        </g>
        <g transform="matrix(1,0,0,1,343.772,440.088)">
            <path d="M0,-81.374C-27.271,-98.582 -50.619,-74.216 -39.699,-53.158C-39.501,-53.158 -38.023,-48.601 -30.729,-45.187C-30.729,-45.187 74.856,13.023 82.091,17.208C85.852,11.418 93.051,5.016 99.672,1.376C102.681,-0.279 104.975,-0.745 106.715,-0.596L85.564,-17.445C72.419,-27.471 10.939,-74.447 0,-81.374" style="fill:white;fill-rule:nonzero;stroke:black;stroke-width:1px;"/>
        </g>
        <g transform="matrix(0.980941,0.194305,0.194305,-0.980941,436.692,464.58)">
            <path d="M2.13,0.196C2.13,0.196 -10.501,-9.368 -12.975,-3.261C-15.448,2.846 -6.621,16.64 2.13,23.984C10.879,31.329 14.435,24.296 14.435,24.296C14.537,24.317 14.495,24.413 2.13,0.196" style="fill:white;fill-rule:nonzero;stroke:black;stroke-width:1px;"/>
        </g>
        <g transform="matrix(-1,0,0,1,282.6,747.102)">
            <path d="M-26.646,98.47L-5.303,98.47C-5.303,98.47 3.251,41.17 3.271,20.586C3.292,0 -25.439,1.495 -29.838,20.586C-29.938,20.586 -29.914,18.726 -26.646,98.47" style="fill:white;fill-rule:nonzero;stroke:black;stroke-width:1px;"/>
        </g>
        <g transform="matrix(1,0,0,1,312.437,755.543)">
            <path d="M0,12.146C0,12.146 -16.395,20.457 -32.772,20.58C-32.985,17.391 -33.106,14.521 -33.109,12.146C-33.109,-8.434 -4.401,-6.966 0,12.146" style="fill-rule:nonzero;"/>
        </g>
        <g transform="matrix(-0.0374871,0.999297,0.999297,0.0374871,315.874,840.595)">
            <path d="M-33.752,-6.437L5.222,-6.437L6.022,-27.766C6.022,-27.766 -12.444,-30.921 -32.719,-33.969L-33.752,-6.437Z" style="fill:white;fill-rule:nonzero;stroke:black;stroke-width:1px;"/>
        </g>
        <g transform="matrix(-1,0,0,1,172.904,747.96)">
            <path d="M14.199,97.896L35.542,97.896C35.542,97.896 23.022,41.168 14.909,20.584C6.796,0 -21.343,1.494 -18.199,20.584C-18.3,20.584 -18.488,19.897 14.199,97.896" style="fill:white;fill-rule:nonzero;stroke:black;stroke-width:1px;"/>
        </g>
        <g transform="matrix(1,0,0,1,191.103,756.401)">
            <path d="M0,12.143C0,12.143 -19.678,20.454 -36.103,20.576C-35.055,17.388 -34.045,14.518 -33.109,12.143C-25.001,-8.433 3.148,-6.961 0,12.143" style="fill-rule:nonzero;"/>
        </g>
        <g transform="matrix(-0.385651,0.922645,0.922645,0.385651,166.884,851.248)">
            <path d="M-44.031,-9.626L-1.821,-9.626L6.41,-29.318C6.41,-29.318 -12.113,-33.167 -33.13,-35.704L-44.031,-9.626Z" style="fill:white;fill-rule:nonzero;stroke:black;stroke-width:1px;"/>
        </g>
        <g transform="matrix(1,0,0,1,223.246,768.858)">
            <path d="M0,-282.205C-11.792,-274.342 -41.201,-243.507 -35.724,-176.635C-38.352,-141.441 -44.923,-109.115 -45.808,-103.218C-61.18,-59.936 -63.992,-34.546 -64.848,-19.028C-76.662,-6.714 -66.542,0 -65.251,-0.314L-32.142,-0.314C-28.727,-0.314 -16.954,-5.869 -24.229,-18.209C-16.501,-36.464 -3.745,-58.24 4.521,-76.041C10.556,-89.043 14.154,-110.122 14.154,-110.122L28.826,-170.415L38.408,-102.24C41.052,-58.631 47.316,-29.976 51.71,-14.459C44.063,-2.145 55.235,0 56.42,-0.314L89.529,-0.314C90.298,-0.186 97.423,-5.087 90.839,-15.466C93.126,-42.361 97.547,-96.469 96.904,-105.49C95.761,-121.472 83.567,-282.205 83.567,-282.205L0,-282.205Z" style="fill:white;fill-rule:nonzero;stroke:black;stroke-width:1px;"/>
        </g>
        <g transform="matrix(1,0,0,1,206.484,768.544)">
            <path d="M0,-264.386C-0.446,-263.739 -0.892,-263.082 -1.335,-262.399C3.161,-260.448 8.683,-258.577 15.426,-257.053C10.959,-251.679 2.507,-247.351 -9.126,-247.832C-9.455,-247.075 -9.778,-246.299 -10.099,-245.513C-6.409,-245.301 -3.12,-245.537 -0.212,-246.048L-19.211,-179.74C-18.922,-175.339 -18.91,-177.044 -19.107,-174.511L-17.913,-175.701L2.404,-246.616C9.502,-248.45 15.023,-252.385 17.977,-256.504C45.047,-250.994 74.959,-253.974 102.023,-259.521C101.981,-260.075 101.88,-261.417 101.84,-261.918C70.157,-255.403 29.697,-251.68 -0.003,-264.386L0,-264.386ZM57.429,-165.266L55.106,-164.852C55.927,-160.273 76.881,-43.449 78.185,-38.903C79.26,-35.118 80.872,-3.966 81.077,0L83.444,0C81.339,-40.4 80.842,-37.188 79.126,-46.12C75.432,-65.407 57.329,-165.266 57.429,-165.266" style="fill-rule:nonzero;"/>
        </g>
        <g transform="matrix(1,0,0,1,266.031,645.431)">
            <path d="M0,-99.088C0,-99.088 5.84,-96.516 5.84,-86.812C5.84,-77.107 4.984,-22.877 -1.866,-8.32C-3.901,-3.999 -5.65,-0.753 -7.115,1.702L-13.959,-46.988C0.456,-100.79 -0.1,-99.088 0,-99.088" style="fill-rule:nonzero;"/>
        </g>
        <g transform="matrix(-0.434436,0.900703,0.900703,0.434436,307.357,831.572)">
            <path d="M11.791,-17.476C11.139,-9.525 8.49,2.061 7.572,5.939L11.791,7.782L21.063,-11.442C11.048,-18.01 11.747,-17.386 11.791,-17.476" style="fill-rule:nonzero;"/>
        </g>
        <g transform="matrix(1,0,0,1,297.403,840.389)">
            <path d="M0,11.422C6.319,9.729 4.473,-0.062 4.473,-0.062C-16.933,-2.544 -14.125,3.057 -14.125,13.966C-13.347,13.966 -5.288,12.832 0,11.422" style="fill:white;fill-rule:nonzero;stroke:black;stroke-width:1px;"/>
        </g>
        <g transform="matrix(1,0,0,1,279.436,833.756)">
            <path d="M0,45.103C-4.745,36.88 -2.615,29.79 3.842,20.598C15.941,19.496 20.514,17.314 22.44,6.57L27.82,6.57C27.82,6.57 34.991,0 38.731,11.414C42.471,22.828 69.44,24.844 79.906,30.791C91.737,37.51 91.723,45.103 82.834,45.103L0,45.103Z" style="fill:white;fill-rule:nonzero;stroke:black;stroke-width:1px;"/>
        </g>
        <g transform="matrix(1,0,0,1,287.536,872.439)">
            <path d="M0,-4.646C4.591,-0.054 13.218,-0.81 13.218,-0.81L80.038,-0.81C82.509,3.247 80.479,6.42 74.734,6.42L-8.1,6.42C-11.569,0.411 -11.351,-5 -8.465,-11.066C-8.344,-11.066 -3.585,-8.229 0,-4.646" style="fill:white;fill-rule:nonzero;stroke:black;stroke-width:1px;"/>
        </g>
        <g transform="matrix(1,0,0,1,335.985,858.67)">
            <path d="M0,-12.098C0.659,-10.002 -0.216,-5.205 -1.651,-2.204C-2.337,-2.425 -3.626,-3.016 -3.591,-3.086C-2.274,-5.86 -1.579,-9.994 -2.04,-11.46C-2.523,-13.004 -3.675,-13.863 -5.063,-14.438C-10.324,-16.619 -13.725,-9.167 -13.749,-9.105C-13.749,-9.105 -15.851,-3.859 -18.963,0.371C-21.152,3.353 -24.355,6.511 -27.908,5.436C-30.925,4.542 -34.19,0.154 -33.396,-4.678C-32.148,-12.292 -22.58,-17.294 -15.129,-11.294C-11.46,-18.609 -1.998,-18.471 0,-12.098M-22.288,-11.901C-26.646,-11.901 -30.625,-8.39 -31.29,-4.331C-31.91,-0.577 -29.273,2.817 -27.301,3.388C-22.951,4.701 -17.897,-4.957 -16.123,-9.192C-17.838,-10.712 -19.986,-11.901 -22.288,-11.901" style="fill-rule:nonzero;"/>
        </g>
        <g transform="matrix(1,0,0,1,331.113,856.436)">
            <path d="M0,-5.941C0.587,-5.886 1.017,-5.366 0.96,-4.775C1.06,-4.775 0.731,-3.726 -0.204,-3.814C-1.812,-3.975 -3.174,-2.92 -3.174,-0.743C-3.174,-0.152 -3.652,0.329 -4.241,0.329C-4.832,0.329 -5.309,-0.152 -5.309,-0.743C-5.309,-2.444 -4.691,-3.862 -3.683,-4.775C-2.02,-6.27 0.1,-5.941 0,-5.941" style="fill-rule:nonzero;"/>
        </g>
        <g transform="matrix(1,0,0,1,338.151,860.462)">
            <path d="M0,-5.926C0.586,-5.871 1.016,-5.352 0.959,-4.761C1.059,-4.761 0.723,-3.712 -0.205,-3.799C-1.819,-3.96 -3.17,-2.896 -3.17,-0.728C-3.17,-0.368 -3.453,0.344 -4.238,0.344C-4.829,0.344 -5.306,-0.137 -5.307,-0.728C-5.206,-0.728 -5.546,-3.082 -3.68,-4.761C-2.016,-6.27 0.101,-5.926 0,-5.926" style="fill-rule:nonzero;"/>
        </g>
        <g transform="matrix(1,0,0,1,137.362,813.708)">
            <path d="M0,32.147L21.343,32.147L25.709,21.703C19.243,18.63 11.259,6.295 7.495,0C7.596,0 3.241,15.418 0,32.147" style="fill-rule:nonzero;"/>
        </g>
        <g transform="matrix(1,0,0,1,141.703,817.197)">
            <path d="M0,16.741C5.308,19.104 9.509,11.322 9.509,11.322C-3.872,-2.363 -5.068,3.069 -11.169,10.597C-11.069,10.597 -5.724,14.185 0,16.741" style="fill:white;fill-rule:nonzero;stroke:black;stroke-width:1px;"/>
        </g>
        <g transform="matrix(1,0,0,1,130.535,878.859)">
            <path d="M0,-51.073C8.963,-45.063 13.338,-44.008 20.677,-50.341L31.211,-41.802C31.211,-41.802 42.544,-45.662 38.738,-35.698C36.997,-31.136 39.196,-24.505 42.411,-17.715C46.795,-15.919 50.823,-14.272 53.571,-12.713C64.08,-6.75 64.066,0 56.17,0L29.048,-1.425L-10.805,-32.728C-9.48,-41.053 -5.028,-49.143 0,-51.065L0,-51.073Z" style="fill:white;fill-rule:nonzero;stroke:black;stroke-width:1px;"/>
        </g>
        <g transform="matrix(1,0,0,1,178.81,841.732)">
            <path d="M0,10.031C-0.565,12.158 -3.874,15.75 -6.689,17.507C-7.154,16.964 -7.651,15.632 -7.58,15.585C-4.984,13.946 -2.463,10.976 -2.066,9.488C-1.651,7.928 -2.163,6.582 -3.028,5.352C-6.303,0.689 -13.165,5.172 -13.217,5.211C-13.217,5.211 -17.802,8.519 -22.696,10.426C-26.146,11.78 -30.521,12.72 -32.962,9.922C-35.043,7.531 -35.432,2.084 -32.184,-1.564C-26.923,-7.476 -16.229,-6.271 -13.214,2.627C-6.049,-1.69 1.674,3.76 0,10.031M-18.935,-1.721C-24.414,-5.222 -33.33,-1.658 -32.355,5.912C-32.192,7.172 -31.822,7.983 -31.355,8.511C-28.37,11.94 -18.961,6.523 -15.176,3.864C-15.936,1.249 -17.247,-0.642 -18.935,-1.721" style="fill-rule:nonzero;"/>
        </g>
        <g transform="matrix(1,0,0,1,124.556,878.859)">
            <path d="M0,-45.606C1.509,-42.841 3.219,-39.462 3.459,-37.178C4.057,-31.436 8.371,-29.373 8.371,-29.373L36.671,-6.426L66.862,-6.426C69.057,-2.819 67.252,0 62.149,0L40.153,0C36.785,0 34.003,-0.535 31.82,-2.15L-4.826,-32.728C-4.072,-37.461 -2.306,-42.117 0,-45.606" style="fill:white;fill-rule:nonzero;stroke:black;stroke-width:1px;"/>
        </g>
        <g transform="matrix(1,0,0,1,172.95,854.462)">
            <path d="M0,-1.525C0.709,-0.974 0.3,-0.02 0.187,-0.02C-0.175,0.445 -0.844,0.524 -1.311,0.169C-2.583,-0.821 -4.302,-0.667 -5.464,1.177C-5.779,1.673 -6.439,1.823 -6.938,1.508C-7.437,1.193 -7.584,0.532 -7.269,0.035L-7.269,0.027C-5.491,-2.777 -2.368,-3.348 0.001,-1.525L0,-1.525Z" style="fill-rule:nonzero;"/>
        </g>
        <g transform="matrix(1,0,0,1,177.663,861.162)">
            <path d="M0,-1.971C0.703,-1.425 0.302,-0.475 0.186,-0.475C-0.176,-0.01 -0.845,0.077 -1.311,-0.285C-2.573,-1.268 -4.285,-1.129 -5.462,0.722C-5.777,1.226 -6.437,1.369 -6.936,1.053C-7.435,0.738 -7.582,0.077 -7.267,-0.419C-7.167,-0.419 -6.168,-2.54 -3.732,-2.956C-1.479,-3.34 -0.1,-1.971 0,-1.971" style="fill-rule:nonzero;"/>
        </g>
        <g transform="matrix(0.806148,-0.591713,-0.591713,-0.806148,286.229,749.876)">
            <path d="M-5.65,-1.463C-5.65,-1.463 -3.72,-1.317 -5.104,3.14C-6.488,7.597 -5.65,18.114 -5.65,18.114L-11.764,3.026L-5.65,-1.463Z" style="fill-rule:nonzero;"/>
        </g>
        <g transform="matrix(-1,0,0,1,188.735,732.865)">
            <path d="M-10.281,17.783L7.651,17.783C7.651,17.783 8.494,14.948 2.587,13.471C-3.321,11.994 -18.775,-0.375 -18.775,-0.375C-10.106,18.158 -10.181,17.783 -10.281,17.783" style="fill-rule:nonzero;"/>
        </g>
        <g transform="matrix(1,0,0,1,191.596,462.826)">
            <path d="M0,-95.212C19.717,-120.868 50.032,-105.847 47,-82.445C46.501,-78.876 44.726,-75.29 41.336,-71.867C41.336,-71.867 -37.647,19.23 -42.992,25.656C-48.52,21.521 -57.487,18 -64.957,16.87C-68.354,16.357 -70.667,16.711 -72.249,17.453L-58.22,-5.666C-15.137,-73.394 -2.359,-92.264 -2.186,-92.264C-2.085,-92.264 -2.616,-91.796 0,-95.212" style="fill:white;fill-rule:nonzero;stroke:black;stroke-width:1px;"/>
        </g>
        <g transform="matrix(1,0,0,1,49.5825,503.01)">
            <path d="M0,47.117C-0.067,46.543 0.216,45.653 0.912,45.076C2.979,43.36 12.047,35.639 13.529,34.555C15.011,33.471 24.25,22.51 24.25,22.51C24.25,22.51 21.415,22.022 17.634,21.222C13.849,20.424 10.506,15.8 13.34,15.387C16.174,14.973 26.838,14.897 30.66,13.762C34.483,12.626 45.666,10.932 45.666,10.932L66.394,-17.166L88.554,-1.635C74.244,12.287 58.903,22.449 58.252,23.061C54.949,28.32 47.539,39.684 43.617,42.212C41.261,47.136 38.449,53.471 36.914,56.029C32.62,63.18 28.95,60.243 29.564,57.598C29.795,56.617 30.618,53.344 31.528,49.747C29.47,53.018 27.487,56.153 26.269,57.708C21.108,64.283 17.837,60.883 18.781,58.351C19.145,57.373 20.438,54.049 21.851,50.432C18.475,53.136 15.083,55.865 13.23,57.054C6.179,61.585 4.232,57.263 5.949,55.205C6.877,54.08 10.75,49.535 14.352,45.336C11.966,46.412 9.554,47.513 7.726,48.251C2.623,50.31 0.398,49.047 0.051,47.436C0.018,47.333 0.006,47.226 -0.005,47.118L0,47.117Z" style="fill:white;fill-rule:nonzero;stroke:black;stroke-width:1px;"/>
        </g>
        <g transform="matrix(1,0,0,1,97.8623,537.989)">
            <path d="M0,-7.161C1.926,-10.152 -5.774,-9.329 -10.602,-8.756C-15.426,-8.182 -24.031,-12.47 -24.031,-12.47C-26.012,-0.012 -8.034,5.309 0,-7.161" style="fill-rule:nonzero;"/>
        </g>
        <g transform="matrix(1,0,0,1,78.313,554.196)">
            <path d="M0,-8.199C0,-8.199 -0.775,-1.897 -6.883,-0.754C-6.783,-0.754 -7.58,0 0,-8.199" style="fill-rule:nonzero;"/>
        </g>
        <g transform="matrix(1,0,0,1,81.1069,546.508)">
            <path d="M0,6.25L2.006,0C2.006,0 4.398,2.997 0,6.25" style="fill-rule:nonzero;"/>
        </g>
        <g transform="matrix(1,0,0,1,70.6606,549.016)">
            <path d="M0,-6.712C0,-6.712 2.619,-2.36 -6.73,-0.671C-6.631,-0.671 -7.479,0 0,-6.712" style="fill-rule:nonzero;"/>
        </g>
        <g transform="matrix(-0.586796,0.809735,0.809735,0.586796,107.425,516.879)">
            <path d="M-2.022,-11.585L4.769,-11.585L3.721,0.041C3.721,0.041 3.574,2.195 1.963,0.628C0.644,-0.651 -2.038,-7.465 -2.022,-11.585" style="fill-rule:nonzero;"/>
        </g>
        <g transform="matrix(1,0,0,1,115.974,506.317)">
            <path d="M0,-20.47L16.92,0L22.159,-4.941C8.494,-14.517 -0.122,-20.47 0,-20.47" style="fill-rule:nonzero;"/>
        </g>
        <g transform="matrix(0.883546,-0.468345,-0.468345,-0.883546,142.95,498.423)">
            <path d="M-5.637,-0.354C-5.637,-0.354 8.995,-8.341 11.093,-2.094C13.192,4.151 3.542,17.384 -5.637,24.184C-10.164,27.537 -15.314,28.702 -17.941,23.747C-17.852,23.7 -18.813,25.454 -5.637,-0.354" style="fill:white;fill-rule:nonzero;stroke:black;stroke-width:1px;"/>
        </g>
        <g transform="matrix(1,0,0,1,318.527,303.795)">
            <path d="M0,-18.07C28.677,35.318 -24.825,25.12 -24.825,25.12C-24.825,25.12 -19.577,-50.159 -5.046,-53.388C-4.944,-53.388 -7.147,-31.374 0,-18.07" style="fill-rule:nonzero;"/>
        </g>
        <g transform="matrix(-0.17267,-0.98498,-0.98498,0.17267,240.54,449.222)">
            <path d="M-42.219,-56.429C-42.314,-56.842 -59.166,-63.9 -58.912,-56.845C-57.493,-17.419 -55.636,1.97 -42.219,38.376C-39.929,44.594 -25.246,26.887 -25.33,26.47C-25.482,25.708 -42.242,-56.532 -42.219,-56.429" style="fill-rule:nonzero;"/>
        </g>
        <g transform="matrix(1,0,0,1,263.741,494.156)">
            <path d="M0,-157.86L-63.252,-134.651C-63.252,-134.651 -38.403,-66.558 -40.757,-34.763C-44.019,-18.733 -54.101,-11.649 -47.765,-7.504C-11.474,-2.991 2.835,0 43.072,-7.504C51.019,-26.337 47.229,-28.044 49.086,-40.386C49.086,-40.386 71.943,-128.332 73.229,-134.65C66.594,-138.989 36.214,-156.736 36.214,-156.736C16.42,-157.35 -0.125,-157.86 0,-157.86" style="fill:white;fill-rule:nonzero;stroke:black;stroke-width:1px;"/>
        </g>
        <g transform="matrix(1,0,0,1,263.741,383.41)">
            <path d="M0,-47.114L36.216,-45.99C36.216,-45.99 47.636,-39.304 58.057,-33.109C44.359,-11.296 31.791,-1.149 25.623,-0.215C19.443,0.72 -12.852,-14.326 -29.089,-36.439C1.963,-47.834 -0.1,-47.114 0,-47.114" style="fill:white;fill-rule:nonzero;stroke:black;stroke-width:1px;"/>
        </g>
        <g transform="matrix(1,0,0,1,239.932,452.213)">
            <path d="M0,12.611C-6.4,14.414 -13.882,15.125 -19.397,15.413C-18.441,12.966 -17.57,10.237 -16.948,7.181C-16.864,6.054 -16.821,4.877 -16.803,3.663C-7.099,3.366 7.033,2.04 16.406,-2.802C16.506,-2.802 11.494,9.375 0,12.611" style="fill-rule:nonzero;"/>
        </g>
        <g transform="matrix(1,0,0,1,261.959,376.905)">
            <path d="M0,39.969C-4.733,71.651 -0.312,80.784 -16.016,82.211C-22.909,82.838 -29.32,83.245 -34.374,83.068C-40.83,82.843 -54.455,83.921 -47.271,66.643C-50.338,49.851 -56.188,21.277 -59.331,13.14C-63.631,2.009 -66.307,-10.833 -61.471,-17.399C-56.632,-23.964 -2.366,-40.25 6.019,-43.952C6.119,-43.952 4.603,9.167 0,39.969" style="fill:white;fill-rule:nonzero;stroke:black;stroke-width:1px;"/>
        </g>
        <g transform="matrix(-0.027847,0.999612,0.999612,0.027847,321.491,312.639)">
            <path d="M-20.013,-52.128L20.961,-52.128C51.582,-51.275 50.534,-18.326 25.321,-19.029L-3.186,-25.819C-19.453,-51.252 -20.01,-52.243 -20.013,-52.128" style="fill:white;fill-rule:nonzero;stroke:black;stroke-width:1px;"/>
        </g>
        <g transform="matrix(1,0,0,1,295.77,310.771)">
            <path d="M0,-2.037L2.634,10.575C-2.526,10.994 -9.854,10.553 -15.559,6.09C-25.406,-1.618 -16.169,-13.031 -16.169,-13.031L-16.166,-13.021C-16.063,-13.021 -0.125,-2.037 0,-2.037" style="fill-rule:nonzero;"/>
        </g>
        <g transform="matrix(1,0,0,1,306.77,251.368)">
            <path d="M0,45.523C0,45.523 -2.941,61.578 -14.924,61.578C-23.415,61.578 -36.83,45.666 -36.972,37.389C-37.115,29.111 -36.972,15.803 -36.972,2.857C-36.972,-10.088 5.039,-16.055 3.351,4.569C3.451,4.569 3.44,3.479 0,45.523" style="fill:white;fill-rule:nonzero;stroke:black;stroke-width:1px;"/>
        </g>
        <g transform="matrix(1,0,0,1,299.679,279.633)">
            <path d="M0,-29.542C0,-29.542 -4.853,-4.711 -16.269,2.283C-27.686,9.275 -34.108,3.425 -34.108,3.425L-26.401,9.846C-26.401,9.846 -8.991,9.133 -1.999,-12.273C4.994,-33.68 -1,-39.388 -1,-39.388L0,-29.542Z" style="fill-rule:nonzero;"/>
        </g>
        <g transform="matrix(1,0,0,1,298.673,444.971)">
            <path d="M0,-87.892C-2.675,-41.431 -4.644,-14.58 -3.919,5.011C-3.919,5.011 10.082,-65.202 9.213,-78.474C8.271,-92.903 2.49,-87.892 0,-87.892" style="fill-rule:nonzero;"/>
        </g>
        <g transform="matrix(1,0,0,1,339.259,441.566)">
            <path d="M0,-85.001C1.257,-82.781 -10.88,-24.827 -17.134,-1.757C-18.272,2.443 -14.557,4.986 -16.282,8.644C-21.231,19.145 -40.108,15.909 -43.494,14.698C-46.88,13.487 -46.175,8.038 -44.739,0.974C-43.3,-6.088 -32.304,-80.964 -33.374,-86.615C-34.355,-91.795 -39.204,-104.146 -39.305,-104.146C-39.205,-104.146 -1.461,-87.585 0,-85.001" style="fill:white;fill-rule:nonzero;stroke:black;stroke-width:1px;"/>
        </g>
        <g transform="matrix(1,0,0,1,291.791,357.052)">
            <path d="M0,-16.412C11.216,-15.695 6.749,-25.675 8.217,-28.042C8.217,-28.042 15.563,-31.182 21.714,-27.044C27.865,-22.905 21.398,-18.481 22.988,-15.769C24.578,-13.058 28.937,-2.925 7.585,5.923C-13.766,14.77 -34.513,5.923 -40.335,-2.64C-46.156,-11.203 -43.215,-20.05 -41.175,-23.762C-39.135,-27.472 -23.148,-27.044 -23.148,-27.044L-23.813,-24.1C-23.545,-24.1 -12.072,-16.486 0,-16.412" style="fill:white;fill-rule:nonzero;stroke:black;stroke-width:1px;"/>
        </g>
        <g transform="matrix(1,0,0,1,274.976,348.671)">
            <path d="M0,8.902C1.689,16.471 8.899,15.26 15.262,13.747C18.539,12.966 19.654,14.357 19.972,15.887C9.888,18.97 0.169,18.333 -7.65,15.91C-10.59,4.186 4.365,-9.592 4.365,-10.068C4.465,-10.068 -1.717,1.212 0,8.902" style="fill:rgb(204,222,242);fill-rule:nonzero;"/>
        </g>
        <g transform="matrix(1,0,0,1,283.416,395.082)">
            <path d="M0,-55.369C0,-55.369 -10.76,-55.083 -13.734,-36.96C-16.708,-18.836 -11.593,-4.708 -14.042,2.427C-16.494,9.564 -16.404,8.422 -16.404,8.422C-16.404,8.422 -23.377,11.132 -31.337,10.277C-39.297,9.42 -43.622,5.425 -43.622,5.425C-43.622,5.425 -37.986,1.571 -37.806,-9.132C-37.626,-19.835 -38.792,-37.246 -32.642,-49.946C-26.489,-62.647 -14.717,-66.501 -7.249,-63.932C0.221,-61.363 7.843,-54.429 7.843,-54.429C4.867,-54.349 2.594,-55.033 0,-55.369" style="fill:white;fill-rule:nonzero;stroke:black;stroke-width:1px;"/>
        </g>
        <g transform="matrix(1,0,0,1,287.549,336.252)">
            <path d="M0,-106.995C0,-106.995 -0.4,-106.38 -0.957,-105.5C4.253,-106.734 10.147,-105.359 16.411,-99.289C16.411,-99.289 24.722,-108.448 31.18,-104.614C37.638,-100.779 25.934,-85.845 25.934,-85.845L22.572,-80.314C22.572,-83.428 21.56,-90.104 14.832,-86.248C9.037,-82.926 3.51,-52.795 -15.331,-59.207C-15.544,-54.671 -15.365,-50.057 -14.271,-46.773C-11.274,-37.782 -2.998,-19.383 -11.845,-8.965C-20.693,1.453 -45.239,-2.972 -50.519,-15.101C-55.799,-27.231 -38.818,-44.204 -39.815,-56.477C-40.816,-68.749 -45.811,-85.733 -33.396,-98.006C-25.636,-105.676 -14.532,-107.27 -7.294,-107.388C-7.194,-107.338 -3.167,-107.493 0,-106.995" style="fill-rule:nonzero;"/>
        </g>
        <g transform="matrix(0.453764,0.891122,0.891122,-0.453764,259.536,237.214)">
            <path d="M19.935,-3.699C19.935,-3.699 4.284,11.798 8.212,25.172C11.42,36.096 19.935,39.7 19.935,39.7C19.935,39.7 9.227,38.79 3.255,25.174C-2.716,11.559 11.135,-13.476 19.935,-3.699" style="fill-rule:nonzero;"/>
        </g>
        <g transform="matrix(-0.974926,-0.22253,-0.22253,0.974926,301.265,346.471)">
            <path d="M-11.489,-10.12C-11.327,-7.777 -12.445,-8.372 -13.904,-5.302C-13.171,-4.463 -12.362,-3.674 -11.489,-3.033C-7.6,-0.18 0.29,0.793 -6.892,-4.986C-9.218,-6.859 -10.63,-8.605 -11.489,-10.12" style="fill-rule:nonzero;"/>
        </g>
        <g transform="matrix(0,1,1,0,254.577,413.135)">
            <path d="M1.554,-1.555C2.412,-1.73 3.108,-1.175 3.108,-0.317C3.108,0.543 2.412,1.379 1.554,1.553C0.696,1.729 0.001,1.174 0.001,0.317C0.001,-0.543 0.696,-1.38 1.554,-1.555" style="fill-rule:nonzero;"/>
        </g>
        <g transform="matrix(0,1,1,0,253.394,428.877)">
            <path d="M1.554,-1.555C2.413,-1.728 3.108,-1.177 3.108,-0.318C3.108,0.54 2.412,1.377 1.554,1.551C0.696,1.727 0.001,1.173 0.001,0.314C0.001,-0.544 0.696,-1.382 1.554,-1.555" style="fill-rule:nonzero;"/>
        </g>
        <g transform="matrix(0,1,1,0,251.682,445.224)">
            <path d="M1.553,-1.555C2.412,-1.729 3.107,-1.177 3.107,-0.318C3.107,0.54 2.412,1.378 1.553,1.551C0.696,1.727 0.001,1.173 0.001,0.314C0.001,-0.544 0.696,-1.381 1.553,-1.555" style="fill-rule:nonzero;"/>
        </g>
        <g transform="matrix(1,0,0,1,666.073,839.871)">
            <path d="M0,-20.838L-3.85,-1.294C-13.653,3.133 -27.158,2.55 -35.019,-1.294L-34.619,-20.838L-17.789,-23.971C1.573,-20.562 -0.101,-20.838 0,-20.838" style="fill:white;fill-rule:nonzero;stroke:black;stroke-width:1px;"/>
        </g>
        <g transform="matrix(-0.983121,0.182955,0.182955,0.983121,650.339,827.777)">
            <path d="M-0.153,-12.051L16.966,-12.051C16.966,-12.051 -1.19,0.414 -13.971,2.072L-17.068,-5.717C-3.544,-10.781 -0.014,-12.077 -0.153,-12.051" style="fill-rule:nonzero;"/>
        </g>
        <g transform="matrix(1,0,0,1,653.856,838.648)">
            <path d="M0,11.925C-6.608,10.161 -4.679,-0.071 -4.679,-0.071C17.7,-2.663 14.766,3.19 14.766,14.588C15.139,14.588 7.173,13.85 0,11.925" style="fill:white;fill-rule:nonzero;stroke:black;stroke-width:1px;"/>
        </g>
        <g transform="matrix(1,0,0,1,672.638,826.641)">
            <path d="M0,52.218C4.96,43.624 2.733,36.212 -4.016,26.595C-16.666,25.445 -21.446,23.16 -23.46,11.936L-39.423,11.936C-39.423,11.936 -46.919,0 -50.829,11.936C-54.739,23.869 -82.933,31.037 -93.875,37.252C-106.243,44.279 -106.228,52.218 -96.936,52.218L0,52.218Z" style="fill:white;fill-rule:nonzero;stroke:black;stroke-width:1px;"/>
        </g>
        <g transform="matrix(1,0,0,1,598.913,857.36)">
            <path d="M0,-13.285C-0.686,-11.096 0.227,-6.078 1.726,-2.942C2.444,-3.171 3.792,-3.785 3.755,-3.864C2.378,-6.763 1.651,-11.079 2.133,-12.615C2.638,-14.23 3.843,-15.128 5.294,-15.734C10.794,-18.012 14.348,-10.221 14.374,-10.158C16.863,-4.116 22.813,6.937 29.176,5.053C32.333,4.117 35.742,-0.489 34.915,-5.534C33.571,-13.687 23.46,-18.604 15.817,-12.442C11.918,-20.222 2.045,-19.806 0,-13.285M23.302,-13.08C27.871,-13.08 32.019,-9.397 32.712,-5.172C33.368,-1.186 30.577,2.302 28.543,2.91C23.963,4.23 18.718,-5.798 16.855,-10.252C20.397,-13.388 23.401,-13.08 23.302,-13.08" style="fill-rule:nonzero;"/>
        </g>
        <g transform="matrix(1,0,0,1,664.17,872.147)">
            <path d="M0,-4.858C-4.8,-0.053 -13.818,-0.849 -13.818,-0.849L-94.014,-0.849C-96.597,3.397 -94.473,6.712 -88.468,6.712L8.468,6.712C12.096,0.427 11.866,-5.229 8.85,-11.57C9.088,-11.57 4.503,-9.36 0,-4.858" style="fill-rule:nonzero;"/>
        </g>
        <g transform="matrix(1,0,0,1,604.007,854.445)">
            <path d="M0,-6.274C-0.614,-6.211 -1.063,-5.667 -1.003,-5.052C-0.943,-4.438 -0.398,-3.989 0.214,-4.045C1.895,-4.205 3.319,-3.111 3.319,-0.831C3.319,-0.216 3.818,0.288 4.436,0.288C5.053,0.288 5.552,-0.216 5.552,-0.831C5.552,-4.418 2.99,-6.562 0,-6.274" style="fill-rule:nonzero;"/>
        </g>
        <g transform="matrix(1,0,0,1,596.65,858.603)">
            <path d="M0,-6.209C-0.614,-6.147 -1.063,-5.603 -1.004,-4.988C-0.943,-4.374 -0.4,-3.925 0.213,-3.98C1.884,-4.139 3.313,-3.051 3.313,-0.767C3.313,-0.152 3.813,0.345 4.431,0.345C5.047,0.345 5.548,-0.152 5.548,-0.767C5.548,-2.555 4.9,-4.035 3.846,-4.988C2.101,-6.554 -0.101,-6.209 0,-6.209" style="fill-rule:nonzero;"/>
        </g>
        <g transform="matrix(1,0,0,1,737.346,813.114)">
            <path d="M0,25.463L32.522,25.463L34.821,5.919C13.843,0 -2.663,5.919 -3.627,5.919C-3.526,5.919 -3.844,4.752 0,25.463" style="fill:white;fill-rule:nonzero;stroke:black;stroke-width:1px;"/>
        </g>
        <g transform="matrix(1,0,0,1,756.702,808.923)">
            <path d="M0,-233.424C0,-233.424 -85.113,-210.134 -113.232,-189.667C-128.609,-178.475 -132.979,-166.288 -132.979,-145.39C-132.477,-118.124 -128.776,-48.044 -129.548,-12.122C-141.301,2.014 -126.123,10.16 -125.241,10.11L-90.629,10.11C-85.252,4.731 -74.297,4.79 -80.241,-17.392C-73.728,-36.653 -65.078,-102.039 -73.123,-136.076C-68.401,-140.627 -62.263,-143.276 -60.854,-145.074C-58.241,-109.169 -34.709,-46.42 -28.346,-12.062C-35.367,-3.618 -31.618,3.805 -22.976,10.11L15.465,10.11C24.465,2.135 20.158,-11.534 19.319,-12.837C24.951,-49.396 11.831,-124.155 2.783,-139.271C12.622,-141.238 103.442,-160.92 112.966,-178.028C123.166,-196.335 119.677,-219.32 115.494,-234.282C112.889,-243.584 -0.233,-233.424 0,-233.424" style="fill:white;fill-rule:nonzero;stroke:black;stroke-width:1px;"/>
        </g>
        <g transform="matrix(1,0,0,1,770.004,836.745)">
            <path d="M0,16.089C6.772,-2.878 -3.871,-0.018 -13.714,1.832C-13.714,1.832 -11.813,15.404 -7.039,17.2C-2.321,18.967 0.1,16.089 0,16.089" style="fill:white;fill-rule:nonzero;stroke:black;stroke-width:1px;"/>
        </g>
        <g transform="matrix(1,0,0,1,771.306,814.664)">
            <path d="M0,11.669L0.849,4.37C-11.434,0.885 -24.112,0 -37.593,4.37C-37.418,4.345 -11.471,11.02 0,11.669" style="fill-rule:nonzero;"/>
        </g>
        <g transform="matrix(1,0,0,1,741.613,878.803)">
            <path d="M0,-45.401C-5.459,-45.457 -6.845,-40.226 -6.845,-40.226C-5.802,-30.175 -23.594,-13.011 -25.388,-10.688C-30.46,-4.119 -26.58,0.056 -26.58,0.056L38.308,0.056C40.479,-10.317 33.348,-23.102 28.391,-25.969C19.437,-23.566 14.677,-40.226 14.677,-40.226L8.137,-40.226C7.187,-42.883 3.929,-45.401 0,-45.401" style="fill:white;fill-rule:nonzero;stroke:black;stroke-width:1px;"/>
        </g>
        <g transform="matrix(1,0,0,1,776.769,878.859)">
            <path d="M0,-17.651L-7.537,-7.561L-53.617,-7.561C-54.98,-5.103 -56.283,-2.598 -57.401,0L3.152,0C4.376,-5.86 2.638,-12.476 0,-17.651" style="fill-rule:nonzero;"/>
        </g>
        <g transform="matrix(1,0,0,1,714.335,878.86)">
            <path d="M0,-7.562C-1.951,-2.859 0.698,0 0.698,0L33.669,0C33.669,0 38.145,0 33.818,-5.671C33.335,-6.301 32.614,-6.94 31.729,-7.562L0,-7.562Z" style="fill-rule:nonzero;"/>
        </g>
        <g transform="matrix(1,0,0,1,743.723,862.313)">
            <path d="M0,-19.947C-2.834,-18.813 -4.973,-17.017 -4.973,-17.017C-5.42,-16.639 -5.502,-15.985 -5.16,-15.505C-5.16,-15.505 0.986,-6.887 5.263,-3.224C10.656,1.402 15.184,-12.263 9.484,-18.506C6.952,-21.263 3.504,-21.349 0,-19.947M4.557,-18.593C9.15,-18.26 10.583,-12.33 9.532,-7.927C9.288,-6.906 8.433,-4.622 7.435,-4.571C5.891,-4.571 -1.686,-14.589 -2.613,-15.843C-2.018,-16.301 -1.088,-17.111 0.827,-17.876C3.168,-18.801 4.656,-18.585 4.557,-18.593" style="fill-rule:nonzero;"/>
        </g>
        <g transform="matrix(1,0,0,1,730.508,859.708)">
            <path d="M0,-18.216C-10.051,-17.507 -8.658,0.204 -2.76,0.263C-1.979,0.263 -1.21,-0.06 -0.559,-0.619C3.719,-4.282 9.865,-12.9 9.865,-12.9C10.206,-13.38 10.125,-14.034 9.677,-14.412C9.677,-14.412 7.539,-16.208 4.705,-17.342C1.866,-18.479 -0.1,-18.216 0,-18.216M3.878,-15.271C5.793,-14.506 6.723,-13.695 7.317,-13.238C6.404,-12.002 -1.183,-1.966 -2.729,-1.966C-3.736,-2.018 -4.578,-4.28 -4.827,-5.322C-5.882,-9.745 -4.415,-15.687 0.148,-15.987C1.395,-16.07 2.729,-15.733 3.878,-15.271" style="fill-rule:nonzero;"/>
        </g>
        <g transform="matrix(1,0,0,1,735.336,855.161)">
            <path d="M0,-0.421C-0.421,0.036 -0.396,0.737 0.055,1.163L0.056,1.163C0.507,1.58 1.211,1.557 1.632,1.107C2.772,-0.113 4.561,-0.266 6.087,1.462C6.784,2.245 7.764,1.557 7.663,1.557C8.125,1.155 8.169,0.446 7.761,-0.019C5.425,-2.666 2.087,-2.651 0,-0.421" style="fill-rule:nonzero;"/>
        </g>
        <g transform="matrix(1,0,0,1,731.644,862.198)">
            <path d="M0,-0.384C-0.419,0.064 -0.396,0.773 0.054,1.191L0.056,1.191C0.506,1.608 1.211,1.585 1.633,1.136C2.769,-0.08 4.556,-0.243 6.086,1.49C6.778,2.279 7.764,1.585 7.663,1.585C8.125,1.183 8.17,0.474 7.762,0.01C5.386,-2.663 2.059,-2.601 0,-0.384" style="fill-rule:nonzero;"/>
        </g>
        <g transform="matrix(1,0,0,1,685.9,818.343)">
            <path d="M0,-164.221C-0.061,-164.113 -18.228,-131.659 -18.28,-131.325C-18.296,-131.226 -34.354,-24.709 -34.315,-24.442L-30.898,0.687L-28.514,0.687L-31.95,-24.595L-15.972,-130.763L2.065,-163.069C2.514,-163.873 1.905,-164.851 1.005,-164.824L1.002,-164.823C1.159,-164.823 0.387,-164.908 0,-164.221" style="fill-rule:nonzero;"/>
        </g>
        <g transform="matrix(1,0,0,1,700.627,664.791)">
            <path d="M0,-22.003C5.669,-29.761 6.267,-30.059 6.267,-30.059C6.267,-30.059 -13.482,-19.766 -18.652,-10.512C-23.821,-1.258 -17.048,8.056 -17.048,8.056C-17.048,8.056 -6.73,2.614 -4.778,-0.942C-4.678,-0.942 -5.81,-14.052 0,-22.003" style="fill-rule:nonzero;"/>
        </g>
        <g transform="matrix(-0.791977,-0.610551,-0.610551,0.791977,648.8,779.741)">
            <path d="M-13.337,-39.379C-15.459,-25.985 -17.503,-9.731 -15.756,-5.389C-12.651,2.334 -13.337,4.606 -13.337,4.606L-29.106,-7.551C-25.181,-18.982 -13.417,-39.441 -13.337,-39.379" style="fill-rule:nonzero;"/>
        </g>
        <g transform="matrix(-0.907592,-0.419853,-0.419853,0.907592,746.296,789.466)">
            <path d="M-11.581,-46.607C-12.039,-45.172 -12.424,-43.949 -12.942,-42.341C-21.969,-14.298 -7.208,1.408 -11.581,-1.929C-15.954,-5.268 -29.758,-6.472 -29.758,-6.472C-24.954,-23.15 -11.704,-46.664 -11.581,-46.607" style="fill-rule:nonzero;"/>
        </g>
        <g transform="matrix(1,0,0,1,737.114,623.744)">
            <path d="M0,-42.523C-1.396,-42.097 -2.889,-41.635 -4.389,-41.171C48.258,-27.736 73.055,-26.346 99.51,-27.333C109.49,-12.305 122.713,0 138.201,-9.121C138.382,-10.138 138.532,-11.16 138.658,-12.181C124.519,-2.239 112.063,-13.153 102.282,-27.45C118.887,-28.217 131.372,-30.09 138.61,-31.424C138.524,-32.213 138.422,-32.993 138.312,-33.768C127.614,-31.785 104.818,-28.523 74.563,-29.721C44.739,-30.903 0.102,-42.523 0,-42.523" style="fill-rule:nonzero;"/>
        </g>
        <g transform="matrix(1,0,0,1,841.177,728.039)">
            <path d="M0,-126.188C-2.063,-123.714 -16.273,-109.779 -19.196,-107.693C-33.999,-97.12 -89.485,-78.425 -93.651,-62.88C-93.879,-62.028 -93.674,-61.518 -93.454,-60.656C-91.127,-51.263 -71.408,-8.27 -67.393,0.492C-67.786,-2.345 -68.202,-5.159 -68.641,-7.924C-72.222,-15.797 -89.09,-52.859 -91.16,-61.232C-91.347,-61.975 -91.288,-62.576 -91.372,-62.265C-87.641,-76.187 -32.375,-95.381 -17.825,-105.775C-14.722,-107.99 -0.362,-122.065 1.819,-124.675C2.453,-125.449 1.907,-126.607 0.914,-126.612C1.03,-126.612 0.418,-126.68 0,-126.188" style="fill-rule:nonzero;"/>
        </g>
        <g transform="matrix(-0.165984,0.986128,0.986128,0.165984,834.761,518.359)">
            <path d="M51.398,-70.254C51.472,-70.696 71.718,-79.346 71.536,-72.173C70.524,-32.082 65.411,7.859 51.398,47.468C49.007,54.23 32.924,39.502 32.999,39.06L51.398,-70.254Z" style="fill:white;fill-rule:nonzero;stroke:black;stroke-width:1px;"/>
        </g>
        <g transform="matrix(1,0,0,1,830.905,573.118)">
            <path d="M0,-164.652L61.188,-140.388C61.188,-140.388 38.116,-61.185 38.872,-35.963C48.506,-27.927 49.389,-11.799 41.873,-7.465C2.978,-2.748 -36.124,0.378 -76.589,-7.465C-86.671,-8.36 -88.259,-22.505 -81.115,-36.779C-81.115,-36.779 -81.492,-133.784 -81.492,-140.388C-73.634,-144.925 -38.101,-163.477 -38.101,-163.477C12.276,-165.03 -2.973,-164.652 0,-164.652" style="fill:white;fill-rule:nonzero;stroke:black;stroke-width:1px;"/>
        </g>
        <g transform="matrix(0.0279446,0.999609,0.999609,-0.0279446,847.567,412.858)">
            <path d="M-52.136,-20.042L-9.301,-20.042C22.71,-20.937 21.611,-55.388 -4.747,-54.651L-34.548,-47.546C-53.273,-18.265 -52.139,-20.142 -52.136,-20.042" style="fill:white;fill-rule:nonzero;stroke:black;stroke-width:1px;"/>
        </g>
        <g transform="matrix(1,0,0,1,799.074,381.781)">
            <path d="M0,-2.129L-2.757,11.056C2.639,11.493 10.304,11.033 16.266,6.366C26.562,-1.691 16.904,-13.622 16.904,-13.622L16.896,-13.613C16.996,-13.613 -0.163,-2.129 0,-2.129" style="fill-rule:nonzero;"/>
        </g>
        <g transform="matrix(1,0,0,1,786.392,321.175)">
            <path d="M0,46.095C0,46.095 -0.746,61.313 16.787,62.879C34.313,64.446 39.685,46.244 39.835,37.592C39.984,28.938 39.835,15.024 39.835,1.491C39.835,-12.043 0,-18.351 0,3.281C0.101,3.281 0,2.211 0,46.095" style="fill:white;fill-rule:nonzero;stroke:black;stroke-width:1px;"/>
        </g>
        <g transform="matrix(1,0,0,1,822.225,427.443)">
            <path d="M0,0.296C0,0.296 -1.93,-6.538 -5.458,-5.642C-8.995,-4.745 -12.374,2.528 -10.248,6.213C-10.147,6.213 -11.323,6.834 0,0.296" style="fill-rule:nonzero;"/>
        </g>
        <g transform="matrix(1,0,0,1,790.387,427.031)">
            <path d="M0,0.919C0,0.919 1.937,-5.916 5.466,-5.018C9.003,-4.123 12.374,3.151 10.247,6.835C10.348,6.835 9.603,6.463 0,0.919" style="fill-rule:nonzero;"/>
        </g>
        <g transform="matrix(1,0,0,1,835.836,435.443)">
            <path d="M0,-25.021C-1.441,-18.858 -4.442,-10.242 -10.705,0.604C-10.705,0.604 12.478,-9.575 19.653,-17.229C-1.523,-25.625 0.102,-25.021 0,-25.021" style="fill-rule:nonzero;"/>
        </g>
        <g transform="matrix(1,0,0,1,805.864,569.789)">
            <path d="M0,-128.145C-0.441,-128.145 -0.835,-127.872 -1.008,-127.464C-8.318,-110.222 -10.783,-86.919 -11.666,-67.75C-12.471,-50.252 -11.949,-35.85 -12.406,-33.664C-20.582,-27.671 -24.274,-17.405 -23.437,-9.029C-23.278,-7.447 -22.084,-2.197 -21.446,-0.165C-20.628,-0.105 -19.812,-0.051 -18.994,0C-19.711,-1.887 -21.041,-7.478 -21.217,-9.252C-21.982,-16.899 -18.472,-26.712 -10.823,-32.125C-10.264,-32.52 -10.318,-32.795 -10.256,-33.027C-9.046,-38.148 -12.787,-93.929 1.048,-126.593C1.351,-127.297 0.863,-128.145 0,-128.145" style="fill-rule:nonzero;"/>
        </g>
        <g transform="matrix(1,0,0,1,794.947,449.441)">
            <path d="M0,-50.035C-17.431,-45.366 -11.768,-11.92 -5.9,-12.87C-1.702,-13.549 -4.12,-26.634 0.732,-26.002C4.876,-25.46 5.553,-18.277 5.663,-16.181C5.663,-11.149 3.762,-0.602 8.696,-0.265C12.634,0.005 17.14,-25.579 21.992,-26.212C26.844,-26.845 24.718,-14.769 28.616,-13.081C32.523,-11.393 44.339,-27.639 43.709,-37.028C43.07,-46.417 32.161,-50.035 32.161,-50.035C32.161,-49.637 32.248,-39.592 20.495,-32.807C16.73,-30.634 14.541,-26.081 13.902,-22.206C12.65,-21.865 10.531,-21.701 8.782,-22.206C8.105,-26.035 5.829,-30.304 2.229,-32.602C-3.08,-35.987 -0.032,-49.211 0,-50.04L0,-50.035Z" style="fill:white;fill-rule:nonzero;stroke:black;stroke-width:1px;"/>
        </g>
        <g transform="matrix(0,-1,-1,0,807.392,461.383)">
            <path d="M-1.622,-1.623C-2.518,-1.623 -3.247,-0.898 -3.247,-0.001C-3.247,0.898 -2.518,1.622 -1.622,1.622C-0.725,1.622 0.002,0.898 0.002,-0.001C0.002,-0.898 -0.725,-1.623 -1.622,-1.623" style="fill-rule:nonzero;"/>
        </g>
        <g transform="matrix(0,-1,-1,0,804.281,483.3)">
            <path d="M-1.623,-1.623C-2.52,-1.623 -3.247,-0.891 -3.247,-0C-3.247,0.898 -2.52,1.623 -1.623,1.623C-0.726,1.623 0.002,0.898 0.002,-0C0.002,-0.891 -0.726,-1.623 -1.623,-1.623" style="fill-rule:nonzero;"/>
        </g>
        <g transform="matrix(0,-1,-1,0,801.989,506.978)">
            <path d="M-1.623,-1.623C-2.519,-1.623 -3.247,-0.898 -3.247,-0C-3.247,0.898 -2.519,1.623 -1.623,1.623C-0.726,1.623 0.002,0.898 0.002,-0C0.002,-0.898 -0.726,-1.623 -1.623,-1.623" style="fill-rule:nonzero;"/>
        </g>
        <g transform="matrix(0,-1,-1,0,803.037,528.462)">
            <path d="M-1.623,-1.623C-2.52,-1.623 -3.247,-0.891 -3.247,0C-3.247,0.898 -2.52,1.623 -1.623,1.623C-0.726,1.623 0.002,0.898 0.002,0C0.002,-0.891 -0.726,-1.623 -1.623,-1.623" style="fill-rule:nonzero;"/>
        </g>
        <g transform="matrix(1,0,0,1,819.72,365.772)">
            <path d="M0,11.712C-3.056,17.092 -10.862,21.733 -24.576,20.468C-38.293,19.202 -40.298,12.556 -39.77,6.754C-39.242,0.951 -33.545,0.529 -33.651,-2.213C-33.756,-4.956 -32.175,-7.593 -29.326,-7.699C-26.475,-7.804 -25.001,-5.589 -26.475,-5.273C-27.955,-4.956 -29.538,-7.067 -29.538,-3.585C-29.538,-0.103 -26.687,4.327 -21.52,3.377C-16.353,2.428 -13.816,-6.223 -16.455,-5.695C-19.094,-5.167 -22.047,-3.902 -22.047,-5.273C-22.047,-6.644 -17.928,-8.965 -9.278,-9.493C-0.63,-10.021 -0.732,-0.315 -0.103,-2.319C0.528,-4.324 2.852,-4.43 2.852,-4.43C2.852,0.28 2.325,7.629 0,11.712" style="fill-rule:nonzero;"/>
        </g>
        <g transform="matrix(1,0,0,1,791.765,318.785)">
            <path d="M0,2.576C0.528,-2.171 5.908,-9.555 9.177,-2.698C12.453,4.158 9.603,15.341 16.668,18.822C23.741,22.303 27.853,21.459 27.853,21.459C27.853,21.459 29.121,31.271 31.334,32.536C33.548,33.802 43.678,27.051 43.678,27.051C43.678,27.051 50.224,20.2 51.389,11.76C52.547,3.32 46.718,-5.683 38.904,-13.492C21.173,-31.226 0.638,-14.303 0.638,-14.303C0.638,-14.303 -5.483,-18.523 -9.493,-12.088C-13.503,-5.653 -11.287,7.64 -9.389,12.809C-7.49,17.977 -5.169,21.353 -5.169,21.353L-5.374,5.671C-5.374,2.559 -2.854,2.576 0,2.576" style="fill-rule:nonzero;"/>
        </g>
        <g transform="matrix(1,0,0,1,839.302,368.622)">
            <path d="M0,-6.872C2.387,-5.829 -6.75,6.564 -11.847,1.383C-16.943,-3.797 -12.232,-11.796 -5.812,-13.436C-5.525,-13.436 -3.465,-8.388 0,-6.872" style="fill-rule:nonzero;"/>
        </g>
        <g transform="matrix(0.408266,-0.912863,-0.912863,-0.408266,835.927,347.294)">
            <path d="M-6.883,-4.462C-12.325,-4.463 -16.737,-1.087 -16.738,3.08C-16.736,7.241 -12.324,10.619 -6.883,10.621C-1.441,10.621 2.97,7.243 2.972,3.077C2.969,-1.083 -1.443,-4.463 -6.883,-4.462" style="fill:white;fill-rule:nonzero;stroke:black;stroke-width:1px;"/>
        </g>
        <g transform="matrix(-0.706306,0.707907,0.707907,0.706306,834.041,354.556)">
            <path d="M-0.338,-7.483C-3.372,-7.505 -4.163,-4.178 -3.289,-3.839C-2.42,-3.495 -0.916,-5.054 -0.338,-3.734C0.245,-2.417 4.152,1.872 5.678,-3.85C5.606,-3.778 2.913,-7.452 -0.338,-7.483" style="fill-rule:nonzero;"/>
        </g>
        <g transform="matrix(1,0,0,1,799.279,345.161)">
            <path d="M0,-31.759C0,-31.759 5.498,-28.949 4.537,-19.007C3.576,-9.064 8.311,1.855 20.031,-2.478C31.76,-6.811 29.72,-12.208 29.72,-12.208C29.72,-12.208 23.103,-2.863 14.47,-3.569C5.837,-4.271 5.75,-18.259 7.491,-23.155C9.231,-28.048 3.899,-33.614 0,-31.759" style="fill-rule:nonzero;"/>
        </g>
        <g transform="matrix(1,0,0,1,840.838,493.958)">
            <path d="M0,132.665C0.827,134.62 3.97,135.701 9.965,131.853C12.114,130.475 14.233,127.191 16.581,124.528C13.013,130.739 9.177,137.458 8.271,139.113C6.587,142.18 10.123,147.152 17.983,139.711C20.055,137.752 23.71,133.46 27.356,129.207C24.97,133.774 23.371,137.259 23.143,138.593C22.945,139.771 22.631,141.34 23.513,142.012C25.206,143.295 28.979,142.418 32.697,137.065C34.154,134.966 37.676,130.663 39.503,126.005C37.62,131.138 36.344,134.683 35.942,135.924C34.942,139.027 38.345,140.427 43.023,135.054C45.497,132.209 51.255,120.336 53.066,113.502C57.446,109.342 64.142,93.095 67.08,85.607C74.736,79.95 106.535,56.319 124.062,40.481C128.874,36.135 139.878,25.854 128.819,11.665C125.731,7.704 118.091,0.15 111.806,-6.125C103.432,-14.487 88.442,23.025 88.442,23.025L48.136,73.208C48.136,73.208 34.319,78.057 29.728,80.423C25.136,82.789 11.587,85.455 8.082,86.663C4.576,87.872 9.94,92.951 14.95,93.057C19.952,93.162 23.678,93.1 23.678,93.1C23.678,93.1 14.564,109.273 12.941,111.01C11.312,112.747 2.749,126.773 0.536,129.454C-0.758,131.014 0,132.765 0,132.665" style="fill:white;fill-rule:nonzero;stroke:black;stroke-width:1px;"/>
        </g>
        <g transform="matrix(-0.625501,0.780223,0.780223,0.625501,841.602,494.214)">
            <path d="M-74.441,82.651L-37.078,82.651C-37.078,82.651 -23.908,43.567 -18.563,27.894C-6.06,-8.785 -82.785,-28.559 -81.147,9.602C-81.21,9.681 -81.404,6.802 -74.441,82.651" style="fill:white;fill-rule:nonzero;stroke:black;stroke-width:1px;"/>
        </g>
        <g transform="matrix(-0.626529,0.779398,0.779398,0.626529,901.101,572.282)">
            <path d="M-3.631,-12.658L3.61,-12.658L3.237,-0.456C3.237,-0.456 3.223,1.796 1.442,0.265C-0.014,-0.988 -3.389,-8.36 -3.631,-12.658" style="fill-rule:nonzero;"/>
        </g>
        <g transform="matrix(-0.666869,0.745175,0.745175,0.666869,950.665,515.371)">
            <path d="M-21.323,-19.208C-16.793,-26.624 15.462,-14.861 15.462,-14.861C6.676,-10.505 -13.95,-8.371 -21.323,-7.728C-21.508,-10.811 -21.685,-13.929 -21.846,-16.885C-21.896,-17.808 -21.708,-18.58 -21.323,-19.208Z" style="fill-rule:nonzero;"/>
        </g>
        <g transform="matrix(-0.46615,-0.884706,-0.884706,0.46615,928.427,488.185)">
            <path d="M-10.979,-21.596C-10.979,-21.596 -0.047,-33.57 3.385,-27.597C6.816,-21.624 -2.963,-1.727 -10.979,7.126C-18.995,15.981 -25.876,12.669 -25.876,12.669C-25.923,12.581 -26.682,14.521 -10.979,-21.596" style="fill:white;fill-rule:nonzero;stroke:black;stroke-width:1px;"/>
        </g>
        <g transform="matrix(0.656646,-0.754199,-0.754199,-0.656646,866.944,585.491)">
            <path d="M-2.776,0.802L6.378,0.802C6.378,0.802 -2.032,5.471 -4.408,6.055C-6.779,6.632 -7.149,5.841 -7.149,5.841C-1.156,-1.065 -3.224,1.317 -2.776,0.802" style="fill-rule:nonzero;"/>
        </g>
        <g transform="matrix(0.439273,-0.898354,-0.898354,-0.439273,855.233,616.994)">
            <path d="M-0.38,-2.619L5.627,-2.619C5.627,-2.619 -2.545,0.986 -5.537,1.207C-8.529,1.429 -9.962,0.114 -9.962,0.114C-9.962,0.114 -6.067,-1.806 -0.38,-2.619" style="fill-rule:nonzero;"/>
        </g>
        <g transform="matrix(1,0,0,1,446.17,369.775)">
            <path d="M0,-145.732C-6.96,-145.732 -12.563,-140.13 -12.563,-133.169L-12.563,-12.564C-12.563,-5.603 -6.96,0 0,0L86.147,0C93.107,0 98.71,-5.603 98.71,-12.564L98.71,-104.094L57.072,-145.732L0,-145.732Z" style="fill-rule:nonzero;"/>
        </g>
        <g transform="matrix(1,0,0,1,466.507,385.051)">
            <path d="M0,-145.731C-6.96,-145.731 -12.562,-140.128 -12.562,-133.169L-12.562,-12.562C-12.562,-5.602 -6.96,0 0,0L86.147,0C93.107,0 98.711,-5.602 98.711,-12.562L98.711,-104.093L57.074,-145.731L0,-145.731Z" style="fill:white;fill-rule:nonzero;stroke:black;stroke-width:1px;"/>
        </g>
        <g transform="matrix(1,0,0,1,532.911,287.82)">
            <path d="M0,-8.658L32.307,0L32.307,-6.862C16.582,-7.736 -0.129,-8.658 0,-8.658" style="fill-rule:nonzero;"/>
        </g>
        <g transform="matrix(-0.70709,-0.707124,-0.707124,0.70709,544.401,230.696)">
            <path d="M-50.261,20.819L8.624,20.82L-11.936,41.379C-16.857,46.299 -24.782,46.3 -29.703,41.378L-50.261,20.819Z" style="fill:rgb(95,149,207);fill-rule:nonzero;"/>
        </g>
        <g transform="matrix(1,0,0,1,479.797,306.754)">
            <path d="M0,-5.904C-1.629,-5.903 -2.951,-4.582 -2.952,-2.951C-2.951,-1.322 -1.629,0 0,0.001L61.822,0.001C63.453,0 64.775,-1.322 64.775,-2.951C64.775,-4.582 63.453,-5.903 61.822,-5.904C59.039,-5.905 77.041,-5.904 0,-5.904" style="fill-rule:nonzero;"/>
        </g>
        <g transform="matrix(1,0,0,1,508.621,352.593)">
            <path d="M0,-49.824C-10.412,-39.412 -23.019,-26.959 -23.019,-1.954C-23.02,-0.322 -21.698,1.001 -20.066,1.003C-18.413,1.003 -17.111,-0.334 -17.109,-1.948C-17.089,-23.909 -7.792,-33.677 4.177,-45.646C5.332,-46.8 5.332,-48.67 4.177,-49.824C3.175,-50.827 1.885,-50.688 2.033,-50.688C2.237,-50.688 0.977,-50.801 0,-49.824" style="fill-rule:nonzero;"/>
        </g>
        <g transform="matrix(1,0,0,1,510.653,353.595)">
            <path d="M0,-51.691C-2.59,-51.64 -3.871,-48.488 -2.034,-46.649L-2.033,-46.649C8.434,-36.183 19.257,-26.042 19.257,-2.957C19.255,-1.324 20.577,-0.002 22.209,0C23.841,0 25.162,-1.323 25.161,-2.956L25.161,-2.957C25.161,-27.962 12.557,-40.415 2.145,-50.827C1.657,-51.315 0.944,-51.691 0,-51.691" style="fill-rule:nonzero;"/>
        </g>
        <g transform="matrix(0,-1,-1,0,510.577,292.037)">
            <path d="M-11.338,-11.339C-17.601,-11.339 -22.677,-6.264 -22.677,-0.001C-22.677,6.261 -17.6,11.338 -11.338,11.338C-5.075,11.338 -0,6.261 -0,-0.001C-0,-6.264 -5.074,-11.339 -11.338,-11.339" style="fill:rgb(239,157,52);fill-rule:nonzero;"/>
        </g>
        <g transform="matrix(0,-1,-1,0,488.999,340.987)">
            <path d="M-11.339,-11.339C-17.601,-11.339 -22.678,-6.265 -22.678,-0.001C-22.678,6.26 -17.601,11.339 -11.339,11.339C-5.076,11.339 0,6.26 0,-0.001C0,-6.263 -5.075,-11.339 -11.339,-11.339" style="fill:rgb(239,157,52);fill-rule:nonzero;"/>
        </g>
        <g transform="matrix(0,-1,-1,0,531.919,340.987)">
            <path d="M-11.339,-11.339C-17.601,-11.339 -22.678,-6.264 -22.678,0C-22.678,6.262 -17.601,11.339 -11.339,11.339C-5.076,11.339 0,6.262 0,0C0,-6.263 -5.075,-11.339 -11.339,-11.339" style="fill:rgb(239,157,52);fill-rule:nonzero;"/>
        </g>
        <g transform="matrix(0,-1,-1,0,476.417,292.459)">
            <path d="M-11.34,-11.338C-17.601,-11.338 -22.678,-6.263 -22.678,0.001C-22.678,6.262 -17.602,11.34 -11.34,11.34C-5.076,11.34 0,6.262 0,0.001C0,-6.262 -5.076,-11.338 -11.34,-11.338" style="fill:rgb(239,157,52);fill-rule:nonzero;"/>
        </g>
        <g transform="matrix(0,-1,-1,0,546.49,292.459)">
            <path d="M-11.34,-11.338C-17.602,-11.338 -22.678,-6.26 -22.678,0.001C-22.678,6.264 -17.602,11.34 -11.34,11.34C-5.076,11.34 0,6.264 0,0.001C0,-6.261 -5.076,-11.338 -11.34,-11.338" style="fill:rgb(239,157,52);fill-rule:nonzero;"/>
        </g>
        <g transform="matrix(-0.986139,0.16592,0.16592,0.986139,663.545,484.169)">
            <path d="M9.407,-131.977C2.552,-131.977 1.187,-78.131 1.186,-41.287C1.186,-4.442 4.868,1.448 9.407,1.449C13.948,1.448 17.626,-4.442 17.626,-41.287C17.491,-41.264 18.366,-131.977 9.407,-131.977" style="fill:rgb(166,60,43);fill-rule:nonzero;"/>
        </g>
        <g transform="matrix(1,0,0,1,632.691,379.538)">
            <path d="M0,-23.97C-4.389,-24.32 -2.73,-4.117 -2.383,0.35C0.31,-3.597 3.131,-7.703 6.437,-12.493C5.611,-14.992 2.604,-23.97 0,-23.97" style="fill-rule:nonzero;"/>
        </g>
        <g transform="matrix(1,0,0,1,651.699,322.251)">
            <path d="M0,42.569C-3.732,46.517 -12.768,41.33 -18.108,42.331C-23.447,43.331 -29.992,51.438 -34.901,49.108C-39.81,46.779 -37.668,36.583 -40.27,31.813C-42.872,27.044 -52.604,23.325 -51.906,17.936C-51.207,12.549 -40.848,11.434 -37.115,7.485C-33.385,3.537 -32.854,-6.869 -27.514,-7.869C-22.174,-8.869 -17.912,0.638 -13.005,2.967C-8.097,5.297 1.963,2.576 4.564,7.355C7.168,12.125 -0.558,19.116 -1.257,24.504C-1.955,29.892 3.732,38.622 0,42.569Z" style="fill:rgb(239,157,52);fill-rule:nonzero;"/>
        </g>
        <g transform="matrix(1,0,0,1,639.294,338.222)">
            <path d="M0,19.045C-1.672,20.811 -5.713,18.49 -8.103,18.938C-10.492,19.386 -13.42,23.014 -15.616,21.97C-17.812,20.929 -16.854,16.366 -18.019,14.233C-19.183,12.099 -23.536,10.435 -23.224,8.023C-22.911,5.614 -18.276,5.115 -16.606,3.349C-14.938,1.582 -14.701,-3.074 -12.312,-3.521C-9.922,-3.969 -8.016,0.286 -5.819,1.326C-3.624,2.369 0.878,1.165 2.04,3.291C3.205,5.424 -0.252,8.551 -0.563,10.962C-0.876,13.372 1.669,17.277 -0.002,19.045L0,19.045Z" style="fill-rule:nonzero;"/>
        </g>
        <g transform="matrix(1,0,0,1,638.57,334.544)">
            <path d="M0,19.047C-1.67,20.814 -5.712,18.492 -8.103,18.94C-10.489,19.388 -13.419,23.014 -15.614,21.972C-17.81,20.93 -16.853,16.368 -18.017,14.234C-19.181,12.1 -23.534,10.437 -23.222,8.026C-22.909,5.616 -18.276,5.116 -16.605,3.351C-14.936,1.585 -14.699,-3.072 -12.31,-3.52C-9.92,-3.967 -8.014,0.286 -5.818,1.328C-3.622,2.371 0.878,1.167 2.043,3.292C3.206,5.426 -0.25,8.553 -0.562,10.964C-0.874,13.374 1.669,17.28 0,19.047Z" style="fill:white;fill-rule:nonzero;"/>
        </g>
        <g transform="matrix(0.589585,-0.807707,-0.807707,-0.589585,404.667,199.655)">
            <path d="M-17.807,-8.643C-21.972,-8.643 -25.283,15.86 -25.284,22.075C-25.285,28.289 -24.022,33.329 -17.807,33.329C-11.592,33.328 -10.329,28.29 -10.33,22.074C-9.814,21.367 -13.146,-8.643 -17.807,-8.643" style="fill:rgb(244,128,50);fill-rule:nonzero;"/>
        </g>
        <g transform="matrix(-0.0749345,-0.997188,-0.997188,0.0749345,367.352,242.505)">
            <path d="M-20.238,-23.464C-24.403,-23.465 -27.716,1.037 -27.717,7.252C-27.715,13.468 -26.454,18.506 -20.238,18.506C-14.023,18.507 -12.762,13.468 -12.761,7.253C-12.761,2.196 -15.881,-23.466 -20.238,-23.464" style="fill:rgb(244,128,50);fill-rule:nonzero;"/>
        </g>
        <g transform="matrix(1,0,0,1,428.893,144.991)">
            <path d="M0,40.145C-3.914,41.568 -15.4,19.673 -17.523,13.832C-19.647,7.991 -20.183,2.825 -14.342,0.7C-8.501,-1.423 -5.592,2.881 -3.469,8.722L-3.469,8.721C-2.842,8.721 4.401,38.544 0,40.145" style="fill:rgb(244,128,50);fill-rule:nonzero;"/>
        </g>
        <g transform="matrix(1,0,0,1,618.357,216.883)">
            <path d="M0,-21.898C-5.02,-18.233 -22.856,-1.112 -20.401,2.252C-17.946,5.616 3.798,-6.156 8.817,-9.82C13.837,-13.484 17.162,-17.474 13.497,-22.495C9.834,-27.514 5.02,-25.563 0,-21.899L0,-21.898Z" style="fill:rgb(244,128,50);fill-rule:nonzero;"/>
        </g>
        <g transform="matrix(-0.997192,-0.0748914,-0.0748914,0.997192,617.122,269.903)">
            <path d="M-19.788,-15.654C-13.575,-15.655 10.928,-12.343 10.928,-8.179C10.93,-4.014 -13.573,-0.7 -19.788,-0.699C-26.002,-0.699 -31.042,-1.961 -31.042,-8.176C-31.042,-14.391 -26.004,-15.654 -19.788,-15.654" style="fill:rgb(244,128,50);fill-rule:nonzero;"/>
        </g>
        <g transform="matrix(1,0,0,1,573.681,176.415)">
            <path d="M0,-22.702C-2.125,-16.861 -7.384,7.298 -3.471,8.721C0.444,10.145 11.93,-11.751 14.054,-17.592C16.177,-23.432 16.714,-28.598 10.872,-30.723C5.03,-32.847 2.123,-28.543 0,-22.701L0,-22.702Z" style="fill:rgb(244,128,50);fill-rule:nonzero;"/>
        </g>
    </g>
</svg>
