<svg role="img" xmlns="http://www.w3.org/2000/svg" width="2.77em" viewBox="0 0 277.08 218.661">
  <g id="Grupo_103" data-name="Grupo 103" transform="translate(0 0.252)">
    <rect id="Rectángulo_23" data-name="Rectángulo 23" width="19.475" height="2.816" transform="translate(144.333 112.816)" fill="#2c3571"/>
    <path id="Trazado_30" data-name="Trazado 30" d="M857.76,1169.7H804.995L790.3,1215.6v2.816h52.091Z" transform="translate(-626.492 -1102.786)" fill="#510b5c"/>
    <path id="Trazado_31" data-name="Trazado 31" d="M634.488,1431.963l42.324-86.232H660.328a5.016,5.016,0,0,1,0-10.031H883.621a5.016,5.016,0,0,1,0,10.031H868.6l42.089,85.762a4.716,4.716,0,0,1-4.253,6.8h0a4.759,4.759,0,0,1-4.253-2.64l-44.143-89.927H687.312l-44.142,89.927a4.726,4.726,0,0,1-4.253,2.64h0C635.456,1438.327,633.168,1434.661,634.488,1431.963Z" transform="translate(-634.109 -1220.097)" fill="#3a382f"/>
    <path id="Trazado_32" data-name="Trazado 32" d="M1154.5,1374.829h0q-.748-.748-1.408-1.5c-9.445-11.087-9.386-37.661-9.181-45.139a2.054,2.054,0,1,1,4.106.146c-.293,7.127-.381,30.386,9.21,42.265,9.855,12.2,40.183,13.316,48.337,13.375a2.059,2.059,0,0,1,2.053,2.054v.557a2.047,2.047,0,0,1-2.082,2.053c-1.35,0-2.846-.058-4.429-.117v.117l12.759,38.247a3.117,3.117,0,0,1-5.9,2.024l-14.519-40.946c-10.295-1-22.5-3.285-31.53-7.978h0l-11.732,48.835a2.67,2.67,0,0,1-5.221-1.114Z" transform="translate(-1086.459 -1213.383)" fill="#030047"/>
    <g id="Human_2" transform="translate(61.535)">
      <path id="Trazado_57" data-name="Trazado 57" d="M1266.84,1071.918a11.889,11.889,0,0,1,1.056,5.221c0,1.349-.059,2.552-.088,3.608h0c-.059,3.05.058,4.751,1.76,4.751h.088c1.76-.029,2.024-1.349,1.848-3.666-.059-.557-.117-1.2-.205-1.877a24.434,24.434,0,0,1,1.261-9.8c.558-1.085,1.789-4.781-.88-9.239-1.936-3.256-3.167-4.9-4.487-5.719-.03,1.143-.822,2.317-2.435,4.311C1262.558,1062.357,1268.512,1064.233,1266.84,1071.918Z" transform="translate(-1246.134 -1020.403)" fill="#fff" stroke="#000" stroke-width="0.5"/>
      <path id="Trazado_58" data-name="Trazado 58" d="M1286.923,1053c3.05,4.488,5.426,5.514,5.573,5.573h0a8.248,8.248,0,0,1,1.76,2.552c1.643-7.685-4.282-9.562-2.024-12.407,1.613-2.024,2.405-3.168,2.435-4.312a3.209,3.209,0,0,0-.382-1.466c-.88-1.818-2.581-3.9-2.669-2.523-.118,1.379-.528,1.32-3.667,2.845C1284.782,1044.822,1283.756,1048.4,1286.923,1053Z" transform="translate(-1273.551 -1009.643)" fill="#030047" stroke="#000" stroke-width="0.5"/>
      <path id="Trazado_59" data-name="Trazado 59" d="M1149.569,1211.637h0a85.986,85.986,0,0,0,2.054,13.609,7.034,7.034,0,0,0,1.467,2.757,6.482,6.482,0,0,0,5.367,2.141c5.72-.235,12.67-4.136,16.513-6.306,3.842-2.141,8.066-2.024,13.609-2.493s17.217-4.575,21.411-8.623c0,0,.615-.293,0-2.288a80.287,80.287,0,0,0-4.282-13.492c-10.471-29.653-19.857-47.075-32.938-49.891-1.7,0-1.818-1.7-1.76-4.751-.029.235-.5,3.637-8.271,16.865C1155.993,1170.692,1147.985,1188.906,1149.569,1211.637Z" transform="translate(-1149.366 -1081.956)" fill="#fff" stroke="#000" stroke-width="0.5"/>
      <path id="Trazado_60" data-name="Trazado 60" d="M1042.1,1420.013c7.978,1.525,17.862.528,26.632,1.73,7.274,1,13.756,3.49,17.715,10.207,8.77,14.782,7.89,27.365,7.89,27.365a3.158,3.158,0,0,0,1.29.7h0c2.053.586,5.544.381,7.215.411,2.112.059,1.672-.323,1.672-.323s-1.026-8.329,1.789-30.181-10.852-31.794-23.64-37.455S1065,1382.5,1065,1382.5c-4.194,4.018-15.868,8.154-21.411,8.623-5.573.469-9.8.352-13.609,2.493-3.842,2.141-10.794,6.071-16.513,6.305a6.358,6.358,0,0,1-5.368-2.14C1006.664,1414.588,1027.518,1417.257,1042.1,1420.013Z" transform="translate(-1004.32 -1251.704)" fill="#fff" stroke="#000" stroke-width="0.5"/>
      <path id="Trazado_61" data-name="Trazado 61" d="M988.423,1653.739c1.115,1.877,7.89,2.962,12.143,2.816s5.162-.763,5.338-2.7-4.4-1.232-6.629-2.933c-2.2-1.672-3.226-2.2-3.139-3.813-1.671-.059-5.162.176-7.215-.411h0a5.2,5.2,0,0,1-.235,2.787C988.188,1651.481,987.308,1651.833,988.423,1653.739Z" transform="translate(-897.647 -1438.413)" stroke="#000" stroke-width="0.5"/>
      <path id="Trazado_62" data-name="Trazado 62" d="M1078.5,1546.276a18.678,18.678,0,0,0,3.608,1.437,14.7,14.7,0,0,0,3.989.792,1.356,1.356,0,0,0,1.349-.792c.528-1.056,7.3-13.023,7.274-21.206-3.989-6.687-10.471-9.21-17.715-10.207,0,0,5.778,11.439,2.053,27.219,0,0-.528,1.5-1.613,1.555C1076.823,1545.073,1077.293,1545.6,1078.5,1546.276Z" transform="translate(-1012.592 -1346.26)" fill="#fff" stroke="#000" stroke-width="0.5"/>
      <path id="Trazado_63" data-name="Trazado 63" d="M1085.672,1624.706c1.525,1.174,13.052,7.333,14.577,4.312s-5.749-4.135-6.013-5.983a7.454,7.454,0,0,1-.117-2.406h0a14.7,14.7,0,0,1-3.989-.792,18.691,18.691,0,0,1-3.608-1.437,2.726,2.726,0,0,1-.85,2.2A2.641,2.641,0,0,0,1085.672,1624.706Z" transform="translate(-1020.59 -1418.413)" stroke="#000" stroke-width="0.5"/>
      <path id="Trazado_64" data-name="Trazado 64" d="M1164.57,1097.454h.117a6.1,6.1,0,0,1,.91.059c.088,0,.205.029.293.029.058,0,.147.029.206.029.088.029.205.029.322.058h.088a1.245,1.245,0,0,0,.323.059c2.376.528,6.335,2.083,10.97,6.541l.41.411a50.23,50.23,0,0,1,6.6,8.3c5.631-6.981,11.527-24.374,12.348-26.866.821-2.523-.293-3.432-.293-3.432a4.882,4.882,0,0,0-.381-.411h0c-4.869-5.191-13.14-9.092-14.577-9.766-1.467-.7-2.229-.118-2.229-.118-8.213,7.538-13.258,21.382-13.258,21.382C1166.594,1096.105,1166.33,1097.425,1164.57,1097.454Z" transform="translate(-1141.02 -1032.359)" fill="#fff" stroke="#000" stroke-width="0.5"/>
      <path id="Trazado_65" data-name="Trazado 65" d="M1104.249,976.726c1.437.675,9.708,4.576,14.577,9.767,7.538-12.172,10.911-27.747,11.527-31.56.646-3.813.469-3.9,2.581-5.925,2.112-2.053,2.992-3.285,2.405-4.077-.587-.763-2.669.587-2.933.322s-.646-.762,1.085-2.434c1.7-1.672,3.637-3.637,3.93-4.752s-.322-2.141-1.261-1.027a15.831,15.831,0,0,1-1.965,1.936c-4.488,3.138-5.367,6.218-5.866,9.914a9.234,9.234,0,0,1-3.344,5.807A122.774,122.774,0,0,0,1104.249,976.726Z" transform="translate(-1063.364 -936.561)" fill="#fff" stroke="#000" stroke-width="0.5"/>
      <path id="Trazado_66" data-name="Trazado 66" d="M1189.885,1178.892c2.581,10.969,14.138,19.006,14.138,19.006.645-.176,1.261-.352,1.877-.557a21.328,21.328,0,0,0,8.359-5.338,22.526,22.526,0,0,0,4.458-6.8,11.917,11.917,0,0,0,.5-1.349,81.753,81.753,0,0,0-5.279-9.562,50.521,50.521,0,0,0-6.6-8.3l-.41-.411c-4.634-4.487-8.594-6.012-10.97-6.54a1.23,1.23,0,0,0-.322-.059h-.088c-.117-.029-.205-.029-.323-.058-.058,0-.147-.03-.206-.03a1.107,1.107,0,0,0-.293-.029,5.957,5.957,0,0,0-.91-.058h-.2C1188.067,1162.114,1189.885,1178.892,1189.885,1178.892Z" transform="translate(-1170.119 -1093.617)" fill="#fff" stroke="#000" stroke-width="0.5"/>
      <path id="Trazado_67" data-name="Trazado 67" d="M1042.159,1260.943h0c1.965,3.96,10.676,8.946,20.619,11.263a50.622,50.622,0,0,0,8.916,1.291c13.2.616,10.295,1.144,14.548,1.5,4.253.323,6.013-2.317,8.066-1.349,2.024.939,4.253,1.232,4.4.264.147-.938-1.026-.938-4.135-2.317-3.109-1.349-4.546-.469-7.186-.528s-8.271-2.317-11.38-3.725c-3.109-1.437-4.6-2.7-11.967-7.919-7.391-5.221-9.093-10.618-9.093-10.618a22.181,22.181,0,0,1-4.458,6.8A20.976,20.976,0,0,1,1042.159,1260.943Z" transform="translate(-1006.377 -1157.219)" fill="#fff" stroke="#000" stroke-width="0.5"/>
      <g id="Grupo_33" data-name="Grupo 33" transform="translate(64.81 170.303)">
        <g id="Grupo_32" data-name="Grupo 32">
          <path id="Trazado_68" data-name="Trazado 68" d="M1093.213,1527.2a21.121,21.121,0,0,0-16.161-9.122c-.557-.029-.557-.909,0-.88a22.024,22.024,0,0,1,16.924,9.562c.322.469-.44.909-.763.44Z" transform="translate(-1076.634 -1517.198)" fill="#c59e31" stroke="#000" stroke-width="0.5"/>
        </g>
      </g>
      <g id="Grupo_35" data-name="Grupo 35" transform="translate(24.051 64.377)">
        <g id="Grupo_34" data-name="Grupo 34">
          <path id="Trazado_69" data-name="Trazado 69" d="M1226.059,1171.785a50.661,50.661,0,0,0-19.036-14.929c-.528-.235-.058-1,.44-.762a51.182,51.182,0,0,1,19.241,15.076c.323.41-.294,1.056-.646.616Z" transform="translate(-1206.791 -1156.049)" fill="#5f5fff" stroke="#000" stroke-width="0.5"/>
        </g>
      </g>
    </g>
  </g>
</svg>
