<svg width="1.5em" viewBox="0 0 1024 1024" version="1.1" xmlns="http://www.w3.org/2000/svg" xmlns:xlink="http://www.w3.org/1999/xlink" xml:space="preserve" xmlns:serif="http://www.serif.com/" style="fill-rule:evenodd;clip-rule:evenodd;stroke-linejoin:round;stroke-miterlimit:2;" role="img">
    <g id="Maintenance--Product--Illustration" serif:id="Maintenance  Product  Illustration">
        <g transform="matrix(1,0,0,1,862.997,873.411)">
            <path d="M0,-13.337C-10.139,1.705 -12.849,9.255 -16.686,18.41C-16.686,18.41 -13.952,-11.076 2.41,-31.747C2.51,-31.747 1.321,-21.534 0,-13.337" style="fill-rule:nonzero;"/>
        </g>
        <g transform="matrix(1,0,0,1,511.533,424.972)">
            <path d="M0,-34.367C2.877,-30.183 21.117,-23.674 29.23,-20.937C35.254,-13.557 60.398,17.065 77.066,33.805C81.642,38.4 92.442,48.895 106.081,37.16C109.889,33.885 117.064,25.89 123.03,19.309C130.976,10.54 92.779,-2.626 92.779,-2.626L40.703,-40.456C40.703,-40.456 35.19,-54.025 32.603,-58.495C30.018,-62.966 26.699,-76.374 25.324,-79.818C23.947,-83.262 19.131,-77.655 19.268,-72.649C19.405,-67.644 19.648,-63.926 19.648,-63.926C19.648,-63.926 3.482,-73.001 1.237,-73.786C-5.069,-75.993 -6.619,-62.973 -5.396,-59.911L-5.396,-59.912C-4.366,-59.912 -3.972,-40.143 0,-34.367" style="fill:white;fill-rule:nonzero;stroke:black;stroke-width:1px;"/>
        </g>
        <g transform="matrix(-0.809572,-0.587021,-0.587021,0.809572,705.887,353.248)">
            <path d="M4.304,115.567L41.671,115.567C41.671,115.567 54.841,76.479 60.183,60.808C72.688,24.126 -4.043,4.349 -2.404,42.514C-2.486,42.454 -2.497,41.515 4.304,115.567" style="fill:white;fill-rule:nonzero;stroke:black;stroke-width:1px;"/>
        </g>
        <g transform="matrix(1,0,0,1,558.091,392.183)">
            <path d="M0,-3.413L-5.855,-7.667L-12.732,2.416C-12.732,2.416 -14.046,4.254 -11.704,4.058C-9.79,3.9 -2.724,-0.074 0,-3.412L0,-3.413Z" style="fill-rule:nonzero;"/>
        </g>
        <g transform="matrix(1,0,0,1,635.621,431.262)">
            <path d="M0,10.892C1.153,2.274 -31.31,-8.916 -31.31,-8.916C-27.23,0.01 -12.557,14.658 -7.234,19.808C-0.517,12.465 -0.195,12.341 0,10.892" style="fill-rule:nonzero;"/>
        </g>
        <g transform="matrix(0.861121,-0.508401,-0.508401,-0.861121,639.396,438.445)">
            <path d="M-7.13,-2.569C-7.13,-2.569 3.804,-14.545 7.237,-8.571C10.667,-2.598 0.888,17.302 -7.13,26.157C-15.144,35.011 -22.028,31.7 -22.028,31.7C-21.941,31.648 -22.907,33.724 -7.13,-2.569" style="fill:white;fill-rule:nonzero;stroke:black;stroke-width:1px;"/>
        </g>
        <g transform="matrix(1,0,0,1,520.86,395.383)">
            <path d="M0,-30.091C5.356,-23.561 7.097,-11.399 7.425,-6.59C7.652,-3.258 6.591,1.127 5.913,3.537C6.512,3.778 7.114,4.01 7.716,4.245C8.687,3.212 9.831,1.255 10.899,-2.467C12.17,-6.898 11.886,-10.394 9.705,-16.299C7.522,-22.204 10.32,-34.336 10.32,-34.336C10.32,-34.336 -3.409,-34.246 0,-30.091Z" style="fill-rule:nonzero;"/>
        </g>
        <g transform="matrix(-0.993391,-0.114781,-0.114781,0.993391,426.751,764.53)">
            <path d="M-16.499,100.316L4.846,100.316C4.846,100.316 13.393,43.008 13.41,22.421C13.43,1.834 -15.305,3.333 -19.701,22.425C-19.801,22.413 -19.773,20.672 -16.499,100.316" style="fill:white;fill-rule:nonzero;stroke:black;stroke-width:1px;"/>
        </g>
        <g transform="matrix(-0.79562,-0.605797,-0.605797,0.79562,420.408,792.601)">
            <path d="M7.45,-20.085C0.695,-24.239 -9.456,-24.259 -16.43,-16.95C-16.43,-16.95 -6.572,-1.434 7.45,7.029C9.26,4.397 10.83,1.991 12.045,-0.052C17.134,-8.626 13.794,-16.179 7.45,-20.085" style="fill-rule:nonzero;"/>
        </g>
        <g transform="matrix(-0.152096,0.988366,0.988366,0.152096,440.344,860.517)">
            <path d="M-32.155,-7.77L6.821,-7.77L7.624,-29.1C7.624,-29.1 -10.844,-32.255 -31.122,-35.305C-32.227,-5.805 -32.14,-7.869 -32.155,-7.77" style="fill:white;fill-rule:nonzero;stroke:black;stroke-width:1px;"/>
        </g>
        <g transform="matrix(0.368173,-0.929757,-0.929757,-0.368173,218.866,904.146)">
            <path d="M39.256,43.037L60.599,43.037C60.599,43.037 69.158,-14.266 69.183,-34.851C69.211,-55.438 40.474,-53.946 36.073,-34.855C36.11,-34.948 36.068,-35 39.256,43.037" style="fill:white;fill-rule:nonzero;stroke:black;stroke-width:1px;"/>
        </g>
        <g transform="matrix(0.111227,-0.993795,-0.993795,-0.111227,285.082,863.69)">
            <path d="M-19.96,8.924C-21.3,11.622 -22.047,14.746 -21.91,18.205L-19.96,24.37C-12.047,23.003 1.39,20.522 11.926,17.743C12.149,15.746 -16.18,3.945 -19.96,8.924" style="fill-rule:nonzero;"/>
        </g>
        <g transform="matrix(-0.915287,-0.402803,-0.402803,0.915287,211.666,828.436)">
            <path d="M-31.585,28.782L7.392,28.782L8.194,7.455C8.194,7.455 -10.272,4.294 -30.547,1.242C-31.59,28.91 -31.494,28.823 -31.585,28.782" style="fill:white;fill-rule:nonzero;stroke:black;stroke-width:1px;"/>
        </g>
        <g transform="matrix(-0.677639,-0.735395,-0.735395,0.677639,190.415,841.51)">
            <path d="M-9.529,-20.413C-10.18,-12.46 -12.829,-0.873 -13.746,3.004L-9.529,4.848L-0.254,-14.381C-0.34,-14.438 -9.597,-20.487 -9.529,-20.413" style="fill-rule:nonzero;"/>
        </g>
        <g transform="matrix(1,0,0,1,465.305,867.91)">
            <path d="M0,-159.947C-1.981,-142.187 -11.771,-117.895 -17.313,-93.329C-11.536,-82.949 -19.042,-78.047 -19.802,-78.175L-52.913,-78.175C-54.124,-77.861 -65.129,-80.005 -56.525,-92.32C-58.243,-100.683 -58.017,-116.9 -57.575,-132.816L-121.414,-110.511C-121.414,-110.511 -112.13,-9.648 -114.241,4.272C-116.351,18.199 -127.744,32.151 -142.937,32.151C-158.129,32.151 -187.25,20.311 -187.25,20.311C-187.911,22.517 -199.854,24.352 -200.752,15.53C-198.113,5.682 -198.593,-10.349 -196.53,-18.046C-191.889,-26.12 -182.066,-17.281 -182.066,-16.73L-163.417,-10.695L-187.074,-90.72C-201.679,-120.159 -219.215,-149.517 -205.396,-179.724L-146.085,-175.108C-105.413,-179.553 -42.327,-192.083 -25.513,-192.091C-8.744,-192.098 4.542,-176.898 0,-159.947" style="fill:white;fill-rule:nonzero;stroke:black;stroke-width:1px;"/>
        </g>
        <g transform="matrix(-0.535174,0.844742,0.844742,0.535174,432.51,852.991)">
            <path d="M11.529,-19.005C10.882,-11.051 8.224,0.533 7.306,4.412L11.529,6.256L20.806,-12.967C10.833,-19.51 11.475,-18.92 11.529,-19.005" style="fill-rule:nonzero;"/>
        </g>
        <g transform="matrix(1,0,0,1,419.834,861.587)">
            <path d="M0,11.422C6.322,9.729 4.475,-0.063 4.475,-0.063C-16.933,-2.545 -14.125,3.057 -14.125,13.967C-13.327,13.967 -5.269,12.834 0,11.422" style="fill:white;fill-rule:nonzero;"/>
        </g>
        <g transform="matrix(1,0,0,1,401.867,854.954)">
            <path d="M0,45.107C-4.746,36.883 -2.615,29.794 3.842,20.6C15.943,19.497 20.516,17.315 22.442,6.57L27.822,6.57C27.822,6.57 34.994,0 38.734,11.415C42.475,22.83 69.446,24.846 79.913,30.794C91.746,37.513 91.731,45.107 82.841,45.107L0,45.107Z" style="fill:white;fill-rule:nonzero;stroke:black;stroke-width:1px;"/>
        </g>
        <g transform="matrix(1,0,0,1,409.966,893.639)">
            <path d="M0,-4.646C4.593,-0.053 13.221,-0.81 13.221,-0.81L80.047,-0.81C82.519,3.247 80.487,6.421 74.742,6.421L-8.099,6.421C-11.568,0.411 -11.35,-5 -8.464,-11.067C-8.343,-11.067 -3.584,-8.23 0,-4.646" style="fill-rule:nonzero;stroke:black;stroke-width:1px;"/>
        </g>
        <g transform="matrix(1,0,0,1,458.422,879.869)">
            <path d="M0,-12.098C0.657,-10.002 -0.218,-5.198 -1.651,-2.203C-2.339,-2.416 -3.628,-3.007 -3.592,-3.086C-2.274,-5.859 -1.579,-9.994 -2.041,-11.46C-2.523,-13.004 -3.676,-13.863 -5.064,-14.438C-10.326,-16.619 -13.726,-9.167 -13.75,-9.105C-13.75,-9.105 -15.852,-3.858 -18.965,0.381C-21.158,3.356 -24.358,6.512 -27.911,5.437C-30.89,4.574 -34.197,0.181 -33.4,-4.677C-32.134,-12.385 -22.527,-17.251 -15.131,-11.294C-11.461,-18.61 -1.999,-18.472 0,-12.098M-22.29,-11.901C-26.65,-11.901 -30.626,-8.389 -31.294,-4.33C-31.911,-0.578 -29.291,2.798 -27.306,3.397C-22.925,4.666 -17.897,-4.962 -16.125,-9.191C-17.833,-10.705 -20.007,-11.901 -22.29,-11.901" style="fill-rule:nonzero;"/>
        </g>
        <g transform="matrix(1,0,0,1,454.509,876.52)">
            <path d="M0,-3.661C-0.058,-3.07 -0.578,-2.644 -1.164,-2.7C-2.733,-2.856 -4.134,-1.836 -4.134,0.372C-4.134,0.963 -4.612,1.443 -5.202,1.443C-5.792,1.443 -6.27,0.963 -6.27,0.372C-6.27,-3.001 -3.877,-5.104 -0.96,-4.827C-0.646,-4.827 0.077,-4.453 0,-3.661" style="fill-rule:nonzero;"/>
        </g>
        <g transform="matrix(1,0,0,1,460.586,881.717)">
            <path d="M0,-5.983C0.588,-5.927 1.019,-5.408 0.96,-4.817C0.901,-4.234 0.383,-3.8 -0.203,-3.856C-1.813,-4.016 -3.17,-2.956 -3.17,-0.784C-3.17,-0.193 -3.648,0.288 -4.237,0.288C-4.828,0.288 -5.306,-0.193 -5.306,-0.784C-5.306,-4.199 -2.864,-6.271 0.001,-5.983L0,-5.983Z" style="fill-rule:nonzero;"/>
        </g>
        <g transform="matrix(-0.724324,0.689459,0.689459,0.724324,426.374,768.045)">
            <path d="M8.742,-18.184C8.848,-13.8 8.718,-7.628 7.374,-4.241C5.146,1.376 8.742,2.095 8.742,2.095L17.946,-6.666C14.38,-12.374 8.642,-18.088 8.742,-18.184" style="fill-rule:nonzero;"/>
        </g>
        <g transform="matrix(1,0,0,1,192.062,831.394)">
            <path d="M0,9.128C1.453,14.579 9.89,12.996 9.89,12.996C12.044,-5.451 7.217,-3.035 -2.182,-3.043C-2.083,-3.043 -1.673,2.857 0,9.128" style="fill:white;fill-rule:nonzero;stroke:black;stroke-width:1px;"/>
        </g>
        <g transform="matrix(1,0,0,1,189.88,897.853)">
            <path d="M0,-69.51C0.939,-59.08 2.817,-55.133 12.072,-53.463L12.047,-40.308C12.047,-40.308 21.881,-34.115 12.023,-30.902C5.48,-28.767 0.694,-26.01 -3.305,-16.241C0.051,-14.39 3.101,-12.657 5.211,-11.105C14.666,-4.173 13.891,3.027 6.282,2.13L-9.769,2.019L-16.283,-2.905L-21.21,-14.8L-21.146,-70.62C-17.822,-72.537 -4.219,-72.467 -0.012,-69.502L0,-69.51Z" style="fill:white;fill-rule:nonzero;stroke:black;stroke-width:1px;"/>
        </g>
        <g transform="matrix(1,0,0,1,183.76,898.957)">
            <path d="M0,-72.529C-0.965,-70.874 -2.802,-67.424 -5.48,-64.745C-9.443,-60.791 -8.783,-55.56 -8.783,-55.56L-8.832,-15.06C-8.628,-9.2 -6.118,-5.726 -2.07,-5.182L17.694,-5.324C19.402,-1.605 17.376,1.065 12.425,1.034C10.558,1.022 -3.326,0.923 -3.624,0.923C-8.365,0.277 -15.225,-0.644 -15.022,-12.201L-15.022,-71.724C-11.783,-73.594 -1.97,-73.464 -0.011,-72.529L0,-72.529Z" style="fill-rule:nonzero;"/>
        </g>
        <g transform="matrix(1,0,0,1,200.51,856.337)">
            <path d="M0,21.603C-0.691,24.407 -2.864,26.157 -5.347,26.314C-7.235,26.432 -10.816,24.991 -13.03,23.178C-12.724,22.494 -12.213,21.414 -12.157,21.461C-10.107,23.131 -6.79,24.557 -5.466,24.47C-4.077,24.384 -3.12,23.596 -2.352,22.548C0.555,18.593 -4.991,14.222 -5.035,14.19C-5.035,14.19 -8.999,11.354 -11.904,7.88C-13.978,5.409 -15.904,2.149 -14.311,-0.643C-12.945,-2.994 -8.59,-4.829 -4.714,-3.165C1.489,-0.525 3.551,8.562 -2.923,13.481C-0.546,15.5 0.705,18.471 0.003,21.603L0,21.603ZM-0.946,7.613C-0.046,3.927 -2.212,-0.11 -5.436,-1.47C-8.474,-2.768 -11.833,-1.236 -12.721,0.278C-14.694,3.677 -7.664,9.855 -4.475,12.221C-2.544,10.881 -1.363,9.29 -0.946,7.613" style="fill-rule:nonzero;stroke:black;stroke-width:1px;"/>
        </g>
        <g transform="matrix(1,0,0,1,193.876,870.766)">
            <path d="M0,3.37C-0.119,4.577 -1.948,4.409 -1.834,3.196C-1.702,1.818 -2.604,0.637 -4.484,0.637C-4.993,0.637 -5.404,0.226 -5.404,-0.285C-5.404,-0.797 -4.993,-1.207 -4.484,-1.207C-1.577,-1.207 0.243,0.86 0,3.37" style="fill-rule:nonzero;stroke:black;stroke-width:1px;"/>
        </g>
        <g transform="matrix(1,0,0,1,191.265,874.502)">
            <path d="M0,3.352C-0.118,4.568 -1.948,4.373 -1.834,3.179C-1.697,1.798 -2.607,0.619 -4.483,0.619C-4.991,0.619 -5.403,0.209 -5.403,-0.303C-5.403,-0.807 -4.991,-1.216 -4.483,-1.216C-1.554,-1.216 0.244,0.848 0,3.352" style="fill-rule:nonzero;"/>
        </g>
        <g transform="matrix(1,0,0,1,344.987,831.013)">
            <path d="M0,-141.574C-15.107,-127.768 -46.216,-123.25 -66.714,-121.57C-64.837,-113.961 -65.826,-105.085 -70.339,-97.761C-65.158,-84.683 -57.536,-65.243 -52.682,-52.092C-48.287,-40.175 -48.03,-40.802 -45.224,-17.68C-44.18,-9.053 -43.358,-1.363 -43.358,-1.363C-43.289,-0.717 -43.756,-0.135 -44.404,-0.063C-45.054,0 -45.635,-0.465 -45.705,-1.111C-45.705,-1.521 -49.113,-32.336 -50.751,-39.16C-52.373,-45.902 -69.433,-89.065 -71.948,-95.41C-74.401,-92.154 -77.753,-89.006 -82.32,-86.252C-82.623,-86.986 -82.916,-87.72 -83.206,-88.454C-74.124,-94 -70.402,-101.017 -68.968,-107.198C-67.363,-114.121 -68.709,-119.943 -69.099,-121.383C-75.538,-120.903 -82.529,-120.571 -90.096,-120.406C-90.087,-121.195 -90.061,-121.983 -90.02,-122.772C-65.204,-123.32 -24.387,-126.247 -4.507,-140.932C-2.054,-141.28 0.103,-141.574 0,-141.574M79.524,-115.227C80.309,-114.913 80.613,-114.333 80.917,-113.715C84.912,-105.495 86.754,-52.634 86.598,-55.935C86.609,-55.71 86.799,-56.652 83.366,-41.278L80.944,-41.278L84.226,-55.977C83.968,-61.281 81.966,-108.903 78.59,-112.996C70.954,-113.264 -0.933,-87.496 4.365,-89.386C3.751,-89.167 3.075,-89.488 2.855,-90.101C2.637,-90.716 2.957,-91.391 3.571,-91.611C19.051,-97.155 75.055,-117.029 79.524,-115.227" style="fill-rule:nonzero;"/>
        </g>
        <g transform="matrix(0,1,1,0,297.729,855.865)">
            <path d="M-4.685,-14.49L14.048,-14.49C14.048,-14.49 14.49,-11.896 10.015,-10.701C5.541,-9.508 -1.47,-4.585 -1.47,-4.585C-4.347,-13.451 -4.685,-14.59 -4.685,-14.49" style="fill-rule:nonzero;"/>
        </g>
        <g transform="matrix(1,0,0,1,343.891,731.028)">
            <path d="M0,26.37L-3.448,-0.028C10.184,12.09 36.068,9.229 63.839,4.065C-0.08,26.398 -0.1,26.37 0,26.37" style="fill-rule:nonzero;"/>
        </g>
        <g transform="matrix(1,0,0,1,301.889,785.406)">
            <path d="M0,71.809L12.038,80.025C12.038,80.025 15.836,78.764 12.038,73.274C8.241,67.791 6.13,45.418 -2.31,33.184C-10.75,20.946 -23.657,-8.216 -23.657,-8.216C0.699,74.171 -0.1,71.809 0,71.809" style="fill-rule:nonzero;"/>
        </g>
        <g transform="matrix(1,0,0,1,365.453,501.431)">
            <path d="M0,-18.07C28.68,35.322 -24.825,25.125 -24.825,25.125C-24.825,25.125 -19.577,-50.162 -5.045,-53.392C-4.944,-53.392 -7.146,-31.375 0,-18.07" style="fill-rule:nonzero;"/>
        </g>
        <g transform="matrix(-0.172661,-0.984981,-0.984981,0.172661,287.459,646.871)">
            <path d="M-42.225,-56.436C-42.318,-56.849 -59.172,-63.906 -58.918,-56.851C-57.5,-17.422 -55.643,1.969 -42.225,38.38C-39.935,44.598 -25.251,26.889 -25.335,26.471C-25.608,25.118 -42.249,-56.539 -42.225,-56.436" style="fill:white;fill-rule:nonzero;stroke:black;stroke-width:1px;"/>
        </g>
        <g transform="matrix(1,0,0,1,310.663,691.811)">
            <path d="M0,-157.873L-63.259,-134.661C-63.259,-134.661 -38.408,-66.563 -40.762,-34.767C-44.023,-18.734 -54.106,-11.65 -47.77,-7.504C-11.476,-2.991 2.834,0 43.075,-7.504C51.022,-26.34 47.233,-28.046 49.091,-40.391C49.091,-40.391 71.949,-128.343 73.234,-134.661C66.599,-139.002 36.216,-156.75 36.216,-156.75C16.422,-157.364 -0.125,-157.873 0,-157.873" style="fill:white;fill-rule:nonzero;stroke:black;stroke-width:1px;"/>
        </g>
        <g transform="matrix(1,0,0,1,310.663,581.053)">
            <path d="M0,-47.117L36.217,-45.993C36.217,-45.993 47.638,-39.307 58.062,-33.112C44.363,-11.297 31.794,-1.149 25.625,-0.215C19.443,0.72 -12.855,-14.327 -29.093,-36.441C1.959,-47.837 -0.1,-47.117 0,-47.117" style="fill:white;fill-rule:nonzero;stroke:black;stroke-width:1px;"/>
        </g>
        <g transform="matrix(1,0,0,1,286.851,649.865)">
            <path d="M0,12.611C-6.401,14.415 -13.883,15.125 -19.399,15.414C-18.44,12.966 -17.571,10.237 -16.95,7.181C-16.865,6.053 -16.822,4.876 -16.803,3.662C-7.098,3.365 7.035,2.04 16.409,-2.803C16.509,-2.803 11.496,9.375 0,12.611" style="fill-rule:nonzero;"/>
        </g>
        <g transform="matrix(1,0,0,1,308.882,574.547)">
            <path d="M0,39.976C-4.734,71.66 -0.312,80.792 -16.019,82.221C-22.913,82.847 -29.323,83.254 -34.377,83.078C-40.834,82.853 -54.462,83.93 -47.277,66.65C-50.344,49.858 -56.193,21.281 -59.337,13.144C-63.636,2.01 -66.315,-10.833 -61.477,-17.397C-56.64,-23.964 -2.368,-40.252 6.019,-43.954C6.119,-43.954 4.604,9.169 0,39.976" style="fill:white;fill-rule:nonzero;stroke:black;stroke-width:1px;"/>
        </g>
        <g transform="matrix(-0.0278687,0.999612,0.999612,0.0278687,368.417,510.278)">
            <path d="M-20.015,-52.133L20.963,-52.133C51.586,-51.279 50.539,-18.326 25.323,-19.029L-3.186,-25.82C-19.453,-51.254 -20.011,-52.249 -20.015,-52.133" style="fill:white;fill-rule:nonzero;stroke:black;stroke-width:1px;"/>
        </g>
        <g transform="matrix(0.204497,0.978867,0.978867,-0.204497,334.615,518.36)">
            <path d="M-10.082,10.36L2.803,10.36C2.157,5.224 0.227,-1.861 -5.308,-6.531C-14.923,-14.643 -24.036,-3.206 -24.141,-3.219C-24.12,-3.117 -10.108,10.238 -10.082,10.36" style="fill:white;fill-rule:nonzero;stroke:black;stroke-width:1px;"/>
        </g>
        <g transform="matrix(1,0,0,1,353.696,449)">
            <path d="M0,45.527C0,45.527 -2.943,61.583 -14.926,61.583C-23.418,61.583 -36.833,45.669 -36.977,37.392C-37.12,29.114 -36.977,15.803 -36.977,2.857C-36.977,-10.09 5.038,-16.056 3.351,4.569C3.451,4.569 3.442,3.459 0,45.527" style="fill:white;fill-rule:nonzero;stroke:black;stroke-width:1px;"/>
        </g>
        <g transform="matrix(1,0,0,1,346.604,477.268)">
            <path d="M0,-29.544C0,-29.544 -4.854,-4.711 -16.271,2.283C-27.689,9.276 -34.111,3.424 -34.111,3.424L-26.404,9.847C-26.404,9.847 -8.992,9.133 -1.998,-12.274C4.995,-33.683 -1,-39.391 -1,-39.391L0,-29.544Z" style="fill-rule:nonzero;"/>
        </g>
        <g transform="matrix(1,0,0,1,345.597,642.629)">
            <path d="M0,-87.908C-2.757,-40.005 -4.635,-14.396 -3.918,5.004C-3.918,5.004 10.083,-65.215 9.214,-78.488C8.274,-92.912 2.509,-87.908 0,-87.908" style="fill-rule:nonzero;"/>
        </g>
        <g transform="matrix(1,0,0,1,386.189,639.217)">
            <path d="M0,-85.01C1.255,-82.79 -10.883,-24.828 -17.135,-1.758C-18.274,2.443 -14.56,4.986 -16.283,8.643C-21.235,19.146 -40.111,15.91 -43.498,14.699C-46.886,13.486 -46.18,8.038 -44.743,0.973C-43.306,-6.09 -32.308,-80.973 -33.379,-86.624C-34.359,-91.804 -39.209,-104.156 -39.31,-104.156C-39.21,-104.156 -1.462,-87.594 0,-85.01" style="fill:white;fill-rule:nonzero;stroke:black;stroke-width:1px;"/>
        </g>
        <g transform="matrix(1,0,0,1,338.715,554.694)">
            <path d="M0,-16.414C11.216,-15.697 6.748,-25.677 8.217,-28.045C8.217,-28.045 15.564,-31.185 21.715,-27.047C27.867,-22.908 21.4,-18.483 22.989,-15.77C24.579,-13.06 28.939,-2.927 7.587,5.923C-13.768,14.771 -34.518,5.923 -40.339,-2.642C-46.162,-11.203 -43.218,-20.053 -41.178,-23.764C-39.139,-27.475 -23.15,-27.047 -23.15,-27.047L-23.815,-24.101C-23.547,-24.101 -12.073,-16.487 0,-16.414" style="fill:white;fill-rule:nonzero;stroke:black;stroke-width:1px;"/>
        </g>
        <g transform="matrix(1,0,0,1,321.9,546.311)">
            <path d="M0,8.904C1.689,16.474 8.899,15.263 15.261,13.749C18.538,12.969 19.655,14.36 19.975,15.889C9.889,18.972 0.167,18.336 -7.653,15.912C-10.59,4.187 4.363,-9.592 4.363,-10.068C4.463,-10.068 -1.718,1.214 0,8.904" style="fill:rgb(204,222,242);fill-rule:nonzero;"/>
        </g>
        <g transform="matrix(1,0,0,1,330.341,592.726)">
            <path d="M0,-55.373C0,-55.373 -10.763,-55.087 -13.737,-36.962C-16.711,-18.837 -11.594,-4.707 -14.044,2.429C-16.495,9.565 -16.406,8.423 -16.406,8.423C-16.406,8.423 -23.381,11.134 -31.341,10.278C-39.303,9.422 -43.627,5.426 -43.627,5.426C-43.627,5.426 -37.99,1.572 -37.812,-9.132C-37.632,-19.836 -38.798,-37.249 -32.646,-49.95C-26.492,-62.653 -14.719,-66.507 -7.25,-63.936C0.22,-61.368 7.844,-54.434 7.844,-54.434C4.867,-54.352 2.592,-55.037 0,-55.373" style="fill:white;fill-rule:nonzero;stroke:black;stroke-width:1px;"/>
        </g>
        <g transform="matrix(1,0,0,1,327.179,534.285)">
            <path d="M0,-107.79C4.342,-107.861 7.293,-107.397 7.293,-107.397C7.293,-107.397 6.895,-106.782 6.336,-105.902C11.548,-107.136 17.443,-105.761 23.707,-99.691C23.707,-99.691 32.017,-108.851 38.476,-105.016C44.935,-101.181 33.229,-86.246 33.229,-86.246L29.867,-80.714C29.867,-83.829 28.855,-90.505 22.128,-86.649C18.436,-84.533 14.816,-71.374 7.732,-63.894C3.767,-59.707 -1.283,-57.3 -8.038,-59.605C-8.25,-55.069 -8.072,-50.454 -6.979,-47.169C-3.981,-38.178 4.297,-19.777 -4.553,-9.359C-13.401,1.061 -37.95,-3.364 -43.23,-15.495C-48.511,-27.627 -31.527,-44.601 -32.526,-56.875C-33.526,-69.149 -38.521,-86.133 -26.105,-98.407C-15.884,-108.51 0.444,-107.797 0,-107.79" style="fill-rule:nonzero;"/>
        </g>
        <g transform="matrix(0.453763,0.891122,0.891122,-0.453763,306.458,434.845)">
            <path d="M19.936,-3.699C19.936,-3.699 4.284,11.797 8.211,25.172C11.42,36.098 19.936,39.704 19.936,39.704C19.936,39.704 9.227,38.791 3.255,25.176C-2.717,11.558 11.136,-13.478 19.936,-3.699" style="fill-rule:nonzero;"/>
        </g>
        <g transform="matrix(-0.974994,-0.222231,-0.222231,0.974994,348.191,544.115)">
            <path d="M-11.49,-10.12C-11.333,-7.769 -12.452,-8.37 -13.905,-5.301C-13.172,-4.461 -12.362,-3.673 -11.49,-3.033C-7.599,-0.18 0.292,0.791 -6.893,-4.988C-9.22,-6.859 -10.633,-8.607 -11.49,-10.12" style="fill-rule:nonzero;"/>
        </g>
        <g transform="matrix(0,1,1,0,301.499,610.782)">
            <path d="M1.553,-1.555C2.412,-1.729 3.108,-1.175 3.108,-0.318C3.108,0.541 2.412,1.378 1.553,1.551C0.697,1.727 0,1.173 0,0.315C0,-0.544 0.697,-1.381 1.553,-1.555" style="fill-rule:nonzero;"/>
        </g>
        <g transform="matrix(0,1,1,0,300.313,626.526)">
            <path d="M1.554,-1.554C2.412,-1.728 3.108,-1.174 3.108,-0.317C3.108,0.541 2.412,1.379 1.554,1.553C0.696,1.728 0,1.174 0,0.315C0,-0.542 0.696,-1.38 1.554,-1.554" style="fill-rule:nonzero;"/>
        </g>
        <g transform="matrix(0,1,1,0,298.602,642.874)">
            <path d="M1.553,-1.555C2.412,-1.729 3.108,-1.176 3.108,-0.317C3.108,0.54 2.412,1.378 1.553,1.553C0.698,1.727 0.001,1.173 0.001,0.315C0.001,-0.543 0.698,-1.382 1.553,-1.555" style="fill-rule:nonzero;"/>
        </g>
        <g transform="matrix(1,0,0,1,388.991,659.254)">
            <path d="M0,1.138C-0.265,0.796 -0.712,0.509 -1.356,0.302C-4.785,-0.805 -24.389,-9.671 -32.036,-8.837C-33.674,-8.659 -35.917,-8.197 -38.407,-7.594C-31.382,-17.211 -36.558,-19.638 -38.356,-17.471C-39.852,-15.668 -58.155,-2.919 -58.155,-2.919L-92.815,-7.175L-96.765,19.597C-76.815,18.773 -62.083,14.989 -61.189,14.939C-61.189,14.939 -42.462,20.776 -33.229,20.39C-27.248,20.139 -22.93,20.479 -22.524,17.212C-22.305,15.437 -20.907,15.451 -17.273,15.112C-12.043,14.624 -13.146,6.393 -13.146,6.393C-13.146,6.393 -10.55,7.459 -5.327,6.139C-1.082,5.067 1.151,2.614 0,1.138" style="fill:white;fill-rule:nonzero;stroke:black;stroke-width:1px;"/>
        </g>
        <g transform="matrix(1,0,0,1,369.298,667.095)">
            <path d="M0,-6.659C0,-6.659 9.095,-6.304 14.152,-1.651C10.654,0 7.778,-1.28 6.547,-1.448C0.178,-6.518 -0.1,-6.659 0,-6.659" style="fill-rule:nonzero;"/>
        </g>
        <g transform="matrix(1,0,0,1,247.404,663.513)">
            <path d="M0,-106.365C0.168,-106.538 0.344,-106.701 0.523,-106.859C17.866,-122.483 46.979,-107.009 38.355,-76.341C33.519,-59.144 15.472,-15.524 15.472,-15.524L42.315,-12.227C40.753,-11.445 39.042,-9.848 37.342,-6.862C33.604,-0.296 30.818,8.927 30.643,15.829C22.287,16.047 14.269,16.118 7.786,15.912C1.584,15.717 -12.804,15.023 -13.512,-2.173C-13.709,-6.973 -12.809,-17.21 -12.105,-25.677L-5.086,-95.499C-4.371,-100.261 -2.562,-103.832 0,-106.365" style="fill:white;fill-rule:nonzero;stroke:black;stroke-width:1px;"/>
        </g>
        <g transform="matrix(-0.21878,0.975774,0.975774,0.21878,332.409,667.605)">
            <path d="M-10.653,-4.001L1.021,-4.001C1.021,-4.001 3.181,-3.953 1.765,-5.699C0.608,-7.127 -5.939,-10.41 -10.044,-10.762C-10.07,-10.648 -9.979,-11.485 -10.653,-4.001" style="fill-rule:nonzero;"/>
        </g>
        <g transform="matrix(-0.14598,0.989288,0.989288,0.14598,301.64,682.232)">
            <path d="M-29.032,-9.804L-1.952,-9.804C-1.952,-9.804 12.48,-15.488 8.314,-20.593C4.146,-25.699 -12.194,-24.587 -22.842,-20.446C-33.502,-16.298 -29.017,-9.903 -29.032,-9.804" style="fill:white;fill-rule:nonzero;stroke:black;stroke-width:1px;"/>
        </g>
        <g transform="matrix(0.624414,0.781093,0.781093,-0.624414,248.957,643.186)">
            <path d="M7.523,-3.301C7.523,-3.301 6.865,-4.331 5.755,-2.361C4.649,-0.391 7.523,16.676 7.523,16.676L12.442,7.873C12.504,7.951 11.993,6.853 7.523,-3.301" style="fill-rule:nonzero;"/>
        </g>
        <g transform="matrix(1,0,0,1,296.179,677.498)">
            <path d="M0,-25.418L3.24,0.945L-3.951,1.354C0.2,-26.772 -0.1,-25.418 0,-25.418" style="fill-rule:nonzero;"/>
        </g>
        <g transform="matrix(1,0,0,1,524.633,649.956)">
            <path d="M0,-68.745C-0.405,-68.885 -0.93,-68.802 -1.547,-68.434C-3.942,-67.002 -29.825,-53.855 -29.825,-53.855C-29.825,-53.855 -29.936,-56.939 -29.343,-61.693C-28.75,-66.445 -32.202,-69.731 -33.83,-66.581C-35.46,-63.428 -39.503,-54.482 -42.376,-50.465C-45.252,-46.449 -51.093,-37.663 -51.093,-37.663L-83.327,-24.244L-73.538,0.986C-57.253,-10.975 -47.394,-19.827 -47.108,-19.216C-39.13,-21.07 -21.126,-24.827 -18,-28.546C-15.837,-31.117 -12.224,-41.603 -11.449,-49.789C-8.178,-53.651 -4.313,-58.221 -1.646,-61.355C1.792,-65.394 1.101,-68.745 0,-68.745" style="fill:white;fill-rule:nonzero;stroke:black;stroke-width:1px;"/>
        </g>
        <g transform="matrix(1,0,0,1,352.002,654.926)">
            <path d="M0,-87.662C6.703,-110.365 40.421,-111.87 48.18,-80.503C52.468,-63.161 58.326,-16.32 58.326,-16.32L83.292,-26.714C82.322,-25.263 81.623,-23.028 81.618,-19.593C81.613,-12.037 83.745,-2.641 87.002,3.446C79.845,7.764 72.909,11.786 67.17,14.81C61.681,17.701 48.829,24.208 39.719,9.606C37.176,5.529 32.902,-3.816 29.33,-11.524L0.945,-75.701C-0.786,-80.195 -0.975,-84.194 -0.001,-87.664L0,-87.662Z" style="fill:white;fill-rule:nonzero;stroke:black;stroke-width:1px;"/>
        </g>
        <g transform="matrix(0.666482,-0.745521,-0.745521,-0.666482,452.485,642.515)">
            <path d="M-7.217,-4.595C-7.217,-4.595 -18.834,-14.875 -21.491,-8.843C-24.148,-2.814 -15.741,11.242 -7.217,18.849C1.307,26.455 5.075,19.535 5.075,19.535C5.142,19.46 5.704,20.77 -7.217,-4.595" style="fill:white;fill-rule:nonzero;stroke:black;stroke-width:1px;"/>
        </g>
        <g transform="matrix(0.928735,0.370743,0.370743,-0.928735,398.566,645.186)">
            <path d="M3.565,-0.703C3.565,-0.703 2.906,-1.732 1.799,0.236C0.69,2.207 3.565,19.276 3.565,19.276L8.484,10.472C8.577,10.51 8.429,10.346 3.565,-0.703" style="fill-rule:nonzero;"/>
        </g>
        <g transform="matrix(1,0,0,1,441.306,650.563)">
            <path d="M0,-24.851L16.081,-4.2L9.789,0.379C-0.147,-25.23 -0.101,-24.851 0,-24.851" style="fill-rule:nonzero;"/>
        </g>
        <g transform="matrix(0.0599246,0.998203,0.998203,-0.0599246,475.196,619.705)">
            <path d="M-7.498,-1.209L1.13,-1.209C1.13,-1.209 2.086,-1.696 0.472,-3.101C-1.141,-4.504 -4.837,-8.584 -4.837,-8.584C-7.864,-0.197 -7.504,-1.311 -7.498,-1.209" style="fill-rule:nonzero;"/>
        </g>
        <g transform="matrix(1,0,0,1,489.396,616.66)">
            <path d="M0,-10.199C-3.553,-7.19 -6.196,4.302 -3.748,7.33C-1.3,10.36 0.656,9.992 0.922,9.552C1.188,9.111 0.451,-1.185 3.121,-5.91C5.791,-10.634 9.73,-15.166 11.31,-17.009C12.886,-18.855 5.411,-20.559 5.411,-20.559C5.511,-20.559 3.426,-13.099 0,-10.199" style="fill-rule:nonzero;"/>
        </g>
        <g transform="matrix(1,0,0,1,495.873,432.185)">
            <path d="M0,-149.326C-3.217,-146.677 -8.042,-142.488 -8.704,-140.772C-10.421,-136.328 -6.844,-116.148 -4.97,-113.825C-3.325,-111.785 7.172,-107.34 9.6,-106.356C10.775,-105.878 14.003,-104.626 17.192,-103.568L26.9,-8.29C28.897,5.689 46.68,3.07 44.721,-10.639L30.03,-104.993C37.944,-110.249 48.346,-118.899 49.305,-121.38C50.413,-124.252 48.401,-144.818 45.569,-148.328C44.494,-149.659 39.729,-152.162 35.766,-153.754C32.621,-155.015 29.058,-152.979 29.613,-149.094C30.678,-141.639 31.269,-135.571 31.062,-134.753C30.687,-133.269 24.337,-125.866 21.382,-125.389C18.428,-124.914 10.354,-130.427 9.502,-131.804C9.073,-132.497 7.908,-138.888 6.818,-146.519C6.273,-150.344 2.563,-151.438 0,-149.326" style="fill:rgb(86,187,106);fill-rule:nonzero;"/>
        </g>
        <g transform="matrix(1,0,0,1,540.595,398.645)">
            <path d="M0,22.905C0,22.905 -2.135,21.872 -5.032,22.102L-7.928,22.333C-7.928,22.333 -8.828,21.974 -7.637,20.536C-6.447,19.098 -3.847,-1.106 -3.847,-1.106C0.178,24.011 -0.101,22.905 0,22.905" style="fill-rule:nonzero;"/>
        </g>
        <g transform="matrix(-0.786618,0.61744,0.61744,0.786618,524.74,336.586)">
            <path d="M-6.715,-6.67L-0.574,-6.67C-0.574,-6.67 0.846,-6.439 0.029,-4.69C-0.788,-2.938 -2.261,1.264 -2.261,1.264L-6.715,-6.67Z" style="fill-rule:nonzero;"/>
        </g>
        <g transform="matrix(1,0,0,1,402.668,659.43)">
            <path d="M0,-11.605C-3.214,-11.605 -5.802,-9.017 -5.802,-5.803C-5.802,-2.587 -3.214,0 0,0L84.508,0C87.724,0 90.312,-2.587 90.312,-5.803C90.312,-9.017 87.724,-11.605 84.508,-11.605L0,-11.605Z" style="fill-rule:nonzero;"/>
        </g>
        <g transform="matrix(1,0,0,1,474.485,659.428)">
            <path d="M0,-89.068C-5.845,-89.068 -8.895,-84.123 -10.55,-78.517L-30.638,-10.549C-32.296,-4.945 -29.098,0 -23.253,0L93.329,0C99.173,0 104.861,-4.945 106.515,-10.549L126.605,-78.517C128.261,-84.123 124.585,-89.068 118.74,-89.068L0,-89.068Z" style="fill:rgb(79,70,156);fill-rule:nonzero;"/>
        </g>
        <g transform="matrix(-0.983782,-0.179366,-0.179366,0.983782,522.787,623.693)">
            <path d="M-7.555,-19.252C-5.178,-12.898 -9.109,-5.846 -15.865,-4.615C-14.512,-0.997 -11.356,1.642 -7.555,2.335C-1.595,3.422 4.119,-0.527 5.207,-6.49C6.603,-14.137 -0.143,-20.613 -7.555,-19.252" style="fill:white;fill-rule:nonzero;"/>
        </g>
        <g transform="matrix(1,0,0,1,423.479,895.299)">
            <path d="M0,-221.452L20.427,-221.452L-18.946,4.762L-29.244,4.762C0.616,-226.214 -0.1,-221.452 0,-221.452" style="fill-rule:nonzero;"/>
        </g>
        <g transform="matrix(-1,0,0,1,579.005,895.205)">
            <path d="M8.817,-221.358L29.244,-221.358L-10.129,4.856L-20.427,4.856C9.445,-226.214 8.918,-221.358 8.817,-221.358" style="fill-rule:nonzero;"/>
        </g>
        <g transform="matrix(1,0,0,1,406.147,678.919)">
            <path d="M0,-19.49L175.981,-19.49C181.71,-19.49 186.323,-15.143 186.323,-9.746C186.323,-4.346 181.71,0 175.981,0L0,0C-5.728,0 -10.339,-4.346 -10.339,-9.746C-10.339,-15.161 -5.709,-19.49 0,-19.49" style="fill:rgb(245,147,61);fill-rule:nonzero;"/>
        </g>
        <g transform="matrix(1,0,0,1,426.328,873.21)">
            <path d="M0,-151.886L-0.473,-151.426L-1.156,-151.426L-1.156,-150.763L-1.645,-150.287L-1.156,-149.84L-1.156,-149.199L-0.457,-149.199L66.494,-88.102L-25.575,-4.085C172.721,-4.085 158.31,-4.319 159.068,-3.613L159.547,-4.085L160.224,-4.085L160.224,-4.739L160.713,-5.219L160.224,-5.66L160.224,-6.306C159.131,-6.306 166.431,0 69.891,-88.102L139.28,-151.426C-10.176,-151.426 0.749,-151.199 0,-151.886M2.938,-149.199L133.446,-149.199L68.192,-89.651C2.173,-149.898 2.838,-149.199 2.938,-149.199M68.192,-86.551L156.125,-6.306L-19.739,-6.306C70.962,-89.079 68.092,-86.551 68.192,-86.551" style="fill-rule:nonzero;"/>
        </g>
        <g transform="matrix(1,0,0,1,851.551,851.926)">
            <path d="M0,-36.945L9.327,-19.338C4.498,-9.719 -6.357,-1.668 -14.89,0.293L-31.685,-23.001L-20.585,-36.037C6.632,-37.238 -1.551,-36.945 0,-36.945" style="fill:white;fill-rule:nonzero;stroke:black;stroke-width:1px;"/>
        </g>
        <g transform="matrix(-0.648035,0.761611,0.761611,0.648035,847.453,822.517)">
            <path d="M5.636,-16.852L22.753,-16.852C22.753,-16.852 7.484,4.363 -5.297,6.035L-8.395,-1.762C1.42,-12.317 5.728,-16.959 5.636,-16.852" style="fill-rule:nonzero;"/>
        </g>
        <g transform="matrix(1,0,0,1,861.933,827.486)">
            <path d="M0,19.692C-6.246,22.481 -11.193,13.32 -11.193,13.32C4.562,-2.789 5.964,3.606 13.148,12.461C13.254,12.461 6.042,17.006 0,19.692" style="fill:white;fill-rule:nonzero;stroke:black;stroke-width:1px;"/>
        </g>
        <g transform="matrix(1,0,0,1,875.081,900.06)">
            <path d="M0,-60.114C-10.549,-53.04 -15.7,-51.802 -24.342,-59.255L-36.741,-49.203C-36.741,-49.203 -50.078,-53.749 -45.596,-42.01C-43.548,-36.646 -46.14,-28.847 -49.921,-20.851C-55.081,-18.74 -59.823,-16.802 -63.061,-14.967C-75.429,-7.94 -75.413,0 -66.117,0L-34.197,-1.677L12.714,-38.521C11.162,-48.321 5.916,-57.845 0,-60.114" style="fill:white;fill-rule:nonzero;stroke:black;stroke-width:1px;"/>
        </g>
        <g transform="matrix(1,0,0,1,818.007,861.31)">
            <path d="M0,10.422C0.592,12.644 4.05,16.394 6.996,18.245C7.484,17.67 8.004,16.276 7.934,16.229C5.216,14.519 2.576,11.407 2.167,9.856C1.733,8.217 2.262,6.815 3.167,5.53C6.594,0.654 13.771,5.341 13.826,5.381C19.12,9.16 30.122,15.303 34.465,10.304C36.639,7.826 37.051,2.11 33.653,-1.701C28.198,-7.823 16.983,-6.691 13.818,2.679C6.426,-1.773 -1.76,3.803 0,10.422M19.805,-1.867C23.621,-4.307 29.139,-3.432 31.983,-0.221C34.666,2.792 34.178,7.262 32.787,8.831C29.672,12.398 19.797,6.761 15.874,3.971C16.662,1.237 18.032,-0.74 19.805,-1.867" style="fill-rule:nonzero;"/>
        </g>
        <g transform="matrix(1,0,0,1,878.051,890.135)">
            <path d="M0,-33.834C-0.709,-27.083 -5.79,-24.648 -5.79,-24.648L-39.097,2.363L-74.633,2.363C-77.217,6.609 -75.098,9.926 -69.087,9.926L-43.201,9.926C-39.23,9.926 -35.962,9.296 -33.386,7.397L9.744,-28.596C8.862,-34.165 6.782,-39.647 4.064,-43.76C4.172,-43.76 0.384,-37.588 0,-33.834" style="fill-rule:nonzero;stroke:black;stroke-width:1px;"/>
        </g>
        <g transform="matrix(1,0,0,1,824.136,874.58)">
            <path d="M0,-1.618C-0.488,-1.24 -0.574,-0.539 -0.196,-0.051C0.182,0.438 0.883,0.525 1.371,0.147C2.676,-0.875 4.484,-0.739 5.712,1.202C6.043,1.722 6.736,1.88 7.256,1.549C7.775,1.218 7.934,0.525 7.603,0.005C5.716,-2.973 2.438,-3.498 0,-1.618" style="fill-rule:nonzero;"/>
        </g>
        <g transform="matrix(1,0,0,1,819.213,881.347)">
            <path d="M0,-1.847C-0.488,-1.469 -0.575,-0.768 -0.197,-0.287L-0.197,-0.279C0.181,0.202 0.882,0.288 1.37,-0.09C2.724,-1.134 4.496,-0.94 5.711,0.973C6.264,1.864 7.348,1.32 7.247,1.32C7.768,0.989 7.925,0.296 7.594,-0.224C5.699,-3.23 2.377,-3.711 0,-1.847" style="fill-rule:nonzero;"/>
        </g>
        <g transform="matrix(1,0,0,1,662.857,840.277)">
            <path d="M0,-350.276C0,-350.276 -9.796,-182.228 -10.99,-165.517C-11.892,-152.877 -6.686,-64.161 -7.583,-22.281C-19.339,-8.145 -4.16,0 -3.279,-0.047L31.339,-0.047C36.716,-5.427 47.67,-5.372 41.727,-27.552C49.452,-50.399 57.632,-87.655 50.171,-162.119L60.188,-233.399C66.783,-200.157 78.256,-162.48 80.385,-156.526C84.649,-144.59 123.008,-66.553 139.056,-27.859C133.982,-10.185 157.017,-11.351 157.017,-11.351L188.693,-25.296C191.45,-32.383 198.974,-35.054 184.597,-52.965C184.321,-72.214 167.581,-130.181 136.125,-172.606C135.074,-187.546 127.609,-299.825 124.431,-314.68C120.85,-331.392 116.011,-350.276 116.011,-350.276L0,-350.276Z" style="fill:white;fill-rule:nonzero;stroke:black;stroke-width:1px;"/>
        </g>
        <g transform="matrix(1,0,0,1,694.194,861.067)">
            <path d="M0,-20.836L-3.85,-1.292C-13.653,3.136 -27.161,2.553 -35.021,-1.292L-34.621,-20.836L-17.791,-23.972C1.573,-20.56 -0.101,-20.836 0,-20.836" style="fill:white;fill-rule:nonzero;stroke:black;stroke-width:1px;"/>
        </g>
        <g transform="matrix(-0.983079,0.183181,0.183181,0.983079,678.461,848.973)">
            <path d="M-0.152,-12.054L16.967,-12.054C16.967,-12.054 -1.186,0.414 -13.969,2.075L-17.068,-5.712C-3.545,-10.782 -0.014,-12.08 -0.152,-12.054" style="fill-rule:nonzero;"/>
        </g>
        <g transform="matrix(1,0,0,1,681.977,859.844)">
            <path d="M0,11.936C-6.609,10.164 -4.679,-0.07 -4.679,-0.07C17.701,-2.662 14.767,3.192 14.767,14.598C15.14,14.598 7.173,13.86 0,11.936" style="fill:white;fill-rule:nonzero;stroke:black;stroke-width:1px;"/>
        </g>
        <g transform="matrix(1,0,0,1,700.76,847.84)">
            <path d="M0,52.221C4.96,43.627 2.734,36.214 -4.017,26.603C-16.668,25.446 -21.448,23.16 -23.462,11.935L-39.426,11.935C-39.426,11.935 -46.924,0 -50.834,11.935C-54.743,23.869 -82.94,31.038 -93.883,37.254C-106.253,44.281 -106.238,52.221 -96.945,52.221L0,52.221Z" style="fill:white;fill-rule:nonzero;stroke:black;stroke-width:1px;"/>
        </g>
        <g transform="matrix(1,0,0,1,661.403,674.295)">
            <path d="M0,-159.512C-0.03,-158.967 -0.098,-157.85 -0.131,-157.265C18.488,-153.742 51.245,-149.089 89.445,-150.537C94.796,-139.563 104.854,-128.575 117.187,-125.69L135.043,-8.441C135.043,-8.441 138.021,0 137.579,-6.624L119.516,-125.244C122.367,-124.815 125.408,-124.785 128.631,-125.274C128.567,-125.983 128.496,-126.792 128.434,-127.479C117.211,-125.68 108.603,-130.621 102.371,-136.57C96.816,-141.873 93.301,-147.947 91.897,-150.634C102.529,-151.109 113.56,-152.066 124.796,-153.651C124.634,-154.387 124.474,-155.109 124.308,-155.843C57.357,-146.44 2.558,-159.512 0,-159.512" style="fill-rule:nonzero;"/>
        </g>
        <g transform="matrix(1,0,0,1,627.029,877.62)">
            <path d="M0,-12.347C-0.687,-10.158 0.225,-5.139 1.726,-2.004C2.443,-2.233 3.792,-2.847 3.755,-2.925C2.378,-5.825 1.651,-10.142 2.133,-11.677C2.638,-13.292 3.842,-14.191 5.295,-14.789C10.793,-17.074 14.35,-9.283 14.374,-9.22C14.374,-9.22 16.571,-3.729 19.825,0.69C22.119,3.809 25.448,7.096 29.177,5.992C32.329,5.059 35.746,0.465 34.917,-4.596C33.57,-12.78 23.449,-17.661 15.818,-11.504C11.837,-19.443 2,-18.738 0,-12.347M23.302,-12.143C27.872,-12.143 32.02,-8.459 32.714,-4.234C33.358,-0.303 30.625,3.227 28.544,3.849C23.978,5.169 18.713,-4.843 16.857,-9.314C20.393,-12.434 23.402,-12.143 23.302,-12.143" style="fill-rule:nonzero;"/>
        </g>
        <g transform="matrix(1,0,0,1,708.816,839.299)">
            <path d="M0,-208.163C-13.194,-148.471 -11.621,-154.691 -12.325,-148.171C-14.715,-125.865 -25.134,-25.4 -25.124,-25.187L-25.124,0.932L-22.893,0.932L-22.893,-25.118C-22.893,-25.225 -9.631,-153.336 -9.401,-154.141C-8.994,-156.593 2.218,-207.784 2.196,-207.682C2.346,-208.375 1.822,-209.051 1.079,-209.037L1.07,-209.039C1.203,-209.039 0.206,-209.095 0,-208.163" style="fill-rule:nonzero;"/>
        </g>
        <g transform="matrix(1,0,0,1,708.449,656.762)">
            <path d="M0,-104.355C0,-104.355 -6.104,-101.665 -6.104,-91.519C-6.104,-81.374 -5.21,-24.674 1.952,-9.456C4.079,-4.937 5.908,-1.542 7.44,1.024L14.596,-49.883C-0.273,-105.379 -0.1,-104.355 0,-104.355" style="fill-rule:nonzero;"/>
        </g>
        <g transform="matrix(1,0,0,1,692.293,893.349)">
            <path d="M0,-4.861C-4.801,-0.055 -13.821,-0.851 -13.821,-0.851L-94.024,-0.851C-96.607,3.395 -94.483,6.711 -88.477,6.711L8.467,6.711C12.094,0.425 11.865,-5.231 8.848,-11.572C9.086,-11.572 4.501,-9.363 0,-4.861" style="fill-rule:nonzero;"/>
        </g>
        <g transform="matrix(1,0,0,1,632.122,875.625)">
            <path d="M0,-6.247C-0.613,-6.192 -1.063,-5.648 -1.003,-5.034C-1.003,-4.66 -0.578,-3.955 0.214,-4.026C1.893,-4.185 3.319,-3.094 3.319,-0.811C3.319,-0.197 3.819,0.307 4.437,0.307C4.855,0.307 5.554,-0.026 5.554,-0.811C5.554,-4.377 2.996,-6.554 0,-6.247" style="fill-rule:nonzero;"/>
        </g>
        <g transform="matrix(1,0,0,1,624.765,879.81)">
            <path d="M0,-6.218C-0.613,-6.155 -1.063,-5.612 -1.003,-4.996C-0.943,-4.382 -0.398,-3.933 0.214,-3.989C1.868,-4.146 3.314,-3.077 3.314,-0.775C3.315,-0.16 3.816,0.344 4.431,0.344C5.048,0.344 5.548,-0.16 5.548,-0.775C5.548,-2.563 4.9,-4.043 3.847,-4.996C2.102,-6.562 -0.101,-6.218 0,-6.218" style="fill-rule:nonzero;"/>
        </g>
        <g transform="matrix(1,0,0,1,713.807,814.011)">
            <path d="M0,-42.887C-8.4,-23.978 -28.02,0 -22.676,-0.534C-16.347,-1.167 -9.225,-1.284 -9.225,-1.284C-5.752,-11.55 -2.194,-24.739 0,-42.887" style="fill-rule:nonzero;"/>
        </g>
        <g transform="matrix(0.897648,-0.440713,-0.440713,-0.897648,813.884,809.204)">
            <path d="M-12.162,2.391L7.996,2.391C7.996,2.391 14.247,4.972 7.415,8.66C1.476,11.861 -9.964,62.315 -10.101,62.035C-10.01,61.99 -10.916,22.161 -12.162,2.391" style="fill-rule:nonzero;"/>
        </g>
        <g transform="matrix(-0.160987,0.986956,0.986956,0.160987,747.155,434.59)">
            <path d="M55.171,-73.689C55.243,-74.131 73.408,-79.656 73.232,-72.291C72.25,-31.131 68.764,9.373 55.171,47.699C52.851,54.245 37.252,36.166 37.324,35.723L55.171,-73.689Z" style="fill:white;fill-rule:nonzero;"/>
        </g>
        <g transform="matrix(1,0,0,1,711.24,492.916)">
            <path d="M0,-164.667L65.8,-140.402C65.8,-140.402 57.756,-61.19 63.305,-35.966C74.464,-27.93 78.399,-11.801 71.718,-7.467C33.71,-2.748 -4.799,0.378 -46.762,-7.467C-57.014,-8.361 -61.285,-22.508 -56.851,-36.781C-56.851,-36.781 -75.639,-133.796 -76.894,-140.402C-69.896,-144.939 -37.878,-163.494 -37.878,-163.494C12.205,-165.045 -2.954,-164.667 0,-164.667" style="fill:white;fill-rule:nonzero;stroke:black;stroke-width:1px;"/>
        </g>
        <g transform="matrix(0.027872,0.999611,0.999611,-0.027872,726.04,332.648)">
            <path d="M-52.147,-20.047L-9.308,-20.047C22.707,-20.94 21.61,-55.389 -4.751,-54.654L-34.555,-47.555C-53.28,-18.275 -52.15,-20.147 -52.147,-20.047" style="fill:white;fill-rule:nonzero;stroke:black;stroke-width:1px;"/>
        </g>
        <g transform="matrix(-0.204446,0.978878,0.978878,0.204446,692.921,289.061)">
            <path d="M13.296,-12.934L26.766,-12.934C26.091,-7.563 24.074,-0.158 18.286,4.727C8.294,13.156 -1.413,1.263 -1.413,1.263C-1.277,1.227 13.33,-13.1 13.296,-12.934" style="fill-rule:nonzero;"/>
        </g>
        <g transform="matrix(1,0,0,1,664.859,240.948)">
            <path d="M0,46.101C0,46.101 -0.747,61.319 16.784,62.885C34.316,64.454 39.688,46.25 39.838,37.596C39.986,28.943 39.838,15.028 39.838,1.493C39.838,-12.043 0,-18.353 0,3.282C0.101,3.282 0,2.217 0,46.101" style="fill:white;fill-rule:nonzero;stroke:black;stroke-width:1px;"/>
        </g>
        <g transform="matrix(1,0,0,1,706.221,347.212)">
            <path d="M0,0.311C0,0.311 -3.229,-6.523 -6.593,-5.627C-9.957,-4.73 -11.951,2.543 -9.125,6.228C-9.025,6.228 -10.061,6.834 0,0.311" style="fill-rule:nonzero;"/>
        </g>
        <g transform="matrix(1,0,0,1,674.42,346.814)">
            <path d="M0,0.92C0,0.92 0.634,-5.916 4.339,-5.019C8.044,-4.122 12.8,3.152 11.372,6.836C11.474,6.836 10.519,6.392 0,0.92" style="fill-rule:nonzero;"/>
        </g>
        <g transform="matrix(1,0,0,1,716.546,355.231)">
            <path d="M0,-25.027C-0.271,-18.862 -1.639,-10.248 -5.844,0.601C-5.844,0.601 15.404,-9.579 21.131,-17.234C-1.631,-25.628 0.1,-25.027 0,-25.027" style="fill-rule:nonzero;"/>
        </g>
        <g transform="matrix(1,0,0,1,691.617,488.879)">
            <path d="M0,-126.77C-7.686,-93.934 6.413,-38.243 6.413,-32.959C-0.625,-26.967 -2.369,-16.701 0.057,-8.324C0.518,-6.741 2.71,-1.491 3.731,0.542C4.562,0.603 5.388,0.656 6.216,0.707C5.141,-1.18 2.75,-6.771 2.235,-8.545C0.02,-16.194 1.67,-26.007 8.293,-31.421C8.776,-31.817 8.667,-32.09 8.683,-32.324C9.101,-36.589 -5.456,-93.057 2.23,-125.898C2.412,-126.666 1.652,-127.477 0.886,-127.45C0.301,-127.429 0.067,-127.058 0,-126.77" style="fill-rule:nonzero;"/>
        </g>
        <g transform="matrix(1,0,0,1,673.337,369.23)">
            <path d="M0,-50.081C-16.547,-45.41 -4.311,-11.926 1.38,-12.875C5.449,-13.555 0.543,-26.64 5.518,-26.007C9.766,-25.467 11.805,-18.283 12.312,-16.187C13.312,-11.188 13.33,-0.609 18.373,-0.268C22.355,0 22.007,-25.585 26.739,-26.218C31.472,-26.852 31.637,-14.774 35.862,-13.085C40.085,-11.398 48.818,-27.645 46.403,-37.036C43.988,-46.425 32.238,-50.043 32.238,-50.043C32.313,-49.645 33.116,-38.729 23.993,-32.815C20.64,-30.64 19.312,-26.088 19.408,-22.212C18.222,-21.871 16.134,-21.706 14.294,-22.212C12.888,-26.041 9.8,-30.31 5.761,-32.608C-0.098,-35.944 -0.101,-50.081 0,-50.081" style="fill:white;fill-rule:nonzero;stroke:black;stroke-width:1px;"/>
        </g>
        <g transform="matrix(0,-1,-1,0,698.08,381.168)">
            <path d="M-1.625,-1.624C-2.523,-1.793 -3.249,-1.205 -3.249,-0.309C-3.249,0.589 -2.522,1.453 -1.625,1.624C-0.728,1.794 0,1.204 0,0.307C0,-0.589 -0.728,-1.454 -1.625,-1.624" style="fill-rule:nonzero;"/>
        </g>
        <g transform="matrix(0,-1,-1,0,699.123,403.087)">
            <path d="M-1.624,-1.624C-2.521,-1.793 -3.249,-1.206 -3.249,-0.309C-3.249,0.587 -2.52,1.453 -1.624,1.624C-0.726,1.793 0.001,1.205 0.001,0.309C0.001,-0.589 -0.726,-1.454 -1.624,-1.624" style="fill-rule:nonzero;"/>
        </g>
        <g transform="matrix(0,-1,-1,0,701.328,426.767)">
            <path d="M-1.624,-1.624C-2.521,-1.793 -3.249,-1.205 -3.249,-0.309C-3.249,0.589 -2.52,1.453 -1.624,1.624C-0.727,1.793 0.001,1.204 0.001,0.307C0.001,-0.589 -0.727,-1.454 -1.624,-1.624" style="fill-rule:nonzero;"/>
        </g>
        <g transform="matrix(0,-1,-1,0,706.451,448.254)">
            <path d="M-1.624,-1.624C-2.521,-1.795 -3.249,-1.204 -3.249,-0.308C-3.249,0.589 -2.521,1.454 -1.624,1.624C-0.726,1.794 0.001,1.204 0.001,0.308C0.001,-0.589 -0.726,-1.453 -1.624,-1.624" style="fill-rule:nonzero;"/>
        </g>
        <g transform="matrix(1,0,0,1,698.191,285.552)">
            <path d="M0,11.712C-3.059,17.093 -10.867,21.734 -24.582,20.468C-38.297,19.202 -40.302,12.556 -39.774,6.753C-39.248,0.951 -33.551,0.527 -33.655,-2.215C-33.761,-4.957 -32.179,-7.595 -29.33,-7.701C-26.48,-7.806 -25.005,-5.591 -26.48,-5.274C-27.958,-4.957 -29.541,-7.068 -29.541,-3.586C-29.541,-0.104 -26.693,4.327 -21.521,3.378C-16.353,2.428 -13.819,-6.225 -16.459,-5.697C-19.096,-5.169 -22.05,-3.904 -22.05,-5.274C-22.05,-6.647 -17.936,-8.967 -9.284,-9.495C-0.634,-10.022 -0.738,-0.316 -0.106,-2.321C0.527,-4.325 2.85,-4.432 2.85,-4.432C2.85,0.232 2.304,7.661 0,11.712" style="fill-rule:nonzero;stroke:black;stroke-width:1px;"/>
        </g>
        <g transform="matrix(1,0,0,1,670.233,238.56)">
            <path d="M0,2.576C0.526,-2.173 5.908,-9.558 9.18,-2.7C12.449,4.158 9.601,15.342 16.669,18.824C23.738,22.305 27.854,21.46 27.854,21.46C27.854,21.46 29.12,31.273 31.335,32.538C33.551,33.805 43.678,27.053 43.678,27.053C43.678,27.053 50.229,20.201 51.39,11.76C52.55,3.32 46.72,-5.685 38.909,-13.495C21.175,-31.229 0.633,-14.304 0.633,-14.304C0.633,-14.304 -5.486,-18.525 -9.496,-12.09C-13.505,-5.654 -11.288,7.639 -9.39,12.809C-7.491,17.978 -5.17,21.355 -5.17,21.355L-5.376,5.67C-5.376,2.553 -2.849,2.576 0,2.576" style="fill-rule:nonzero;stroke:black;stroke-width:1px;"/>
        </g>
        <g transform="matrix(0.748515,-0.663117,-0.663117,-0.748515,713.665,277.565)">
            <path d="M0.448,-5.69C1.544,-8.056 -13.516,-11.272 -13.896,-4.014C-14.274,3.244 -5.443,6.107 0.448,3.08L0.448,3.08C0.663,2.889 -1.139,-2.26 0.448,-5.69" style="fill-rule:nonzero;stroke:black;stroke-width:1px;"/>
        </g>
        <g transform="matrix(0.408302,-0.912847,-0.912847,-0.408302,714.4,267.069)">
            <path d="M-6.886,-4.463C-12.328,-4.463 -16.739,-1.087 -16.74,3.079C-16.74,7.246 -12.328,10.622 -6.886,10.624C-1.444,10.624 2.968,7.248 2.969,3.081C2.968,-1.085 -1.443,-4.463 -6.886,-4.463" style="fill:white;fill-rule:nonzero;stroke:black;stroke-width:1px;"/>
        </g>
        <g transform="matrix(-0.70724,0.706973,0.706973,0.70724,712.505,274.342)">
            <path d="M-0.342,-7.483C-3.375,-7.51 -4.167,-4.187 -3.296,-3.844C-2.426,-3.501 -0.922,-5.056 -0.342,-3.738C0.239,-2.419 4.138,1.88 5.672,-3.842C5.6,-3.77 2.909,-7.453 -0.342,-7.483" style="fill-rule:nonzero;stroke:black;stroke-width:1px;"/>
        </g>
        <g transform="matrix(1,0,0,1,677.746,264.938)">
            <path d="M0,-31.762C0,-31.762 5.501,-28.952 4.541,-19.008C3.581,-9.066 8.311,1.855 20.037,-2.479C31.765,-6.813 29.728,-12.21 29.728,-12.21C29.728,-12.21 23.104,-2.865 14.471,-3.569C5.838,-4.272 5.755,-18.262 7.495,-23.157C9.235,-28.051 3.899,-33.617 0,-31.763L0,-31.762Z" style="fill-rule:nonzero;"/>
        </g>
        <g transform="matrix(1,0,0,1,831.69,501.749)">
            <path d="M0,-92.907C-8.468,-94.879 -22.703,-63.632 -22.703,-63.632L-65.331,-15.404L-53.06,1.972C-36.269,-9.149 -4.118,-31.221 12.061,-44.512C17.071,-48.629 28.549,-58.379 18.174,-73.075C15.275,-77.178 8.004,-85.084 2.017,-91.65C1.395,-92.334 0.717,-92.74 0,-92.907" style="fill:white;fill-rule:nonzero;stroke:black;stroke-width:1px;"/>
        </g>
        <g transform="matrix(-0.661595,0.749861,0.749861,0.661595,719.726,409.712)">
            <path d="M-75.119,85.726L-37.754,85.726C-37.754,85.726 -24.587,46.64 -19.245,30.966C-6.742,-5.715 -83.474,-25.488 -81.834,12.676C-81.9,12.751 -82.087,9.92 -75.119,85.726" style="fill:white;fill-rule:nonzero;stroke:black;stroke-width:1px;"/>
        </g>
        <g transform="matrix(-0.662252,0.749281,0.749281,0.662252,777.956,492.57)">
            <path d="M-4.223,-12.811L3.016,-12.811L2.653,-0.612C2.653,-0.612 2.637,1.647 0.855,0.114C-0.6,-1.139 -3.981,-8.509 -4.223,-12.811" style="fill-rule:nonzero;"/>
        </g>
        <g transform="matrix(-0.701292,0.712874,0.712874,0.701292,829.073,437.242)">
            <path d="M-22.081,-18.051C-17.548,-25.47 14.71,-13.705 14.71,-13.705C5.921,-9.345 -14.704,-7.213 -22.081,-6.568C-22.269,-9.649 -22.438,-12.777 -22.599,-15.731C-22.65,-16.654 -22.464,-17.423 -22.081,-18.051" style="fill-rule:nonzero;"/>
        </g>
        <g transform="matrix(-0.423916,-0.905701,-0.905701,0.423916,810.248,408.588)">
            <path d="M-11.313,-20.606C-11.313,-20.606 -0.382,-32.586 3.049,-26.615C6.483,-20.638 -3.296,-0.735 -11.313,8.114C-19.328,16.971 -26.21,13.66 -26.21,13.66C-26.253,13.569 -27.021,15.524 -11.313,-20.606" style="fill:white;fill-rule:nonzero;stroke:black;stroke-width:1px;"/>
        </g>
        <g transform="matrix(1,0,0,1,733.131,525.617)">
            <path d="M0,-23.522C-8.009,-18.048 -19.519,6.521 -21.898,10.394C-24.277,14.266 -19.394,15.749 -13.307,12.727C-7.22,9.707 -5.607,6.559 -5.607,6.559C-5.607,6.559 0.085,15.348 5.495,11.527C9.256,8.872 10.583,7.711 12.249,9.232C15.316,12.029 19.173,8.162 25.109,3.498C34.271,-3.706 45.502,-21.896 45.502,-21.896C48.748,-37.11 37.541,-33.764 33.229,-39.271C33.331,-39.271 8.264,-29.171 0,-23.522" style="fill:white;fill-rule:nonzero;stroke:black;stroke-width:1px;"/>
        </g>
        <g transform="matrix(-0.32035,-0.947299,-0.947299,0.32035,733.149,476.558)">
            <path d="M-19.911,-28.325C-19.911,-28.325 -12.518,2.264 -11.111,4.861C-9.703,7.457 -13.376,11.936 -19.911,3.968C-26.548,-4.125 -26.893,-10.973 -26.685,-13.245C-26.463,-15.676 -19.878,-28.23 -19.911,-28.325" style="fill:white;fill-rule:nonzero;stroke:black;stroke-width:1px;"/>
        </g>
        <g transform="matrix(1,0,0,1,720.069,521.815)">
            <path d="M0,16.401C4.708,15.115 6.412,11.532 7.454,10.361L9.451,0C9.554,0 1.047,7.659 0,16.401" style="fill-rule:nonzero;"/>
        </g>
        <path d="M747,504L749,491L765,489L769,492L783,491L782,499L771,503L747,504Z" style="fill:white;stroke:white;stroke-width:1px;stroke-linecap:round;stroke-miterlimit:1.5;"/>
    </g>
</svg>
