<svg xmlns="http://www.w3.org/2000/svg" width="1.46em" viewBox="0 0 146.196 272.371">
  <g id="Grupo_107" data-name="Grupo 107" transform="translate(-1361.275 -561.815)">
    <g id="Grupo_106" data-name="Grupo 106">
      <path id="Trazado_43" data-name="Trazado 43" d="M62.66,725.817c1.51.6,2.19-2.341,2.19-2.341a4.684,4.684,0,0,1-1.208,4.657c2.19,11.2,10.974,25.322,19.633,10.219,8.709-15.178,30.91-1.46,50.593-18.878,19.684-17.443,11.981-46.792,1.46-62.146-10.521-15.329-24.441-18.073-31.614-11.654s-4.4,30.809-8.231,39.493c-3.826,8.709-9.565,8.231-12.183,7.929a19.246,19.246,0,0,0-4.606,0c-13.315,1.108-16.009,16.587-16.462,20.187a2.585,2.585,0,0,1,2.467.252C67.14,715.3,61.15,725.213,62.66,725.817Z" transform="translate(1361.429 -80.621)"/>
      <path id="Trazado_44" data-name="Trazado 44" d="M425.993,907.672c.68,4.631,4.027,25.976,16.839,35.793.126.075.226.176.352.252,3.4-8.483,7.627-15.3,12.736-18.073h.025c.378-.478.755-.957,1.158-1.435a.351.351,0,0,1,.075-.1,16.277,16.277,0,0,0,2.895-5.965s-8.231-17.62-13.164-24.516c0,0-1.888-2.693-2.945-3.02a2.7,2.7,0,0,0-1.133.075c-2.693.5-9.363,3.071-15.505,10.622-.529.655-1.057,1.359-1.586,2.089C425.716,903.418,425.313,903.066,425.993,907.672Z" transform="translate(955.935 -266.302)" fill="#fff" stroke="#000" stroke-width="0.5"/>
      <path id="Trazado_45" data-name="Trazado 45" d="M282.035,1087.293c0,2.189,1.108,2.744,1.988,2.844h0a3.4,3.4,0,0,0,.982-.05c9.263-.856,20.917,3.373,34.635,10.471a58.338,58.338,0,0,0,20.338,5.965c2.039.227,3.725.3,4.959.327h1.435c.5,0,.78-.025.78-.025s.05-1.737-.025-4.833a263.476,263.476,0,0,0-6.267-51c-6.872-30.054-27.587-42.966-27.587-42.966-2.517-1.284-2.265,3.247-6.368,5.386-4.883,2.542-9.338,9.59-12.736,18.073a155.611,155.611,0,0,0-6.872,22.981c-1.108,6.167-2.794,12.862-3.574,19.1C282.563,1080.95,282.035,1086.312,282.035,1087.293Z" transform="translate(1104.978 -354.025)" fill="#fff" stroke="#000" stroke-width="0.5"/>
      <path id="Trazado_46" data-name="Trazado 46" d="M309.449,1424.028a2.851,2.851,0,0,0,1.284.076,19.559,19.559,0,0,0,4.053-.856,11.7,11.7,0,0,0,2.517-.981c1.158-.68.478-1.058.478-1.058-12.208-7.8-15.379-31.111,8.885-43.822,1.233-.654,2.567-1.284,3.952-1.888,18.224-7.778,25.85-15.807,29-20.59a14.981,14.981,0,0,0,2.089-4.3v-.05h-1.46a60.537,60.537,0,0,1-25.6-6.293c-13.869-7.1-25.7-11.3-35.063-10.471a2.759,2.759,0,0,1-1.007.05h0a1.545,1.545,0,0,1-.151.126c-1.485,1.183-12.711,11.025-16.034,39.543C278.816,1404.093,309.449,1424.028,309.449,1424.028Z" transform="translate(1090.426 -597.879)" fill="#fff" stroke="#000" stroke-width="0.5"/>
      <path id="Trazado_48" data-name="Trazado 48" d="M448.533,1695.316c4.4.176,9.515-2.744,10.823-4.531,1.334-1.788.4-3.121-.629-3.7a10,10,0,0,1-1.988-1.586,11.337,11.337,0,0,1-2.492.982,19.027,19.027,0,0,1-4,.856v.025c.655,1.157.076,2.391-2.316,3.574S444.128,1695.14,448.533,1695.316Z" transform="translate(950.939 -861.138)"/>
      <path id="Trazado_49" data-name="Trazado 49" d="M114.837,1427.532c.7,5.436,14.876,34.408,40.827,33.628,1.611-.05,3.172-.151,4.657-.327,22.352-2.492,30.1-17.318,31.74-19.331.629-.755.529-1.913.076-3.2h0a31.871,31.871,0,0,0-4.1-6.822c-.277-.377-.5-.679-.7-.931-1.309-1.586-1.485-1.057-1.485-1.057s-.554,8.734-16.89,4.757S149.5,1400.7,149.5,1400.7v.05a14.961,14.961,0,0,1-2.064,4.3c-2.245,3.467-16.7,14.589-16.7,14.589s-6.985,3.862-11.941,6C117.354,1426.248,116.071,1426.878,114.837,1427.532Z" transform="translate(1301.725 -648.025)" fill="#fff" stroke="#000" stroke-width="0.5"/>
      <g id="Grupo_105" data-name="Grupo 105">
        <path id="Trazado_50" data-name="Trazado 50" d="M498.761,709.538c1.259,4.48,7.048,33.125,9.313,37.756,6.167-7.551,12.812-10.119,15.505-10.622,0,0-13.089-21.622-17.242-30.733s-.831-15.4-2.668-18.5-7.224-3.675-8.583,0c-1.384,3.675,2.643,13.517,3.675,15.581s-3.776-1.611-3.952.227C494.659,705.057,497.5,705.057,498.761,709.538Z" transform="translate(875.011 -112.393)" fill="#fff" stroke="#000" stroke-width="0.5"/>
        <path id="Trazado_51" data-name="Trazado 51" d="M383.488,959.98a2.947,2.947,0,0,0,2.24.68c2.316-.353,4.329-3.9,5.311-8.835.655-3.222.629-5.059,1.133-6.494.5-1.46,1.51-2.492,4.279-4.1a10.62,10.62,0,0,0,2.769-2.215c2.114-2.492,1.208-4.657,1.208-4.657s-.68,2.945-2.19,2.341,4.48-10.5,2.039-12.233a2.583,2.583,0,0,0-2.467-.252c-2.139.805-4.506,3.977-5.663,9.238-.856,3.952-1.384,7.123-2.165,9.792a16.322,16.322,0,0,1-3,6.066c-.378.453-.755.956-1.158,1.434C383.111,954.09,380.695,957.84,383.488,959.98Z" transform="translate(1026.052 -291.324)" fill="#fff" stroke="#000" stroke-width="0.5"/>
        <path id="Trazado_52" data-name="Trazado 52" d="M453.58,1129.64c.176,1.51,4.3,2.517,5.311,6.393s3.7,12.434,15.732,18.148a23.08,23.08,0,0,0,5.512,1.787c10.421,1.963,20.59-3.1,20.59-3.1l-12.837-19.1a19.2,19.2,0,0,1-4.178,3.1c-4.732,2.643-12.887,4.782-21.546-4.053,0,0-2.039-1.133-2.542-5.739s-5.664-9.54-6.393-8.86,1.863,4.606,2.744,7.3c.906,2.693.856,2.744.05,2.92C455.267,1128.583,453.4,1128.13,453.58,1129.64Z" transform="translate(908.362 -436.594)" fill="#fff" stroke="#000" stroke-width="0.5"/>
      </g>
    </g>
    <g id="Grupo_25" data-name="Grupo 25" transform="translate(1408.981 686.354)">
      <g id="Grupo_24" data-name="Grupo 24">
        <path id="Trazado_53" data-name="Trazado 53" d="M389.768,1137.688a57.96,57.96,0,0,1-20.892,30.029c-.378.3-.755-.353-.378-.654a57.313,57.313,0,0,0,20.564-29.576c.1-.478.831-.277.7.2Z" transform="translate(-368.342 -1137.214)"/>
      </g>
    </g>
    <g id="Grupo_27" data-name="Grupo 27" transform="translate(1395.757 670.705)">
      <g id="Grupo_26" data-name="Grupo 26">
        <path id="Trazado_54" data-name="Trazado 54" d="M450.512,1075.661a52.879,52.879,0,0,0-17.771,26.655.379.379,0,0,1-.73-.2,53.7,53.7,0,0,1,17.972-26.983c.352-.3.906.227.529.529Z" transform="translate(-431.997 -1075.042)"/>
      </g>
    </g>
    <g id="Grupo_29" data-name="Grupo 29" transform="translate(1398.855 658.999)">
      <g id="Grupo_28" data-name="Grupo 28">
        <path id="Trazado_55" data-name="Trazado 55" d="M456.672,1029.183c-5.135,5.009-8.659,11.276-11.629,17.72-.2.453-.856.05-.654-.377,3-6.494,6.569-12.837,11.755-17.871.327-.352.881.176.529.529Z" transform="translate(-444.35 -1028.538)"/>
      </g>
    </g>
    <g id="Grupo_31" data-name="Grupo 31" transform="translate(1416.635 753.963)">
      <g id="Grupo_30" data-name="Grupo 30">
        <path id="Trazado_56" data-name="Trazado 56" d="M318.6,1406.366a68.4,68.4,0,0,1-34.61,25.3c-.453.151-.654-.579-.2-.73a67.5,67.5,0,0,0,34.157-24.944c.277-.4.931-.025.654.377Z" transform="translate(-283.534 -1405.816)" fill="#4b1c71"/>
      </g>
    </g>
    <path id="Trazado_47" data-name="Trazado 47" d="M77.877,1504.829c.2.252.453.554.7.931a30.875,30.875,0,0,1,4.1,6.821h0c.025,0,.277-.1,2.039-.78,2.24-.881,2.643,4.908,6.419,2.693s-2.114-10.521-3.9-12.937-4.052-1.838-5.538.428A6.832,6.832,0,0,1,77.877,1504.829Z" transform="translate(1411.152 -722.326)"/>
  </g>
</svg>
